{
.appVersion = "3135";
.formatVersion = 3;
axes = (
{
name = Weight;
tag = wght;
}
);
classes = (
{
code = "alef-hb bet-hb gimel-hb dalet-hb he-hb vav-hb zayin-hb het-hb tet-hb yod-hb finalkaf-hb kaf-hb lamed-hb finalmem-hb mem-hb finalnun-hb nun-hb samekh-hb ayin-hb finalpe-hb pe-hb finaltsadi-hb tsadi-hb qof-hb resh-hb shin-hb tav-hb";
name = HebrewLetters;
},
{
automatic = 1;

glyphs = (
{
color = 6;
glyphname = A;
kernLeft = A;
kernRight = A;
layers = (
{
anchors = (
{
name = bottom;
pos = (325,0);
},
{
name = ogonek;
pos = (615,57);
},
{
name = top;
pos = (325,700);
}
);
layerId = "581BC726-83A6-4935-8633-5A6508251040";
shapes = (
{
closed = 1;
nodes = (
(64,0,ls),
(77,0,o),
(84,10,o),
(86,15,cs),
(148,175,l),
(502,175,l),
(564,15,ls),
(566,10,o),
(573,0,o),
(586,0,cs),
(606,0,ls),
(617,0,o),
(626,9,o),
(626,20,cs),
(626,22,o),
(625,28,o),
(624,31,cs),
(371,680,ls),
(366,693,o),
(358,700,o),
(342,700,cs),
(308,700,ls),
(292,700,o),
(284,693,o),
(279,680,cs),
(26,31,ls),
(25,28,o),
(24,22,o),
(24,20,cs),
(24,9,o),
(33,0,o),
(44,0,cs)
);
},
{
closed = 1;
nodes = (
(325,629,l),
(478,235,l),
(172,235,l)
);
}
);
width = 650;
},
{
anchors = (
{
name = bottom;
pos = (378,0);
},
{
name = ogonek;
pos = (700,122);
},
{
name = top;
pos = (378,700);
}
);
color = 6;
layerId = "EC64484B-0978-4CB1-9EE9-C40A2D8C4059";
shapes = (
{
closed = 1;
nodes = (
(207,0,ls),
(233,0,o),
(242,14,o),
(246,25,cs),
(270,91,l),
(485,91,l),
(509,25,ls),
(513,14,o),
(522,0,o),
(548,0,cs),
(733,0,ls),
(745,0,o),
(755,10,o),
(755,22,cs),
(755,24,o),
(755,26,o),
(754,29,cs),
(531,667,l),
(527,682,o),
(513,700,o),
(486,700,cs),
(269,700,ls),
(242,700,o),
(228,682,o),
(224,667,c),
(1,29,ls),
(0,26,o),
(0,24,o),
(0,22,cs),
(0,10,o),
(10,0,o),
(22,0,cs)
);
},
{
closed = 1;
nodes = (
(377,472,l),
(434,286,l),
(321,286,l)
);
}
);
width = 755;
}
);
unicode = 65;
userData = {
com.typemytype.robofont.guides = (
{
angle = 0;
isGlobal = 0;
magnetic = 5;
x = 0;
y = 680;
},
{
angle = 90;
isGlobal = 0;
magnetic = 5;
x = 35;
y = 0;
},
{
angle = 90;
isGlobal = 0;
magnetic = 5;
x = 637;
y = 0;
},
{
angle = 90;
isGlobal = 0;
magnetic = 5;
x = 336;
y = 0;
}
);
};
},
{
color = 6;
glyphname = Aogonek;
kernLeft = A;
kernRight = A;
layers = (
{
layerId = "581BC726-83A6-4935-8633-5A6508251040";
shapes = (
{
closed = 1;
nodes = (
(592,-220,ls),
(605,-220,o),
(614,-211,o),
(614,-198,cs),
(614,-185,ls),
(614,-172,o),
(605,-163,o),
(592,-163,cs),
(577,-163,ls),
(533,-163,o),
(501,-133,o),
(501,-82,cs),
(501,-31,o),
(533,0,o),
(577,0,cs),
(606,0,ls),
(617,0,o),
(626,9,o),
(626,20,cs),
(626,22,o),
(625,28,o),
(624,31,cs),
(371,680,ls),
(366,693,o),
(358,700,o),
(342,700,cs),
(308,700,ls),
(292,700,o),
(284,693,o),
(279,680,cs),
(26,31,ls),
(25,28,o),
(24,22,o),
(24,20,cs),
(24,9,o),
(33,0,o),
(44,0,cs),
(64,0,ls),
(77,0,o),
(84,10,o),
(86,15,cs),
(148,175,l),
(502,175,l),
(545,63,l),
(546,60,o),
(547,58,o),
(548,55,c),
(482,45,o),
(441,-6,o),
(441,-82,cs),
(441,-167,o),
(492,-220,o),
(573,-220,cs)
);
},
{
closed = 1;
nodes = (
(325,629,l),
(478,235,l),
(172,235,l)
);
}
);
width = 650;
},
{
color = 6;
hints = (
{
horizontal = 1;
place = (0, 0);
type = Tag;
}
);
layerId = "EC64484B-0978-4CB1-9EE9-C40A2D8C4059";
shapes = (
{
closed = 1;
nodes = (
(718,-220,ls),
(733,-220,o),
(745,-208,o),
(745,-193,cs),
(745,-125,ls),
(745,-110,o),
(733,-98,o),
(718,-98,cs),
(708,-98,ls),
(669,-98,o),
(658,-70,o),
(658,-49,cs),
(658,-29,o),
(668,-2,o),
(702,0,c),
(733,0,ls),
(745,0,o),
(755,10,o),
(755,22,cs),
(755,24,o),
(755,26,o),
(754,29,cs),
(531,667,l),
(527,682,o),
(513,700,o),
(486,700,cs),
(269,700,ls),
(242,700,o),
(228,682,o),
(224,667,c),
(1,29,ls),
(0,26,o),
(0,24,o),
(0,22,cs),
(0,10,o),
(10,0,o),
(22,0,cs),
(207,0,ls),
(233,0,o),
(242,14,o),
(246,25,cs),
(270,91,l),
(485,91,l),
(509,25,ls),
(512,15,o),
(519,3,o),
(537,0,c),
(534,-15,o),
(532,-31,o),
(532,-49,cs),
(532,-144,o),
(583,-220,o),
(704,-220,cs)
);
},
{
closed = 1;
nodes = (
(377,472,l),
(434,286,l),
(321,286,l)
);
}
);
width = 755;
}
);
unicode = 260;
},
{
color = 6;
glyphname = AE;
kernLeft = AE;
kernRight = E;
layers = (
{
anchors = (
{
name = bottom;
pos = (460,0);
},
{
name = top;
pos = (460,700);
}
);
layerId = "581BC726-83A6-4935-8633-5A6508251040";
shapes = (
{
closed = 1;
nodes = (
(48,0,ls),
(57,0,o),
(65,6,o),
(70,15,c),
(70,15,o),
(71,17,o),
(160,175,c),
(422,175,l),
(422,22,ls),
(422,9,o),
(431,0,o),
(444,0,cs),
(842,0,ls),
(856,0,o),
(865,9,o),
(865,22,cs),
(865,37,ls),
(865,51,o),
(856,60,o),
(842,60,cs),
(485,60,l),
(485,325,l),
(812,325,ls),
(826,325,o),
(835,334,o),
(835,347,cs),
(835,362,ls),
(835,376,o),
(826,385,o),
(812,385,cs),
(485,385,l),
(485,640,l),
(834,640,ls),
(848,640,o),
(857,649,o),
(857,662,cs),
(857,677,ls),
(857,691,o),
(848,700,o),
(834,700,cs),
(401,700,ls),
(392,700,o),
(383,696,o),
(375,681,cs),
(17,49,o),
(9,34,o),
(9,34,c),
(7,30,o),
(5,25,o),
(5,20,cs),
(5,9,o),
(14,0,o),
(25,0,cs)
);
},
{
closed = 1;
nodes = (
(421,633,l),
(422,633,l),
(422,235,l),
(194,235,l)
);
}
);
width = 920;
},
{
anchors = (
{
name = bottom;
pos = (503,0);
},
{
name = top;
pos = (503,700);
}
);
color = 6;
layerId = "EC64484B-0978-4CB1-9EE9-C40A2D8C4059";
shapes = (
{
closed = 1;
nodes = (
(211,0,ls),
(237,0,o),
(246,14,o),
(250,25,cs),
(258,47,o),
(266,69,o),
(274,91,c),
(423,91,l),
(423,27,ls),
(423,12,o),
(435,0,o),
(450,0,cs),
(941,0,ls),
(956,0,o),
(968,12,o),
(968,27,cs),
(968,168,ls),
(968,183,o),
(956,195,o),
(941,195,cs),
(663,195,l),
(663,258,l),
(911,258,ls),
(926,258,o),
(938,270,o),
(938,285,cs),
(938,415,ls),
(938,430,o),
(926,442,o),
(911,442,cs),
(663,442,l),
(663,505,l),
(933,505,ls),
(948,505,o),
(960,517,o),
(960,532,cs),
(960,673,ls),
(960,688,o),
(948,700,o),
(933,700,cs),
(273,700,ls),
(246,700,o),
(232,682,o),
(228,667,c),
(154,454,o),
(79,242,o),
(5,29,cs),
(4,26,o),
(4,24,o),
(4,22,cs),
(4,10,o),
(14,0,o),
(26,0,cs)
);
},
{
closed = 1;
nodes = (
(391,505,l),
(423,505,l),
(423,286,l),
(325,286,l)
);
}
);
width = 1005;
}
);
unicode = 198;
userData = {
com.typemytype.robofont.guides = (
{
angle = 0;
isGlobal = 0;
magnetic = 5;
x = 0;
y = 505;
},
{
angle = 90;
isGlobal = 0;
magnetic = 5;
x = 431;
y = 0;
}
);
};
},
{
color = 6;
glyphname = B;
kernLeft = I;
layers = (
{
anchors = (
{
name = bottom;
pos = (327,0);
},
{
name = top;
pos = (327,700);
}
);
layerId = "581BC726-83A6-4935-8633-5A6508251040";
shapes = (
{
closed = 1;
nodes = (
(384,0,l),
(520,0,o),
(592,97,o),
(592,198,cs),
(592,282,o),
(543,342,o),
(490,369,c),
(530,388,o),
(578,435,o),
(578,521,cs),
(578,616,o),
(517,700,o),
(377,700,cs),
(116,700,ls),
(103,700,o),
(94,691,o),
(94,677,cs),
(94,22,ls),
(94,9,o),
(103,0,o),
(116,0,cs)
);
},
{
closed = 1;
nodes = (
(157,336,l),
(374,336,l),
(473,336,o),
(529,279,o),
(529,198,cs),
(529,118,o),
(473,60,o),
(374,60,cs),
(157,60,l)
);
},
{
closed = 1;
nodes = (
(157,640,l),
(364,640,l),
(463,640,o),
(515,600,o),
(515,521,cs),
(515,442,o),
(463,396,o),
(364,396,cs),
(157,396,l)
);
}
);
width = 653;
},
{
anchors = (
{
name = bottom;
pos = (367,0);
},
{
name = top;
pos = (367,700);
}
);
color = 6;
hints = (
{
horizontal = 1;
place = (0, 0);
type = Tag;
}
);
layerId = "EC64484B-0978-4CB1-9EE9-C40A2D8C4059";
shapes = (
{
closed = 1;
nodes = (
(424,0,ls),
(605,0,o),
(706,70,o),
(706,220,cs),
(706,286,o),
(662,344,o),
(611,365,c),
(643,381,o),
(691,426,o),
(691,490,cs),
(691,630,o),
(605,700,o),
(414,700,cs),
(82,700,ls),
(67,700,o),
(55,688,o),
(55,673,cs),
(55,27,ls),
(55,12,o),
(67,0,o),
(82,0,cs)
);
},
{
closed = 1;
nodes = (
(305,270,l),
(398,270,ls),
(428,270,o),
(444,245,o),
(444,221,cs),
(444,199,o),
(431,172,o),
(398,172,cs),
(305,172,l)
);
},
{
closed = 1;
nodes = (
(305,528,l),
(389,528,ls),
(418,528,o),
(430,503,o),
(430,482,cs),
(430,461,o),
(418,437,o),
(389,437,cs),
(305,437,l)
);
}
);
width = 734;
}
);
unicode = 66;
userData = {
com.typemytype.robofont.guides = (
{
angle = 0;
isGlobal = 0;
magnetic = 5;
x = 0;
y = 271;
},
{
angle = 0;
isGlobal = 0;
magnetic = 5;
x = 0;
y = 437;
},
{
angle = 0;
isGlobal = 0;
magnetic = 5;
x = 0;
y = 521;
},
{
angle = 0;
isGlobal = 0;
magnetic = 5;
x = 0;
y = 198;
},
{
angle = 0;
isGlobal = 0;
magnetic = 5;
x = 0;
y = 9;
},
{
angle = 90;
isGlobal = 0;
magnetic = 5;
x = 355;
y = 0;
},
{
angle = 90;
isGlobal = 0;
magnetic = 5;
x = 583;
y = 0;
},
{
angle = 90;
isGlobal = 0;
magnetic = 5;
x = 94;
y = 0;
}
);
};
},
{
color = 6;
glyphname = C;
kernLeft = O;
kernRight = C;
layers = (
{
anchors = (
{
name = bottom;
pos = (326,0);
},
{
name = top;
pos = (326,700);
}
);
layerId = "581BC726-83A6-4935-8633-5A6508251040";
shapes = (
{
closed = 1;
nodes = (
(521,-10,o),
(593,111,o),
(598,206,cs),
(599,218,o),
(589,226,o),
(577,226,cs),
(557,226,ls),
(546,226,o),
(538,221,o),
(535,205,cs),
(509,86,o),
(438,50,o),
(331,50,cs),
(209,50,o),
(134,115,o),
(129,266,cs),
(127,323,o),
(127,379,o),
(129,434,cs),
(134,585,o),
(209,650,o),
(331,650,cs),
(438,650,o),
(509,614,o),
(535,495,cs),
(538,479,o),
(546,474,o),
(557,474,cs),
(577,474,ls),
(589,474,o),
(599,482,o),
(598,494,cs),
(593,589,o),
(521,710,o),
(331,710,cs),
(149,710,o),
(72,595,o),
(66,439,cs),
(64,382,o),
(64,315,o),
(66,261,cs),
(72,105,o),
(149,-10,o),
(331,-10,cs)
);
}
);
width = 651;
},
{
anchors = (
{
name = bottom;
pos = (367,0);
},
{
name = top;
pos = (367,700);
}
);
color = 6;
layerId = "EC64484B-0978-4CB1-9EE9-C40A2D8C4059";
shapes = (
{
closed = 1;
nodes = (
(542,-10,o),
(706,64,o),
(709,246,cs),
(709,258,o),
(699,268,o),
(687,268,c),
(483,268,l),
(461,268,o),
(453,262,o),
(446,239,cs),
(433,199,o),
(405,185,o),
(371,185,cs),
(327,185,o),
(299,205,o),
(297,266,cs),
(295,323,o),
(295,379,o),
(297,434,c),
(299,495,o),
(327,515,o),
(371,515,cs),
(405,515,o),
(431,504,o),
(446,461,cs),
(454,439,o),
(461,432,o),
(483,432,c),
(687,432,l),
(699,432,o),
(709,442,o),
(709,454,cs),
(706,636,o),
(542,710,o),
(372,710,cs),
(185,710,o),
(45,625,o),
(37,439,c),
(35,382,o),
(35,315,o),
(37,261,c),
(45,70,o),
(180,-10,o),
(372,-10,cs)
);
}
);
width = 733;
}
);
unicode = 67;
userData = {
com.typemytype.robofont.guides = (
{
angle = 0;
isGlobal = 0;
magnetic = 5;
x = 0;
y = 434;
},
{
angle = 0;
isGlobal = 0;
magnetic = 5;
x = 0;
y = 266;
},
{
angle = 0;
isGlobal = 0;
magnetic = 5;
x = 0;
y = 710;
},
{
angle = 0;
isGlobal = 0;
magnetic = 5;
x = 0;
y = "-10";
},
{
angle = 90;
isGlobal = 0;
magnetic = 5;
x = 599;
y = 0;
},
{
angle = 90;
isGlobal = 0;
magnetic = 5;
x = 209;
y = 0;
},
{
angle = 90;
isGlobal = 0;
magnetic = 5;
x = 149;
y = 0;
},
{
angle = 90;
isGlobal = 0;
magnetic = 5;
x = 332;
y = 0;
}
);
};
},
{
color = 6;
glyphname = Ccedilla;
kernLeft = O;
kernRight = C;
layers = (
{
layerId = "581BC726-83A6-4935-8633-5A6508251040";
shapes = (
{
closed = 1;
nodes = (
(391,-221,o),
(422,-180,o),
(422,-132,cs),
(422,-84,o),
(390,-50,o),
(346,-50,cs),
(331,-50,o),
(316,-53,o),
(308,-58,c),
(331,-10,l),
(521,-10,o),
(593,111,o),
(598,206,cs),
(599,218,o),
(589,226,o),
(577,226,c),
(557,226,l),
(546,226,o),
(538,221,o),
(535,205,cs),
(509,86,o),
(438,50,o),
(331,50,cs),
(209,50,o),
(134,115,o),
(129,266,cs),
(127,323,o),
(127,379,o),
(129,434,cs),
(134,585,o),
(209,650,o),
(331,650,cs),
(438,650,o),
(509,614,o),
(535,495,cs),
(538,479,o),
(546,474,o),
(557,474,c),
(577,474,l),
(589,474,o),
(599,482,o),
(598,494,cs),
(593,589,o),
(521,710,o),
(331,710,cs),
(149,710,o),
(72,595,o),
(66,439,cs),
(64,382,o),
(64,315,o),
(66,261,cs),
(71,121,o),
(133,15,o),
(277,-6,c),
(257,-53,l),
(253,-63,o),
(245,-75,o),
(252,-83,c),
(268,-100,l),
(283,-116,o),
(296,-96,o),
(328,-96,cs),
(351,-96,o),
(371,-110,o),
(371,-134,cs),
(371,-159,o),
(351,-174,o),
(328,-174,cs),
(284,-174,o),
(277,-140,o),
(260,-156,c),
(246,-169,l),
(230,-184,o),
(271,-219,o),
(328,-220,cs)
);
}
);
width = 651;
},
{
color = 6;
hints = (
{
horizontal = 1;
place = (0, 0);
type = Tag;
}
);
layerId = "EC64484B-0978-4CB1-9EE9-C40A2D8C4059";
shapes = (
{
closed = 1;
nodes = (
(426,-220,o),
(465,-183,o),
(465,-130,cs),
(465,-77,o),
(435,-40,o),
(384,-40,cs),
(380,-40,o),
(362,-42,o),
(354,-45,c),
(372,-10,l),
(542,-10,o),
(706,64,o),
(709,246,cs),
(709,258,o),
(699,268,o),
(687,268,c),
(483,268,l),
(461,268,o),
(453,262,o),
(446,239,cs),
(433,199,o),
(405,185,o),
(371,185,cs),
(327,185,o),
(299,205,o),
(297,266,cs),
(295,323,o),
(295,379,o),
(297,434,cs),
(299,495,o),
(327,515,o),
(371,515,cs),
(405,515,o),
(431,504,o),
(446,461,cs),
(454,439,o),
(461,432,o),
(483,432,c),
(687,432,l),
(699,432,o),
(709,442,o),
(709,454,cs),
(706,636,o),
(542,710,o),
(372,710,cs),
(185,710,o),
(45,625,o),
(37,439,cs),
(35,382,o),
(35,315,o),
(37,261,cs),
(44,91,o),
(151,10,o),
(309,-6,c),
(289,-52,l),
(280,-71,o),
(282,-76,o),
(291,-85,c),
(312,-106,l),
(325,-119,o),
(348,-106,o),
(366,-106,cs),
(386,-106,o),
(394,-118,o),
(394,-130,cs),
(394,-142,o),
(385,-154,o),
(366,-154,cs),
(332,-154,o),
(327,-136,o),
(310,-151,c),
(289,-169,l),
(266,-189,o),
(313,-220,o),
(366,-220,cs)
);
}
);
width = 733;
}
);
unicode = 199;
userData = {
com.typemytype.robofont.guides = (
{
angle = 0;
isGlobal = 0;
magnetic = 5;
x = 0;
y = "-174";
},
{
angle = 0;
isGlobal = 0;
magnetic = 5;
x = 0;
y = "-220";
},
{
angle = 0;
isGlobal = 0;
magnetic = 5;
x = 0;
y = "-96";
},
{
angle = 0;
isGlobal = 0;
magnetic = 5;
x = 0;
y = "-50";
},
{
angle = 0;
isGlobal = 0;
magnetic = 5;
x = 0;
y = "-135";
},
{
angle = 90;
isGlobal = 0;
magnetic = 5;
x = 331;
y = 0;
},
{
angle = 90;
isGlobal = 0;
magnetic = 5;
x = 342;
y = 0;
}
);
};
},
{
color = 6;
glyphname = D;
kernLeft = I;
kernRight = D;
layers = (
{
anchors = (
{
name = bottom;
pos = (339,0);
},
{
name = center;
pos = (339,350);
},
{
name = top;
pos = (339,700);
}
);
layerId = "581BC726-83A6-4935-8633-5A6508251040";
shapes = (
{
closed = 1;
nodes = (
(334,0,ls),
(540,0,o),
(603,87,o),
(607,271,cs),
(608,331,o),
(608,370,o),
(607,430,cs),
(604,604,o),
(541,700,o),
(329,700,c),
(116,700,ls),
(103,700,o),
(94,691,o),
(94,677,cs),
(94,22,ls),
(94,9,o),
(103,0,o),
(116,0,cs)
);
},
{
closed = 1;
nodes = (
(157,640,l),
(324,640,ls),
(484,640,o),
(541,571,o),
(544,425,cs),
(545,365,o),
(545,336,o),
(544,276,cs),
(541,120,o),
(488,60,o),
(329,60,cs),
(157,60,l)
);
}
);
width = 677;
},
{
anchors = (
{
name = bottom;
pos = (370,0);
},
{
name = center;
pos = (370,350);
},
{
name = top;
pos = (364,700);
}
);
color = 6;
hints = (
{
horizontal = 1;
place = (0, 0);
type = Tag;
}
);
layerId = "EC64484B-0978-4CB1-9EE9-C40A2D8C4059";
shapes = (
{
closed = 1;
nodes = (
(375,0,ls),
(566,0,o),
(696,87,o),
(704,276,cs),
(706,330,o),
(706,368,o),
(704,425,cs),
(697,604,o),
(557,700,o),
(370,700,c),
(82,700,ls),
(67,700,o),
(55,688,o),
(55,673,cs),
(55,27,ls),
(55,12,o),
(67,0,o),
(82,0,cs)
);
},
{
closed = 1;
nodes = (
(305,505,l),
(365,505,ls),
(410,505,o),
(447,481,o),
(450,425,cs),
(453,370,o),
(453,333,o),
(450,276,cs),
(447,220,o),
(414,195,o),
(370,195,cs),
(305,195,l)
);
}
);
width = 740;
}
);
unicode = 68;
userData = {
com.typemytype.robofont.guides = (
{
angle = 0;
isGlobal = 0;
magnetic = 5;
x = 0;
y = 425;
},
{
angle = 0;
isGlobal = 0;
magnetic = 5;
x = 0;
y = 276;
},
{
angle = 0;
isGlobal = 0;
magnetic = 5;
x = 0;
y = 9;
},
{
angle = 90;
isGlobal = 0;
magnetic = 5;
x = 320;
y = 0;
},
{
angle = 90;
isGlobal = 0;
magnetic = 5;
x = 603;
y = 0;
},
{
angle = 90;
isGlobal = 0;
magnetic = 5;
x = 94;
y = 0;
}
);
};
},
{
color = 6;
glyphname = Eth;
kernLeft = I;
kernRight = D;
layers = (
{
layerId = "581BC726-83A6-4935-8633-5A6508251040";
shapes = (
{
closed = 1;
nodes = (
(340,0,ls),
(546,0,o),
(609,87,o),
(613,271,cs),
(614,331,o),
(614,370,o),
(613,430,cs),
(610,604,o),
(547,700,o),
(335,700,c),
(122,700,ls),
(109,700,o),
(100,691,o),
(100,677,cs),
(100,382,l),
(37,382,ls),
(24,382,o),
(15,373,o),
(15,360,cs),
(15,344,ls),
(15,331,o),
(24,322,o),
(37,322,cs),
(100,322,l),
(100,22,ls),
(100,9,o),
(109,0,o),
(122,0,cs)
);
},
{
closed = 1;
nodes = (
(163,322,l),
(313,322,ls),
(326,322,o),
(335,331,o),
(335,344,cs),
(335,360,ls),
(335,373,o),
(326,382,o),
(313,382,cs),
(163,382,l),
(163,640,l),
(330,640,ls),
(490,640,o),
(547,571,o),
(550,425,cs),
(551,365,o),
(551,336,o),
(550,276,cs),
(547,120,o),
(494,60,o),
(335,60,cs),
(163,60,l)
);
}
);
width = 683;
},
{
color = 6;
hints = (
{
horizontal = 1;
place = (0, 0);
type = Tag;
}
);
layerId = "EC64484B-0978-4CB1-9EE9-C40A2D8C4059";
shapes = (
{
closed = 1;
nodes = (
(395,0,ls),
(586,0,o),
(729,87,o),
(729,276,cs),
(729,326,o),
(729,375,o),
(729,425,cs),
(729,604,o),
(581,700,o),
(394,700,cs),
(106,700,ls),
(91,700,o),
(79,688,o),
(79,673,cs),
(79,429,l),
(41,429,l),
(26,429,o),
(14,417,o),
(14,402,cs),
(14,301,ls),
(14,286,o),
(26,274,o),
(41,274,cs),
(79,274,l),
(79,27,ls),
(79,12,o),
(91,0,o),
(106,0,cs)
);
},
{
closed = 1;
nodes = (
(329,274,l),
(385,274,ls),
(400,274,o),
(412,286,o),
(412,301,cs),
(412,402,ls),
(412,417,o),
(400,429,o),
(385,429,cs),
(329,429,l),
(329,505,l),
(394,505,ls),
(439,505,o),
(469,481,o),
(469,425,cs),
(469,375,o),
(469,326,o),
(469,276,cs),
(469,220,o),
(438,195,o),
(394,195,cs),
(329,195,l)
);
}
);
width = 766;
}
);
unicode = 208;
userData = {
com.typemytype.robofont.guides = (
{
angle = 0;
isGlobal = 0;
magnetic = 5;
x = 0;
y = 350;
}
);
};
},
{
color = 6;
glyphname = Dcroat;
kernLeft = I;
kernRight = D;
layers = (
{
layerId = "581BC726-83A6-4935-8633-5A6508251040";
shapes = (
{
closed = 1;
nodes = (
(340,0,ls),
(546,0,o),
(609,87,o),
(613,271,cs),
(614,331,o),
(614,370,o),
(613,430,cs),
(610,604,o),
(547,700,o),
(335,700,c),
(122,700,ls),
(109,700,o),
(100,691,o),
(100,677,cs),
(100,382,l),
(37,382,ls),
(24,382,o),
(15,373,o),
(15,360,cs),
(15,344,ls),
(15,331,o),
(24,322,o),
(37,322,cs),
(100,322,l),
(100,22,ls),
(100,9,o),
(109,0,o),
(122,0,cs)
);
},
{
closed = 1;
nodes = (
(163,322,l),
(313,322,ls),
(326,322,o),
(335,331,o),
(335,344,cs),
(335,360,ls),
(335,373,o),
(326,382,o),
(313,382,cs),
(163,382,l),
(163,640,l),
(330,640,ls),
(490,640,o),
(547,571,o),
(550,425,cs),
(551,365,o),
(551,336,o),
(550,276,cs),
(547,120,o),
(494,60,o),
(335,60,cs),
(163,60,l)
);
}
);
width = 683;
},
{
color = 6;
hints = (
{
horizontal = 1;
place = (0, 0);
type = Tag;
}
);
layerId = "EC64484B-0978-4CB1-9EE9-C40A2D8C4059";
shapes = (
{
closed = 1;
nodes = (
(395,0,ls),
(586,0,o),
(720,87,o),
(728,276,cs),
(730,330,o),
(730,368,o),
(728,425,cs),
(721,604,o),
(581,700,o),
(394,700,c),
(106,700,ls),
(91,700,o),
(79,688,o),
(79,673,cs),
(79,430,l),
(41,430,ls),
(26,430,o),
(14,418,o),
(14,403,cs),
(14,302,ls),
(14,287,o),
(26,275,o),
(41,275,cs),
(79,275,l),
(79,27,ls),
(79,12,o),
(91,0,o),
(106,0,cs)
);
},
{
closed = 1;
nodes = (
(329,275,l),
(385,275,ls),
(400,275,o),
(412,287,o),
(412,302,cs),
(412,403,ls),
(412,418,o),
(400,430,o),
(385,430,cs),
(329,430,l),
(329,505,l),
(394,505,ls),
(439,505,o),
(471,481,o),
(474,425,cs),
(477,370,o),
(477,333,o),
(474,276,cs),
(471,220,o),
(438,195,o),
(394,195,cs),
(329,195,l)
);
}
);
width = 764;
}
);
unicode = 272;
userData = {
com.typemytype.robofont.guides = (
{
angle = 0;
isGlobal = 0;
magnetic = 5;
x = 0;
y = 352;
},
{
angle = 90;
isGlobal = 0;
magnetic = 5;
x = 340;
y = 0;
},
{
angle = 90;
isGlobal = 0;
magnetic = 5;
x = 105;
y = 0;
}
);
};
},
{
color = 6;
glyphname = E;
kernLeft = I;
kernRight = E;
layers = (
{
anchors = (
{
name = bottom;
pos = (296,0);
},
{
name = ogonek;
pos = (533,57);
},
{
name = top;
pos = (296,700);
},
{
name = topleft;
pos = (20,700);
}
);
layerId = "581BC726-83A6-4935-8633-5A6508251040";
shapes = (
{
closed = 1;
nodes = (
(514,0,ls),
(528,0,o),
(537,9,o),
(537,22,cs),
(537,37,ls),
(537,51,o),
(528,60,o),
(514,60,c),
(157,60,l),
(157,325,l),
(484,325,ls),
(498,325,o),
(507,334,o),
(507,347,cs),
(507,362,ls),
(507,376,o),
(498,385,o),
(484,385,cs),
(157,385,l),
(157,640,l),
(506,640,ls),
(520,640,o),
(529,649,o),
(529,662,cs),
(529,677,ls),
(529,691,o),
(520,700,o),
(506,700,cs),
(116,700,ls),
(103,700,o),
(94,691,o),
(94,677,cs),
(94,22,ls),
(94,9,o),
(103,0,o),
(116,0,cs)
);
}
);
width = 592;
},
{
anchors = (
{
name = bottom;
pos = (334,0);
},
{
name = ogonek;
pos = (626,122);
},
{
name = top;
pos = (334,700);
},
{
name = topleft;
pos = (20,700);
}
);
color = 6;
layerId = "EC64484B-0978-4CB1-9EE9-C40A2D8C4059";
shapes = (
{
closed = 1;
nodes = (
(603,0,ls),
(618,0,o),
(630,12,o),
(630,27,cs),
(630,168,ls),
(630,183,o),
(618,195,o),
(603,195,cs),
(295,195,l),
(295,258,l),
(573,258,ls),
(588,258,o),
(600,270,o),
(600,285,cs),
(600,415,ls),
(600,430,o),
(588,442,o),
(573,442,cs),
(295,442,l),
(295,505,l),
(595,505,ls),
(610,505,o),
(622,517,o),
(622,532,cs),
(622,673,ls),
(622,688,o),
(610,700,o),
(595,700,cs),
(82,700,ls),
(67,700,o),
(55,688,o),
(55,673,cs),
(55,27,ls),
(55,12,o),
(67,0,o),
(82,0,cs)
);
}
);
width = 667;
}
);
unicode = 69;
userData = {
com.typemytype.robofont.guides = (
{
angle = 0;
isGlobal = 0;
magnetic = 5;
x = 0;
y = 334;
},
{
angle = 0;
isGlobal = 0;
magnetic = 5;
x = 0;
y = 9;
},
{
angle = 0;
isGlobal = 0;
magnetic = 5;
x = 0;
y = 376;
},
{
angle = 0;
isGlobal = 0;
magnetic = 5;
x = 0;
y = 691;
},
{
angle = 0;
isGlobal = 0;
magnetic = 5;
x = 0;
y = 649;
},
{
angle = 90;
isGlobal = 0;
magnetic = 5;
x = 664;
y = 0;
},
{
angle = 90;
isGlobal = 0;
magnetic = 5;
x = 94;
y = 0;
},
{
angle = 90;
isGlobal = 0;
magnetic = 5;
x = 511;
y = 0;
}
);
};
},
{
color = 6;
glyphname = Eogonek;
kernLeft = I;
kernRight = E;
layers = (
{
anchors = (
{
name = top;
pos = (296,700);
}
);
layerId = "581BC726-83A6-4935-8633-5A6508251040";
shapes = (
{
closed = 1;
nodes = (
(515,-220,ls),
(528,-220,o),
(537,-211,o),
(537,-198,cs),
(537,-185,ls),
(537,-172,o),
(528,-163,o),
(515,-163,cs),
(500,-163,ls),
(456,-163,o),
(424,-133,o),
(424,-82,cs),
(424,-33,o),
(453,-3,o),
(493,0,c),
(514,0,ls),
(528,0,o),
(537,9,o),
(537,22,cs),
(537,37,ls),
(537,51,o),
(528,60,o),
(514,60,cs),
(157,60,l),
(157,325,l),
(484,325,ls),
(498,325,o),
(507,334,o),
(507,347,cs),
(507,362,ls),
(507,376,o),
(498,385,o),
(484,385,cs),
(157,385,l),
(157,640,l),
(506,640,ls),
(520,640,o),
(529,649,o),
(529,662,cs),
(529,677,ls),
(529,691,o),
(520,700,o),
(506,700,cs),
(116,700,ls),
(103,700,o),
(94,691,o),
(94,677,cs),
(94,22,ls),
(94,9,o),
(103,0,o),
(116,0,cs),
(385,0,l),
(371,-22,o),
(364,-50,o),
(364,-82,cs),
(364,-167,o),
(415,-220,o),
(496,-220,cs)
);
}
);
width = 592;
},
{
anchors = (
{
name = top;
pos = (334,700);
}
);
color = 6;
hints = (
{
horizontal = 1;
place = (0, 0);
type = Tag;
}
);
layerId = "EC64484B-0978-4CB1-9EE9-C40A2D8C4059";
shapes = (
{
closed = 1;
nodes = (
(603,-220,ls),
(618,-220,o),
(630,-208,o),
(630,-193,cs),
(630,-125,ls),
(630,-110,o),
(618,-98,o),
(603,-98,cs),
(593,-98,ls),
(554,-98,o),
(543,-70,o),
(543,-49,cs),
(543,-28,o),
(554,0,o),
(593,0,cs),
(603,0,ls),
(618,0,o),
(630,12,o),
(630,27,cs),
(630,168,ls),
(630,183,o),
(618,195,o),
(603,195,cs),
(295,195,l),
(295,258,l),
(573,258,ls),
(588,258,o),
(600,270,o),
(600,285,cs),
(600,415,ls),
(600,430,o),
(588,442,o),
(573,442,cs),
(295,442,l),
(295,505,l),
(595,505,ls),
(610,505,o),
(622,517,o),
(622,532,cs),
(622,673,ls),
(622,688,o),
(610,700,o),
(595,700,cs),
(82,700,ls),
(67,700,o),
(55,688,o),
(55,673,cs),
(55,27,ls),
(55,12,o),
(67,0,o),
(82,0,cs),
(422,0,l),
(419,-16,o),
(417,-31,o),
(417,-49,cs),
(417,-144,o),
(468,-220,o),
(589,-220,cs)
);
}
);
width = 667;
}
);
unicode = 280;
userData = {
com.typemytype.robofont.guides = (
{
angle = 90;
isGlobal = 0;
magnetic = 5;
x = 355;
y = 0;
}
);
};
},
{
color = 6;
glyphname = F;
kernLeft = I;
layers = (
{
anchors = (
{
name = bottom;
pos = (285,0);
},
{
name = top;
pos = (285,700);
}
);
layerId = "581BC726-83A6-4935-8633-5A6508251040";
shapes = (
{
closed = 1;
nodes = (
(134,0,ls),
(148,0,o),
(157,9,o),
(157,22,cs),
(157,311,l),
(482,311,ls),
(496,311,o),
(505,320,o),
(505,333,cs),
(505,348,ls),
(505,362,o),
(496,371,o),
(482,371,cs),
(157,371,l),
(157,640,l),
(502,640,ls),
(516,640,o),
(525,649,o),
(525,662,cs),
(525,677,ls),
(525,691,o),
(516,700,o),
(502,700,cs),
(116,700,l),
(103,700,o),
(94,691,o),
(94,677,cs),
(94,22,ls),
(94,9,o),
(103,0,o),
(116,0,cs)
);
}
);
width = 570;
},
{
anchors = (
{
name = bottom;
pos = (323,0);
},
{
name = top;
pos = (323,700);
}
);
color = 6;
hints = (
{
horizontal = 1;
place = (0, 0);
type = Tag;
}
);
layerId = "EC64484B-0978-4CB1-9EE9-C40A2D8C4059";
shapes = (
{
closed = 1;
nodes = (
(273,0,ls),
(288,0,o),
(300,12,o),
(300,27,cs),
(300,215,l),
(566,215,ls),
(581,215,o),
(593,227,o),
(593,242,cs),
(593,393,ls),
(593,408,o),
(581,420,o),
(566,420,cs),
(300,420,l),
(300,494,l),
(586,494,ls),
(601,494,o),
(613,506,o),
(613,521,cs),
(613,673,ls),
(613,688,o),
(601,700,o),
(586,700,cs),
(82,700,ls),
(67,700,o),
(55,688,o),
(55,673,cs),
(55,27,ls),
(55,12,o),
(67,0,o),
(82,0,cs)
);
}
);
width = 646;
}
);
unicode = 70;
userData = {
com.typemytype.robofont.guides = (
{
angle = 0;
isGlobal = 0;
magnetic = 5;
x = 0;
y = 320;
},
{
angle = 0;
isGlobal = 0;
magnetic = 5;
x = 0;
y = 691;
},
{
angle = 0;
isGlobal = 0;
magnetic = 5;
x = 0;
y = 649;
},
{
angle = 0;
isGlobal = 0;
magnetic = 5;
x = 0;
y = 362;
},
{
angle = 0;
isGlobal = 0;
magnetic = 5;
x = 0;
y = 9;
},
{
angle = 90;
isGlobal = 0;
magnetic = 5;
x = 761;
y = 0;
},
{
angle = 90;
isGlobal = 0;
magnetic = 5;
x = 94;
y = 0;
},
{
angle = 90;
isGlobal = 0;
magnetic = 5;
x = 487;
y = 0;
},
{
angle = 90;
isGlobal = 0;
magnetic = 5;
x = 139;
y = 0;
}
);
};
},
{
color = 6;
glyphname = G;
kernLeft = O;
kernRight = G;
layers = (
{
anchors = (
{
name = bottom;
pos = (346,0);
},
{
name = top;
pos = (339,700);
}
);
layerId = "581BC726-83A6-4935-8633-5A6508251040";
shapes = (
{
closed = 1;
nodes = (
(506,-10,o),
(604,100,o),
(604,260,cs),
(604,348,ls),
(604,362,o),
(595,371,o),
(581,371,cs),
(367,371,ls),
(354,371,o),
(345,362,o),
(345,348,cs),
(345,334,ls),
(345,320,o),
(354,311,o),
(367,311,cs),
(541,311,l),
(541,260,ls),
(541,115,o),
(452,50,o),
(334,50,cs),
(215,50,o),
(135,110,o),
(130,260,cs),
(128,320,o),
(128,380,o),
(130,440,cs),
(135,590,o),
(215,650,o),
(334,650,cs),
(453,650,o),
(510,587,o),
(530,525,cs),
(535,510,o),
(539,505,o),
(551,505,cs),
(573,505,ls),
(586,505,o),
(595,513,o),
(594,525,cs),
(591,582,o),
(519,710,o),
(334,710,cs),
(163,710,o),
(72,602,o),
(67,445,cs),
(65,385,o),
(65,315,o),
(67,255,cs),
(72,99,o),
(162,-10,o),
(334,-10,cs)
);
}
);
width = 664;
},
{
anchors = (
{
name = bottom;
pos = (377,0);
},
{
name = top;
pos = (377,700);
}
);
color = 6;
hints = (
{
horizontal = 1;
place = (0, 0);
type = Tag;
}
);
layerId = "EC64484B-0978-4CB1-9EE9-C40A2D8C4059";
shapes = (
{
closed = 1;
nodes = (
(576,-10,o),
(718,85,o),
(718,265,cs),
(718,395,ls),
(718,410,o),
(706,422,o),
(691,422,cs),
(416,422,ls),
(401,422,o),
(389,410,o),
(389,395,cs),
(389,284,ls),
(389,269,o),
(401,257,o),
(416,257,cs),
(463,257,l),
(463,256,l),
(463,205,o),
(428,185,o),
(378,185,cs),
(329,185,o),
(299,210,o),
(297,270,c),
(295,327,o),
(295,385,o),
(297,440,c),
(299,490,o),
(325,515,o),
(374,515,cs),
(423,515,o),
(438,486,o),
(446,476,cs),
(452,469,o),
(460,465,o),
(475,465,cs),
(696,465,ls),
(708,465,o),
(718,475,o),
(718,487,cs),
(715,608,o),
(585,710,o),
(374,710,cs),
(177,710,o),
(44,622,o),
(37,445,c),
(35,388,o),
(35,319,o),
(37,265,cs),
(45,79,o),
(172,-10,o),
(374,-10,cs)
);
}
);
width = 753;
}
);
unicode = 71;
userData = {
com.typemytype.robofont.guides = (
{
angle = 0;
isGlobal = 0;
magnetic = 5;
x = 0;
y = "-10";
},
{
angle = 0;
isGlobal = 0;
magnetic = 5;
x = 0;
y = 260;
},
{
angle = 0;
isGlobal = 0;
magnetic = 5;
x = 0;
y = 440;
},
{
angle = 90;
isGlobal = 0;
magnetic = 5;
x = 334;
y = 0;
},
{
angle = 90;
isGlobal = 0;
magnetic = 5;
x = 133;
y = 0;
},
{
angle = 90;
isGlobal = 0;
magnetic = 5;
x = 604;
y = 0;
},
{
angle = 90;
isGlobal = 0;
magnetic = 5;
x = 67;
y = 0;
}
);
};
},
{
color = 6;
glyphname = H;
kernLeft = I;
kernRight = I;
layers = (
{
anchors = (
{
name = bottom;
pos = (350,0);
},
{
name = center;
pos = (350,350);
},
{
name = top;
pos = (350,700);
},
{
name = topleft;
pos = (20,700);
}
);
layerId = "581BC726-83A6-4935-8633-5A6508251040";
shapes = (
{
closed = 1;
nodes = (
(134,0,ls),
(148,0,o),
(157,9,o),
(157,22,cs),
(157,325,l),
(543,325,l),
(543,22,ls),
(543,9,o),
(552,0,o),
(565,0,cs),
(583,0,ls),
(597,0,o),
(606,9,o),
(606,22,cs),
(606,677,ls),
(606,691,o),
(597,700,o),
(583,700,cs),
(565,700,l),
(552,700,o),
(543,691,o),
(543,677,cs),
(543,385,l),
(157,385,l),
(157,677,ls),
(157,691,o),
(148,700,o),
(134,700,cs),
(116,700,ls),
(103,700,o),
(94,691,o),
(94,677,cs),
(94,22,ls),
(94,9,o),
(103,0,o),
(116,0,cs)
);
}
);
width = 700;
},
{
anchors = (
{
name = bottom;
pos = (386,0);
},
{
name = center;
pos = (386,350);
},
{
name = top;
pos = (386,700);
},
{
name = topleft;
pos = (20,700);
}
);
color = 6;
layerId = "EC64484B-0978-4CB1-9EE9-C40A2D8C4059";
shapes = (
{
closed = 1;
nodes = (
(278,0,ls),
(293,0,o),
(305,12,o),
(305,27,cs),
(305,243,l),
(467,243,l),
(467,27,ls),
(467,12,o),
(479,0,o),
(494,0,cs),
(690,0,ls),
(705,0,o),
(717,12,o),
(717,27,cs),
(717,673,ls),
(717,688,o),
(705,700,o),
(690,700,cs),
(494,700,ls),
(479,700,o),
(467,688,o),
(467,673,cs),
(467,463,l),
(305,463,l),
(305,673,ls),
(305,688,o),
(293,700,o),
(278,700,cs),
(82,700,ls),
(67,700,o),
(55,688,o),
(55,673,cs),
(55,27,ls),
(55,11,o),
(67,0,o),
(82,0,cs)
);
}
);
width = 772;
}
);
unicode = 72;
userData = {
com.typemytype.robofont.guides = (
{
angle = 0;
isGlobal = 0;
magnetic = 5;
x = 0;
y = 350;
},
{
angle = 0;
isGlobal = 0;
magnetic = 5;
x = 0;
y = 9;
},
{
angle = 0;
isGlobal = 0;
magnetic = 5;
x = 0;
y = 691;
},
{
angle = 90;
isGlobal = 0;
magnetic = 5;
x = 94;
y = 0;
},
{
angle = 90;
isGlobal = 0;
magnetic = 5;
x = 139;
y = 0;
},
{
angle = 90;
isGlobal = 0;
magnetic = 5;
x = 543;
y = 0;
},
{
angle = 90;
isGlobal = 0;
magnetic = 5;
x = 588;
y = 0;
}
);
};
},
{
color = 3;
glyphname = Hbar;
kernLeft = I;
kernRight = I;
layers = (
{
layerId = "581BC726-83A6-4935-8633-5A6508251040";
shapes = (
{
closed = 1;
nodes = (
(667,513,ls),
(680,513,o),
(689,522,o),
(689,535,cs),
(689,549,ls),
(689,562,o),
(680,571,o),
(667,571,cs),
(43,571,ls),
(30,571,o),
(21,562,o),
(21,549,cs),
(21,535,ls),
(21,522,o),
(30,513,o),
(43,513,cs)
);
},
{
ref = H;
}
);
width = 700;
},
{
color = 3;
hints = (
{
horizontal = 1;
place = (0, 0);
type = Tag;
}
);
layerId = "EC64484B-0978-4CB1-9EE9-C40A2D8C4059";
shapes = (
{
closed = 1;
nodes = (
(682,521,ls),
(697,521,o),
(709,533,o),
(709,548,cs),
(709,616,ls),
(709,631,o),
(697,643,o),
(682,643,cs),
(88,643,ls),
(73,643,o),
(61,631,o),
(61,616,cs),
(61,548,ls),
(61,533,o),
(73,521,o),
(88,521,cs)
);
},
{
ref = H;
}
);
width = 772;
},
{
associatedMasterId = "581BC726-83A6-4935-8633-5A6508251040";
color = 6;
hints = (
{
horizontal = 1;
place = (571, 0);
type = Tag;
}
);
layerId = "9F89FD77-DC2E-4404-8D47-3D5086EDA98C";
name = "Light Jan 19 16, 17:03";
shapes = (
{
closed = 1;
nodes = (
(139,0,ls),
(153,0,o),
(162,9,o),
(162,22,cs),
(162,325,l),
(548,325,l),
(548,22,ls),
(548,9,o),
(557,0,o),
(570,0,cs),
(588,0,ls),
(602,0,o),
(611,9,o),
(611,22,cs),
(611,511,l),
(668,511,ls),
(682,511,o),
(691,520,o),
(691,533,cs),
(691,548,ls),
(691,562,o),
(682,571,o),
(668,571,cs),
(611,571,l),
(611,677,ls),
(611,691,o),
(602,700,o),
(588,700,cs),
(570,700,ls),
(557,700,o),
(548,691,o),
(548,677,cs),
(548,571,l),
(162,571,l),
(162,677,ls),
(162,691,o),
(153,700,o),
(139,700,cs),
(121,700,ls),
(108,700,o),
(99,691,o),
(99,677,cs),
(99,571,l),
(41,571,ls),
(28,571,o),
(19,562,o),
(19,548,cs),
(19,533,ls),
(19,520,o),
(28,511,o),
(41,511,cs),
(99,511,l),
(99,22,ls),
(99,9,o),
(108,0,o),
(121,0,cs)
);
},
{
closed = 1;
nodes = (
(162,511,l),
(548,511,l),
(548,385,l),
(162,385,l)
);
}
);
width = 700;
},
{
associatedMasterId = "EC64484B-0978-4CB1-9EE9-C40A2D8C4059";
color = 6;
hints = (
{
horizontal = 1;
place = (0, 0);
type = Tag;
}
);
layerId = "FF0B9B16-2378-4A37-8098-43DBF73F83A5";
name = "Bold Jan 19 16, 17:03";
shapes = (
{
closed = 1;
nodes = (
(278,0,ls),
(293,0,o),
(305,12,o),
(305,27,cs),
(305,243,l),
(467,243,l),
(467,27,ls),
(467,12,o),
(479,0,o),
(494,0,cs),
(690,0,ls),
(705,0,o),
(717,12,o),
(717,27,cs),
(717,673,ls),
(717,688,o),
(705,700,o),
(690,700,cs),
(494,700,l),
(479,700,o),
(467,688,o),
(467,673,cs),
(467,644,l),
(305,644,l),
(305,673,ls),
(305,688,o),
(293,700,o),
(278,700,cs),
(82,700,ls),
(67,700,o),
(55,688,o),
(55,673,cs),
(55,27,ls),
(55,11,o),
(67,0,o),
(82,0,cs)
);
},
{
closed = 1;
nodes = (
(305,519,l),
(467,519,l),
(467,463,l),
(305,463,l)
);
}
);
width = 772;
}
);
unicode = 294;
},
{
color = 6;
glyphname = I;
kernLeft = I;
kernRight = I;
layers = (
{
anchors = (
{
name = bottom;
pos = (126,0);
},
{
name = ogonek;
pos = (157,57);
},
{
name = top;
pos = (126,700);
},
{
name = topleft;
pos = (20,700);
}
);
layerId = "581BC726-83A6-4935-8633-5A6508251040";
shapes = (
{
closed = 1;
nodes = (
(135,0,ls),
(148,0,o),
(157,9,o),
(157,22,cs),
(157,678,ls),
(157,691,o),
(148,700,o),
(135,700,cs),
(116,700,ls),
(103,700,o),
(94,691,o),
(94,678,cs),
(94,22,ls),
(94,9,o),
(103,0,o),
(116,0,cs)
);
}
);
width = 251;
},
{
anchors = (
{
name = bottom;
pos = (184,0);
},
{
name = ogonek;
pos = (301,122);
},
{
name = top;
pos = (184,700);
},
{
name = topleft;
pos = (20,700);
}
);
color = 6;
layerId = "EC64484B-0978-4CB1-9EE9-C40A2D8C4059";
shapes = (
{
closed = 1;
nodes = (
(286,0,ls),
(301,0,o),
(313,12,o),
(313,27,cs),
(313,673,ls),
(313,688,o),
(301,700,o),
(286,700,cs),
(82,700,ls),
(67,700,o),
(55,688,o),
(55,673,cs),
(55,27,ls),
(55,12,o),
(67,0,o),
(82,0,cs)
);
}
);
width = 368;
}
);
unicode = 73;
userData = {
com.typemytype.robofont.guides = (
{
angle = 90;
isGlobal = 0;
magnetic = 5;
x = 85;
y = 0;
},
{
angle = 90;
isGlobal = 0;
magnetic = 5;
x = 148;
y = 0;
}
);
};
},
{
color = 6;
glyphname = IJ;
kernLeft = I;
layers = (
{
layerId = "581BC726-83A6-4935-8633-5A6508251040";
shapes = (
{
closed = 1;
nodes = (
(416,-10,o),
(501,99,o),
(501,255,c),
(501,677,l),
(501,691,o),
(492,700,o),
(478,700,c),
(460,700,l),
(447,700,o),
(438,691,o),
(438,678,c),
(438,256,l),
(438,135,o),
(376,50,o),
(259,50,cs),
(246,50,o),
(237,41,o),
(237,27,c),
(237,12,l),
(237,-1,o),
(246,-10,o),
(259,-10,cs)
);
},
{
closed = 1;
nodes = (
(135,0,l),
(148,0,o),
(157,9,o),
(157,22,c),
(157,678,l),
(157,691,o),
(148,700,o),
(135,700,c),
(116,700,l),
(103,700,o),
(94,691,o),
(94,678,c),
(94,22,l),
(94,9,o),
(103,0,o),
(116,0,c)
);
}
);
width = 589;
},
{
color = 6;
hints = (
{
horizontal = 1;
place = (0, 0);
type = Tag;
}
);
layerId = "EC64484B-0978-4CB1-9EE9-C40A2D8C4059";
shapes = (
{
closed = 1;
nodes = (
(628,-10,o),
(758,45,o),
(758,258,cs),
(758,673,ls),
(758,688,o),
(746,700,o),
(731,700,cs),
(526,700,ls),
(511,700,o),
(499,688,o),
(499,673,c),
(499,298,ls),
(499,227,o),
(476,205,o),
(420,205,cs),
(405,205,o),
(393,193,o),
(393,178,cs),
(393,17,ls),
(393,2,o),
(405,-10,o),
(420,-10,cs)
);
},
{
closed = 1;
nodes = (
(286,0,ls),
(301,0,o),
(313,12,o),
(313,27,cs),
(313,673,ls),
(313,688,o),
(301,700,o),
(286,700,cs),
(82,700,ls),
(67,700,o),
(55,688,o),
(55,673,cs),
(55,27,ls),
(55,12,o),
(67,0,o),
(82,0,cs)
);
}
);
width = 807;
}
);
unicode = 306;
userData = {
com.typemytype.robofont.guides = (
{
angle = 90;
isGlobal = 0;
magnetic = 5;
x = 642;
y = 0;
}
);
};
},
{
color = 6;
glyphname = Iogonek;
kernLeft = I;
kernRight = I;
layers = (
{
layerId = "581BC726-83A6-4935-8633-5A6508251040";
shapes = (
{
closed = 1;
nodes = (
(153,-220,ls),
(166,-220,o),
(175,-211,o),
(175,-198,cs),
(175,-185,ls),
(175,-172,o),
(166,-163,o),
(153,-163,cs),
(138,-163,ls),
(94,-163,o),
(62,-133,o),
(62,-82,cs),
(62,-31,o),
(94,0,o),
(138,0,cs),
(153,0,ls),
(166,0,o),
(175,9,o),
(175,22,cs),
(175,678,ls),
(175,691,o),
(166,700,o),
(153,700,cs),
(134,700,ls),
(121,700,o),
(112,691,o),
(112,678,cs),
(112,74,l),
(112,71,o),
(112,67,o),
(112,64,c),
(112,55,l),
(44,46,o),
(2,-5,o),
(2,-82,cs),
(2,-167,o),
(53,-220,o),
(134,-220,cs)
);
}
);
width = 269;
},
{
color = 6;
hints = (
{
horizontal = 1;
place = (0, 0);
type = Tag;
}
);
layerId = "EC64484B-0978-4CB1-9EE9-C40A2D8C4059";
shapes = (
{
closed = 1;
nodes = (
(286,-222,ls),
(301,-222,o),
(313,-210,o),
(313,-195,cs),
(313,-127,ls),
(313,-112,o),
(301,-100,o),
(286,-100,cs),
(276,-100,l),
(237,-100,o),
(226,-71,o),
(226,-50,cs),
(226,-29,o),
(237,0,o),
(276,0,cs),
(286,0,ls),
(301,0,o),
(313,12,o),
(313,27,cs),
(313,673,ls),
(313,688,o),
(301,700,o),
(286,700,cs),
(82,700,ls),
(67,700,o),
(55,688,o),
(55,673,cs),
(55,27,ls),
(55,12,o),
(67,0,o),
(82,0,cs),
(105,0,l),
(102,-16,o),
(100,-32,o),
(100,-50,cs),
(100,-145,o),
(151,-222,o),
(272,-222,cs)
);
}
);
width = 368;
}
);
unicode = 302;
userData = {
com.typemytype.robofont.guides = (
{
angle = 90;
isGlobal = 0;
magnetic = 5;
x = 110;
y = 0;
}
);
};
},
{
color = 6;
glyphname = J;
kernLeft = J;
kernRight = U;
layers = (
{
anchors = (
{
name = bottom;
pos = (309,0);
},
{
name = top;
pos = (303,700);
}
);
layerId = "581BC726-83A6-4935-8633-5A6508251040";
shapes = (
{
closed = 1;
nodes = (
(445,-10,o),
(530,99,o),
(530,255,c),
(530,677,ls),
(530,691,o),
(521,700,o),
(507,700,cs),
(98,700,ls),
(85,700,o),
(76,691,o),
(76,678,cs),
(76,662,ls),
(76,649,o),
(85,640,o),
(98,640,cs),
(467,640,l),
(467,256,ls),
(467,135,o),
(405,50,o),
(288,50,cs),
(196,50,o),
(116,91,o),
(108,195,cs),
(107,207,o),
(99,216,o),
(86,216,cs),
(66,216,ls),
(52,216,o),
(45,206,o),
(45,194,cs),
(50,52,o),
(158,-10,o),
(288,-10,cs)
);
}
);
width = 618;
},
{
anchors = (
{
name = bottom;
pos = (351,0);
},
{
name = top;
pos = (371,700);
}
);
color = 6;
hints = (
{
horizontal = 1;
place = (0, 0);
type = Tag;
}
);
layerId = "EC64484B-0978-4CB1-9EE9-C40A2D8C4059";
shapes = (
{
closed = 1;
nodes = (
(509,-10,o),
(653,73,o),
(653,258,cs),
(653,673,ls),
(653,688,o),
(641,700,o),
(626,700,cs),
(97,700,ls),
(82,700,o),
(70,688,o),
(70,673,cs),
(70,524,ls),
(70,509,o),
(82,497,o),
(97,497,cs),
(394,497,l),
(394,266,ls),
(394,205,o),
(371,185,o),
(335,185,cs),
(302,185,o),
(290,198,o),
(277,225,cs),
(267,247,o),
(258,257,o),
(236,257,cs),
(32,257,ls),
(20,257,o),
(10,247,o),
(10,235,cs),
(13,78,o),
(162,-10,o),
(327,-10,cs)
);
}
);
width = 702;
}
);
unicode = 74;
userData = {
com.typemytype.robofont.guides = (
{
angle = 0;
isGlobal = 0;
magnetic = 5;
x = 0;
y = "-10";
},
{
angle = 0;
isGlobal = 0;
magnetic = 5;
x = 0;
y = 133;
},
{
angle = 0;
isGlobal = 0;
magnetic = 5;
x = 0;
y = 677;
},
{
angle = 90;
isGlobal = 0;
magnetic = 5;
x = 303;
y = 0;
},
{
angle = 90;
isGlobal = 0;
magnetic = 5;
x = 60;
y = 0;
},
{
angle = 90;
isGlobal = 0;
magnetic = 5;
x = 91;
y = 0;
}
);
};
},
{
color = 6;
glyphname = K;
kernLeft = I;
kernRight = K;
layers = (
{
anchors = (
{
name = bottom;
pos = (304,0);
},
{
name = top;
pos = (288,700);
}
);
layerId = "581BC726-83A6-4935-8633-5A6508251040";
shapes = (
{
closed = 1;
nodes = (
(134,0,ls),
(148,0,o),
(157,9,o),
(157,22,cs),
(157,311,l),
(481,15,ls),
(486,11,o),
(498,0,o),
(519,0,cs),
(536,0,ls),
(547,0,o),
(556,9,o),
(556,20,cs),
(556,24,o),
(555,29,o),
(550,34,cs),
(190,365,l),
(529,667,ls),
(533,671,o),
(534,676,o),
(534,680,cs),
(534,691,o),
(525,700,o),
(514,700,cs),
(498,700,ls),
(477,700,o),
(465,689,o),
(460,685,cs),
(157,417,l),
(157,677,ls),
(157,691,o),
(148,700,o),
(134,700,cs),
(116,700,ls),
(103,700,o),
(94,691,o),
(94,677,cs),
(94,22,ls),
(94,9,o),
(103,0,o),
(116,0,cs)
);
}
);
width = 575;
},
{
anchors = (
{
name = bottom;
pos = (358,0);
},
{
name = top;
pos = (358,700);
}
);
color = 6;
layerId = "EC64484B-0978-4CB1-9EE9-C40A2D8C4059";
shapes = (
{
closed = 1;
nodes = (
(273,0,ls),
(288,0,o),
(300,12,o),
(300,27,cs),
(300,241,l),
(422,23,ls),
(425,17,o),
(436,0,o),
(463,0,cs),
(691,0,ls),
(703,0,o),
(713,10,o),
(713,22,cs),
(713,25,o),
(712,30,o),
(710,33,cs),
(513,365,l),
(693,667,ls),
(695,670,o),
(696,674,o),
(696,678,cs),
(696,690,o),
(686,700,o),
(674,700,cs),
(453,700,ls),
(431,700,o),
(419,689,o),
(413,678,cs),
(300,475,l),
(300,673,ls),
(300,688,o),
(288,700,o),
(273,700,cs),
(82,700,ls),
(67,700,o),
(55,688,o),
(55,673,cs),
(55,27,ls),
(55,12,o),
(67,0,o),
(82,0,cs)
);
}
);
width = 715;
}
);
unicode = 75;
userData = {
com.typemytype.robofont.guides = (
{
angle = 0;
isGlobal = 0;
magnetic = 5;
x = 0;
y = 365;
},
{
angle = 90;
isGlobal = 0;
magnetic = 5;
x = 547;
y = 0;
},
{
angle = 90;
isGlobal = 0;
magnetic = 5;
x = 94;
y = 0;
},
{
angle = 90;
isGlobal = 0;
magnetic = 5;
x = 139;
y = 0;
}
);
};
},
{
color = 6;
glyphname = L;
kernLeft = I;
kernRight = L;
layers = (
{
anchors = (
{
name = bottom;
pos = (307,0);
},
{
name = center;
pos = (274,350);
},
{
name = top;
pos = (124,700);
},
{
name = topright;
pos = (325,690);
}
);
layerId = "581BC726-83A6-4935-8633-5A6508251040";
shapes = (
{
closed = 1;
nodes = (
(502,0,l),
(516,0,o),
(525,9,o),
(525,22,c),
(525,37,l),
(525,51,o),
(516,60,o),
(502,60,c),
(157,60,l),
(157,678,l),
(157,691,o),
(148,700,o),
(135,700,c),
(116,700,l),
(103,700,o),
(94,691,o),
(94,678,c),
(94,22,l),
(94,9,o),
(103,0,o),
(116,0,c)
);
}
);
width = 548;
},
{
anchors = (
{
name = bottom;
pos = (313,0);
},
{
name = center;
pos = (313,350);
},
{
name = top;
pos = (173,700);
},
{
name = topright;
pos = (486,649);
}
);
color = 6;
layerId = "EC64484B-0978-4CB1-9EE9-C40A2D8C4059";
shapes = (
{
closed = 1;
nodes = (
(586,0,ls),
(601,0,o),
(613,12,o),
(613,27,cs),
(613,178,ls),
(613,193,o),
(601,205,o),
(586,205,cs),
(309,205,l),
(309,673,ls),
(309,688,o),
(297,700,o),
(282,700,cs),
(82,700,ls),
(67,700,o),
(55,688,o),
(55,673,cs),
(55,27,ls),
(55,12,o),
(67,0,o),
(82,0,cs)
);
}
);
width = 626;
}
);
unicode = 76;
},
{
color = 6;
glyphname = Lslash;
kernLeft = I;
kernRight = L;
layers = (
{
layerId = "581BC726-83A6-4935-8633-5A6508251040";
shapes = (
{
closed = 1;
nodes = (
(511,0,ls),
(524,0,o),
(533,9,o),
(533,22,cs),
(533,38,ls),
(533,51,o),
(524,60,o),
(511,60,cs),
(165,60,l),
(165,317,l),
(320,377,ls),
(336,383,o),
(342,387,o),
(342,402,cs),
(342,421,ls),
(342,433,o),
(334,439,o),
(323,439,cs),
(319,439,o),
(315,438,o),
(310,436,cs),
(165,380,l),
(165,678,ls),
(165,691,o),
(156,700,o),
(143,700,cs),
(124,700,ls),
(111,700,o),
(102,691,o),
(102,678,cs),
(102,355,l),
(34,329,ls),
(18,323,o),
(12,319,o),
(12,304,cs),
(12,285,ls),
(12,273,o),
(20,267,o),
(31,267,cs),
(35,267,o),
(39,268,o),
(44,270,cs),
(102,292,l),
(102,22,ls),
(102,9,o),
(111,0,o),
(124,0,cs)
);
}
);
width = 556;
},
{
color = 6;
hints = (
{
horizontal = 1;
place = (0, 0);
type = Tag;
}
);
layerId = "EC64484B-0978-4CB1-9EE9-C40A2D8C4059";
shapes = (
{
closed = 1;
nodes = (
(594,0,ls),
(609,0,o),
(621,12,o),
(621,27,cs),
(621,178,ls),
(621,193,o),
(609,205,o),
(594,205,cs),
(317,205,l),
(317,325,l),
(472,386,ls),
(488,392,o),
(494,401,o),
(494,419,cs),
(494,527,ls),
(494,539,o),
(485,548,o),
(473,548,cs),
(471,548,o),
(467,547,o),
(462,545,cs),
(317,488,l),
(317,673,ls),
(317,688,o),
(305,700,o),
(290,700,cs),
(90,700,ls),
(75,700,o),
(63,688,o),
(63,673,cs),
(63,388,l),
(35,377,ls),
(19,371,o),
(13,362,o),
(13,344,cs),
(13,236,ls),
(13,224,o),
(22,215,o),
(34,215,cs),
(36,215,o),
(40,216,o),
(45,218,cs),
(63,225,l),
(63,27,ls),
(63,12,o),
(75,0,o),
(90,0,cs)
);
}
);
width = 634;
}
);
unicode = 321;
userData = {
com.typemytype.robofont.guides = (
{
angle = 0;
isGlobal = 0;
magnetic = 5;
x = 0;
y = 215;
},
{
angle = 0;
isGlobal = 0;
magnetic = 5;
x = 0;
y = 548;
},
{
angle = 0;
isGlobal = 0;
magnetic = 5;
x = 0;
y = 438;
},
{
angle = 0;
isGlobal = 0;
magnetic = 5;
x = 0;
y = 267;
},
{
angle = 0;
isGlobal = 0;
magnetic = 5;
x = 0;
y = 353;
},
{
angle = 90;
isGlobal = 0;
magnetic = 5;
x = 129;
y = 0;
},
{
angle = 90;
isGlobal = 0;
magnetic = 5;
x = 325;
y = 0;
},
{
angle = 90;
isGlobal = 0;
magnetic = 5;
x = "-5";
y = 0;
}
);
};
},
{
color = 6;
glyphname = M;
kernLeft = I;
kernRight = I;
layers = (
{
anchors = (
{
name = bottom;
pos = (390,0);
},
{
name = top;
pos = (390,700);
}
);
layerId = "581BC726-83A6-4935-8633-5A6508251040";
shapes = (
{
closed = 1;
nodes = (
(135,0,ls),
(148,0,o),
(157,9,o),
(157,22,cs),
(157,564,l),
(348,188,ls),
(354,175,o),
(363,168,o),
(379,168,cs),
(401,168,ls),
(417,168,o),
(426,175,o),
(432,188,cs),
(623,564,l),
(623,22,ls),
(623,9,o),
(632,0,o),
(645,0,cs),
(663,0,ls),
(677,0,o),
(686,9,o),
(686,22,cs),
(686,677,ls),
(686,691,o),
(677,700,o),
(663,700,cs),
(639,700,ls),
(626,700,o),
(620,691,o),
(618,687,cs),
(390,245,l),
(163,687,ls),
(161,691,o),
(155,700,o),
(142,700,cs),
(117,700,ls),
(103,700,o),
(94,691,o),
(94,677,cs),
(94,22,ls),
(94,9,o),
(103,0,o),
(117,0,cs)
);
}
);
width = 780;
},
{
anchors = (
{
name = bottom;
pos = (428,0);
},
{
name = top;
pos = (428,700);
}
);
color = 6;
hints = (
{
horizontal = 1;
place = (0, 0);
type = Tag;
}
);
layerId = "EC64484B-0978-4CB1-9EE9-C40A2D8C4059";
shapes = (
{
closed = 1;
nodes = (
(263,0,ls),
(278,0,o),
(290,12,o),
(290,27,cs),
(290,301,l),
(356,193,ls),
(363,182,o),
(373,168,o),
(393,168,cs),
(463,168,ls),
(483,168,o),
(493,182,o),
(500,193,cs),
(566,301,l),
(566,27,ls),
(566,12,o),
(578,0,o),
(593,0,cs),
(774,0,ls),
(789,0,o),
(801,12,o),
(801,27,cs),
(801,673,ls),
(801,688,o),
(789,700,o),
(774,700,cs),
(616,700,ls),
(589,700,o),
(577,680,o),
(573,673,cs),
(428,433,l),
(283,673,ls),
(279,680,o),
(267,700,o),
(240,700,cs),
(82,700,ls),
(67,700,o),
(55,688,o),
(55,673,cs),
(55,27,ls),
(55,12,o),
(67,0,o),
(82,0,cs)
);
}
);
width = 856;
}
);
unicode = 77;
userData = {
com.typemytype.robofont.guides = (
{
angle = 0;
isGlobal = 0;
magnetic = 5;
x = 0;
y = 168;
},
{
angle = 0;
isGlobal = 0;
magnetic = 5;
x = 0;
y = 9;
},
{
angle = 0;
isGlobal = 0;
magnetic = 5;
x = 0;
y = 691;
},
{
angle = 90;
isGlobal = 0;
magnetic = 5;
x = 126;
y = 0;
},
{
angle = 90;
isGlobal = 0;
magnetic = 5;
x = 636;
y = 0;
}
);
};
},
{
color = 6;
glyphname = N;
kernLeft = I;
kernRight = I;
layers = (
{
anchors = (
{
name = bottom;
pos = (345,0);
},
{
name = top;
pos = (342,700);
}
);
layerId = "581BC726-83A6-4935-8633-5A6508251040";
shapes = (
{
closed = 1;
nodes = (
(134,0,ls),
(148,0,o),
(157,9,o),
(157,22,cs),
(157,574,l),
(525,12,l),
(527,9,o),
(533,0,o),
(546,0,cs),
(568,0,ls),
(581,0,o),
(590,9,o),
(590,23,cs),
(590,677,ls),
(590,691,o),
(581,700,o),
(567,700,cs),
(549,700,ls),
(536,700,o),
(527,691,o),
(527,677,cs),
(527,124,l),
(158,688,ls),
(156,691,o),
(150,700,o),
(137,700,cs),
(116,700,ls),
(103,700,o),
(94,691,o),
(94,677,cs),
(94,22,ls),
(94,9,o),
(103,0,o),
(116,0,cs)
);
}
);
width = 684;
},
{
anchors = (
{
name = bottom;
pos = (374,0);
},
{
name = top;
pos = (370,700);
}
);
color = 6;
layerId = "EC64484B-0978-4CB1-9EE9-C40A2D8C4059";
shapes = (
{
closed = 1;
nodes = (
(263,0,ls),
(278,0,o),
(290,12,o),
(290,27,cs),
(290,278,l),
(459,23,ls),
(463,17,o),
(473,0,o),
(500,0,cs),
(658,0,ls),
(673,0,o),
(685,12,o),
(685,27,cs),
(685,673,ls),
(685,688,o),
(673,700,o),
(658,700,cs),
(477,700,ls),
(462,700,o),
(450,688,o),
(450,673,cs),
(450,400,l),
(281,677,ls),
(277,684,o),
(267,700,o),
(240,700,cs),
(82,700,ls),
(67,700,o),
(55,688,o),
(55,673,cs),
(55,27,ls),
(55,12,o),
(67,0,o),
(82,0,cs)
);
}
);
width = 740;
}
);
unicode = 78;
userData = {
com.typemytype.robofont.guides = (
{
angle = 0;
isGlobal = 0;
magnetic = 5;
x = 0;
y = 9;
},
{
angle = 0;
isGlobal = 0;
magnetic = 5;
x = 0;
y = 691;
},
{
angle = 90;
isGlobal = 0;
magnetic = 5;
x = 540;
y = 0;
},
{
angle = 90;
isGlobal = 0;
magnetic = 5;
x = 125;
y = 0;
}
);
};
},
{
color = 6;
glyphname = Eng;
kernLeft = I;
kernRight = I;
layers = (
{
layerId = "581BC726-83A6-4935-8633-5A6508251040";
shapes = (
{
closed = 1;
nodes = (
(439,-225,l),
(564,-225,o),
(590,-151,o),
(590,-57,c),
(590,677,l),
(590,691,o),
(581,700,o),
(567,700,c),
(549,700,l),
(536,700,o),
(527,691,o),
(527,677,c),
(527,124,l),
(158,688,l),
(156,691,o),
(150,700,o),
(137,700,c),
(116,700,l),
(103,700,o),
(94,691,o),
(94,677,c),
(94,22,l),
(94,9,o),
(103,0,o),
(116,0,c),
(134,0,l),
(148,0,o),
(157,9,o),
(157,22,c),
(157,574,l),
(527,8,l),
(527,-57,l),
(527,-118,o),
(515,-165,o),
(439,-165,c),
(435,-165,l),
(422,-165,o),
(413,-174,o),
(413,-187,c),
(413,-203,l),
(413,-216,o),
(422,-225,o),
(435,-225,c)
);
}
);
width = 684;
},
{
color = 6;
hints = (
{
horizontal = 1;
place = (0, 0);
type = Tag;
}
);
layerId = "EC64484B-0978-4CB1-9EE9-C40A2D8C4059";
shapes = (
{
closed = 1;
nodes = (
(359,-225,ls),
(541,-225,o),
(685,-145,o),
(685,26,cs),
(685,673,ls),
(685,688,o),
(673,700,o),
(658,700,cs),
(477,700,ls),
(462,700,o),
(450,688,o),
(450,673,cs),
(450,400,l),
(281,677,ls),
(277,684,o),
(267,700,o),
(240,700,cs),
(82,700,ls),
(67,700,o),
(55,688,o),
(55,673,cs),
(55,27,ls),
(55,12,o),
(67,0,o),
(82,0,cs),
(263,0,ls),
(278,0,o),
(290,12,o),
(290,27,cs),
(290,278,l),
(450,38,l),
(450,36,l),
(450,2,o),
(426,-22,o),
(383,-22,cs),
(343,-22,ls),
(328,-22,o),
(316,-34,o),
(316,-49,c),
(316,-198,ls),
(316,-213,o),
(328,-225,o),
(343,-225,cs)
);
}
);
width = 740;
}
);
unicode = 330;
},
{
color = 6;
glyphname = O;
kernLeft = O;
kernRight = O;
layers = (
{
anchors = (
{
name = bottom;
pos = (331,0);
},
{
name = center;
pos = (331,350);
},
{
name = ogonek;
pos = (596,10);
},
{
name = top;
pos = (331,700);
},
{
name = topleft;
pos = (20,700);
},
{
name = topright;
pos = (642,700);
}
);
layerId = "581BC726-83A6-4935-8633-5A6508251040";
shapes = (
{
closed = 1;
nodes = (
(497,-10,o),
(590,77,o),
(595,266,cs),
(597,326,o),
(597,374,o),
(595,434,cs),
(590,620,o),
(487,710,o),
(331,710,cs),
(175,710,o),
(72,620,o),
(67,434,cs),
(65,374,o),
(65,326,o),
(67,266,cs),
(72,77,o),
(165,-10,o),
(331,-10,cs)
);
},
{
closed = 1;
nodes = (
(217,50,o),
(135,115,o),
(130,271,cs),
(128,331,o),
(128,369,o),
(130,429,cs),
(135,585,o),
(218,650,o),
(331,650,cs),
(444,650,o),
(527,585,o),
(532,429,cs),
(534,369,o),
(534,331,o),
(532,271,cs),
(527,115,o),
(445,50,o),
(331,50,cs)
);
}
);
width = 662;
},
{
anchors = (
{
name = bottom;
pos = (371,0);
},
{
name = center;
pos = (371,350);
},
{
name = ogonek;
pos = (668,10);
},
{
name = top;
pos = (371,700);
},
{
name = topleft;
pos = (20,700);
},
{
name = topright;
pos = (722,700);
}
);
color = 6;
layerId = "EC64484B-0978-4CB1-9EE9-C40A2D8C4059";
shapes = (
{
closed = 1;
nodes = (
(567,-10,o),
(697,81,o),
(705,260,cs),
(707,314,o),
(707,379,o),
(705,436,cs),
(698,611,o),
(567,710,o),
(371,710,cs),
(175,710,o),
(44,611,o),
(37,436,cs),
(35,379,o),
(35,314,o),
(37,260,cs),
(45,81,o),
(175,-10,o),
(371,-10,cs)
);
},
{
closed = 1;
nodes = (
(327,185,o),
(299,210,o),
(297,266,cs),
(295,323,o),
(295,379,o),
(297,434,cs),
(299,490,o),
(328,515,o),
(371,515,cs),
(414,515,o),
(443,490,o),
(445,434,cs),
(447,379,o),
(447,323,o),
(445,266,cs),
(443,210,o),
(415,185,o),
(371,185,cs)
);
}
);
width = 742;
}
);
unicode = 79;
userData = {
com.typemytype.robofont.guides = (
{
angle = 0;
isGlobal = 0;
magnetic = 5;
x = 0;
y = "-10";
},
{
angle = 0;
isGlobal = 0;
magnetic = 5;
x = 0;
y = 710;
},
{
angle = 0;
isGlobal = 0;
magnetic = 5;
x = 0;
y = 335;
},
{
angle = 0;
isGlobal = 0;
magnetic = 5;
x = 0;
y = 434;
},
{
angle = 0;
isGlobal = 0;
magnetic = 5;
x = 0;
y = 266;
},
{
angle = 90;
isGlobal = 0;
magnetic = 5;
x = 496;
y = 0;
}
);
};
},
{
color = 6;
glyphname = OE;
kernLeft = O;
kernRight = E;
layers = (
{
anchors = (
{
name = bottom;
pos = (450,0);
},
{
name = top;
pos = (450,700);
}
);
layerId = "581BC726-83A6-4935-8633-5A6508251040";
shapes = (
{
closed = 1;
nodes = (
(823,0,l),
(837,0,o),
(846,9,o),
(846,22,c),
(846,37,l),
(846,51,o),
(837,60,o),
(823,60,c),
(506,60,l),
(506,325,l),
(793,325,l),
(807,325,o),
(816,334,o),
(816,347,c),
(816,362,l),
(816,376,o),
(807,385,o),
(793,385,c),
(506,385,l),
(506,640,l),
(815,640,l),
(829,640,o),
(838,649,o),
(838,662,c),
(838,677,l),
(838,691,o),
(829,700,o),
(815,700,c),
(348,700,l),
(136,700,o),
(73,604,o),
(70,430,cs),
(69,370,o),
(69,331,o),
(70,271,cs),
(74,87,o),
(137,0,o),
(343,0,c)
);
},
{
closed = 1;
nodes = (
(189,60,o),
(136,120,o),
(133,276,cs),
(132,336,o),
(132,365,o),
(133,425,cs),
(136,571,o),
(193,640,o),
(353,640,c),
(443,640,l),
(443,60,l),
(348,60,l)
);
}
);
width = 900;
},
{
anchors = (
{
name = bottom;
pos = (501,0);
},
{
name = top;
pos = (501,700);
}
);
color = 6;
hints = (
{
horizontal = 1;
place = (0, 0);
type = Tag;
}
);
layerId = "EC64484B-0978-4CB1-9EE9-C40A2D8C4059";
shapes = (
{
closed = 1;
nodes = (
(937,0,l),
(952,0,o),
(964,12,o),
(964,27,c),
(964,168,l),
(964,183,o),
(952,195,o),
(937,195,c),
(649,195,l),
(649,258,l),
(907,258,l),
(922,258,o),
(934,270,o),
(934,285,c),
(934,415,l),
(934,430,o),
(922,442,o),
(907,442,c),
(649,442,l),
(649,505,l),
(929,505,l),
(944,505,o),
(956,517,o),
(956,532,c),
(956,673,l),
(956,688,o),
(944,700,o),
(929,700,c),
(369,700,l),
(182,700,o),
(42,604,o),
(35,425,cs),
(33,368,o),
(33,330,o),
(35,276,cs),
(43,87,o),
(173,0,o),
(364,0,c)
);
},
{
closed = 1;
nodes = (
(325,195,o),
(292,220,o),
(289,276,cs),
(286,333,o),
(286,370,o),
(289,425,cs),
(292,481,o),
(329,505,o),
(374,505,c),
(410,505,l),
(410,195,l),
(369,195,l)
);
}
);
width = 1002;
}
);
unicode = 338;
userData = {
com.typemytype.robofont.guides = (
{
angle = 90;
isGlobal = 0;
magnetic = 5;
x = 842;
y = 0;
},
{
angle = 90;
isGlobal = 0;
magnetic = 5;
x = 66;
y = 0;
},
{
angle = 90;
isGlobal = 0;
magnetic = 5;
x = 439;
y = 0;
},
{
angle = 90;
isGlobal = 0;
magnetic = 5;
x = 502;
y = 0;
}
);
};
},
{
color = 6;
glyphname = P;
kernLeft = I;
layers = (
{
anchors = (
{
name = bottom;
pos = (314,0);
},
{
name = top;
pos = (314,700);
}
);
layerId = "581BC726-83A6-4935-8633-5A6508251040";
shapes = (
{
closed = 1;
nodes = (
(134,0,ls),
(148,0,o),
(157,9,o),
(157,22,cs),
(157,286,l),
(359,286,ls),
(499,286,o),
(589,357,o),
(589,493,cs),
(589,629,o),
(499,700,o),
(359,700,cs),
(116,700,ls),
(103,700,o),
(94,691,o),
(94,677,cs),
(94,22,ls),
(94,9,o),
(103,0,o),
(116,0,cs)
);
},
{
closed = 1;
nodes = (
(157,640,l),
(354,640,ls),
(470,640,o),
(526,588,o),
(526,493,cs),
(526,398,o),
(470,346,o),
(354,346,cs),
(157,346,l)
);
}
);
width = 628;
},
{
anchors = (
{
name = bottom;
pos = (353,0);
},
{
name = top;
pos = (353,700);
}
);
color = 6;
hints = (
{
horizontal = 1;
place = (0, 0);
type = Tag;
}
);
layerId = "EC64484B-0978-4CB1-9EE9-C40A2D8C4059";
shapes = (
{
closed = 1;
nodes = (
(288,0,ls),
(303,0,o),
(315,12,o),
(315,27,cs),
(315,218,l),
(385,218,ls),
(566,218,o),
(686,289,o),
(686,455,cs),
(686,621,o),
(566,700,o),
(385,700,cs),
(82,700,ls),
(67,700,o),
(55,688,o),
(55,673,cs),
(55,27,ls),
(55,12,o),
(67,0,o),
(82,0,cs)
);
},
{
closed = 1;
nodes = (
(310,514,l),
(380,514,ls),
(416,514,o),
(426,482,o),
(426,457,cs),
(426,418,o),
(401,403,o),
(380,403,cs),
(310,403,l)
);
}
);
width = 705;
}
);
unicode = 80;
userData = {
com.typemytype.robofont.guides = (
{
angle = 0;
isGlobal = 0;
magnetic = 5;
x = 0;
y = 493;
},
{
angle = 0;
isGlobal = 0;
magnetic = 5;
x = 0;
y = 403;
},
{
angle = 0;
isGlobal = 0;
magnetic = 5;
x = 0;
y = 218;
},
{
angle = 0;
isGlobal = 0;
magnetic = 5;
x = 0;
y = 310;
},
{
angle = 0;
isGlobal = 0;
magnetic = 5;
x = 0;
y = 9;
},
{
angle = 0;
isGlobal = 0;
magnetic = 5;
x = 0;
y = 691;
},
{
angle = 90;
isGlobal = 0;
magnetic = 5;
x = 345;
y = 0;
},
{
angle = 90;
isGlobal = 0;
magnetic = 5;
x = 94;
y = 0;
},
{
angle = 90;
isGlobal = 0;
magnetic = 5;
x = 139;
y = 0;
}
);
};
},
{
color = 6;
glyphname = Thorn;
kernLeft = I;
layers = (
{
anchors = (
{
name = bottom;
pos = (317,0);
},
{
name = top;
pos = (317,700);
}
);
layerId = "581BC726-83A6-4935-8633-5A6508251040";
shapes = (
{
closed = 1;
nodes = (
(134,0,l),
(148,0,o),
(157,9,o),
(157,22,c),
(157,143,l),
(359,143,l),
(499,143,o),
(589,214,o),
(589,350,cs),
(589,486,o),
(499,557,o),
(359,557,c),
(157,557,l),
(157,678,l),
(157,691,o),
(148,700,o),
(135,700,c),
(116,700,l),
(103,700,o),
(94,691,o),
(94,678,c),
(94,22,l),
(94,9,o),
(103,0,o),
(116,0,c)
);
},
{
closed = 1;
nodes = (
(157,497,l),
(354,497,l),
(470,497,o),
(526,445,o),
(526,350,cs),
(526,255,o),
(470,203,o),
(354,203,c),
(157,203,l)
);
}
);
width = 633;
},
{
anchors = (
{
name = bottom;
pos = (353,0);
},
{
name = top;
pos = (353,700);
}
);
color = 6;
hints = (
{
horizontal = 1;
place = (0, 0);
type = Tag;
}
);
layerId = "EC64484B-0978-4CB1-9EE9-C40A2D8C4059";
shapes = (
{
closed = 1;
nodes = (
(288,0,ls),
(303,0,o),
(315,12,o),
(315,27,cs),
(315,119,l),
(380,119,ls),
(566,119,o),
(686,190,o),
(686,356,cs),
(686,522,o),
(566,601,o),
(380,601,c),
(315,601,l),
(315,673,ls),
(315,688,o),
(303,700,o),
(288,700,cs),
(82,700,l),
(67,700,o),
(55,688,o),
(55,673,cs),
(55,27,ls),
(55,12,o),
(67,0,o),
(82,0,cs)
);
},
{
closed = 1;
nodes = (
(310,415,l),
(380,415,ls),
(416,415,o),
(426,383,o),
(426,358,cs),
(426,319,o),
(401,304,o),
(380,304,cs),
(310,304,l)
);
}
);
width = 705;
}
);
unicode = 222;
userData = {
com.typemytype.robofont.guides = (
{
angle = 0;
isGlobal = 0;
magnetic = 5;
x = 0;
y = 119;
},
{
angle = 0;
isGlobal = 0;
magnetic = 5;
x = 0;
y = 601;
},
{
angle = 0;
isGlobal = 0;
magnetic = 5;
x = 0;
y = 570;
},
{
angle = 0;
isGlobal = 0;
magnetic = 5;
x = 0;
y = 350;
}
);
};
},
{
color = 6;
glyphname = Q;
kernLeft = O;
kernRight = O;
layers = (
{
anchors = (
{
name = bottom;
pos = (331,0);
},
{
name = top;
pos = (331,700);
}
);
layerId = "581BC726-83A6-4935-8633-5A6508251040";
shapes = (
{
closed = 1;
nodes = (
(569,-65,l),
(580,-65,o),
(589,-56,o),
(589,-45,cs),
(589,-39,o),
(587,-36,o),
(586,-34,c),
(522,56,l),
(568,101,o),
(592,171,o),
(595,266,cs),
(597,326,o),
(597,374,o),
(595,434,cs),
(590,620,o),
(487,710,o),
(331,710,cs),
(175,710,o),
(72,620,o),
(67,434,cs),
(65,374,o),
(65,326,o),
(67,266,cs),
(72,77,o),
(165,-10,o),
(331,-10,cs),
(386,-10,o),
(432,0,o),
(471,19,c),
(515,-42,l),
(521,-50,o),
(532,-65,o),
(547,-65,c)
);
},
{
closed = 1;
nodes = (
(217,50,o),
(135,115,o),
(130,271,cs),
(128,331,o),
(128,369,o),
(130,429,cs),
(135,585,o),
(218,650,o),
(331,650,cs),
(444,650,o),
(527,585,o),
(532,429,cs),
(534,369,o),
(534,331,o),
(532,271,cs),
(527,115,o),
(445,50,o),
(331,50,cs)
);
}
);
width = 662;
},
{
anchors = (
{
name = bottom;
pos = (371,0);
},
{
name = top;
pos = (371,700);
}
);
color = 6;
hints = (
{
horizontal = 1;
place = (0, 0);
type = Tag;
}
);
layerId = "EC64484B-0978-4CB1-9EE9-C40A2D8C4059";
shapes = (
{
closed = 1;
nodes = (
(694,-65,l),
(706,-65,o),
(716,-55,o),
(714,-43,cs),
(714,-40,o),
(712,-36,o),
(711,-34,c),
(632,79,l),
(675,123,o),
(700,184,o),
(704,260,cs),
(706,314,o),
(706,379,o),
(704,436,cs),
(697,611,o),
(566,710,o),
(370,710,cs),
(174,710,o),
(43,611,o),
(36,436,cs),
(34,379,o),
(34,314,o),
(36,260,cs),
(44,81,o),
(174,-10,o),
(370,-10,cs),
(390,-10,o),
(410,-9,o),
(428,-7,c),
(456,-42,l),
(462,-50,o),
(473,-65,o),
(498,-65,c)
);
},
{
closed = 1;
nodes = (
(326,185,o),
(298,210,o),
(296,266,cs),
(294,323,o),
(294,379,o),
(296,434,cs),
(298,490,o),
(327,515,o),
(370,515,cs),
(413,515,o),
(442,490,o),
(444,434,cs),
(446,379,o),
(446,323,o),
(444,266,cs),
(442,210,o),
(414,185,o),
(370,185,cs)
);
}
);
width = 742;
}
);
unicode = 81;
userData = {
com.typemytype.robofont.guides = (
{
angle = 0;
isGlobal = 0;
magnetic = 5;
x = 0;
y = 710;
},
{
angle = 0;
isGlobal = 0;
magnetic = 5;
x = 0;
y = "-10";
},
{
angle = 0;
isGlobal = 0;
magnetic = 5;
x = 0;
y = "-56";
},
{
angle = 90;
isGlobal = 0;
magnetic = 5;
x = 82;
y = 0;
},
{
angle = 90;
isGlobal = 0;
magnetic = 5;
x = 750;
y = 0;
},
{
angle = 90;
isGlobal = 0;
magnetic = 5;
x = 580;
y = 0;
}
);
};
},
{
color = 6;
glyphname = R;
kernLeft = I;
kernRight = R;
layers = (
{
anchors = (
{
name = bottom;
pos = (324,0);
},
{
name = top;
pos = (299,700);
}
);
layerId = "581BC726-83A6-4935-8633-5A6508251040";
shapes = (
{
closed = 1;
nodes = (
(134,0,ls),
(148,0,o),
(157,9,o),
(157,22,cs),
(157,296,l),
(363,296,l),
(522,27,ls),
(530,13,o),
(538,0,o),
(560,0,cs),
(572,0,ls),
(583,0,o),
(592,9,o),
(592,20,cs),
(592,24,o),
(591,27,o),
(589,31,cs),
(428,305,l),
(523,327,o),
(579,391,o),
(579,498,cs),
(579,634,o),
(489,700,o),
(349,700,cs),
(116,700,ls),
(103,700,o),
(94,691,o),
(94,677,cs),
(94,22,ls),
(94,9,o),
(103,0,o),
(116,0,cs)
);
},
{
closed = 1;
nodes = (
(157,640,l),
(344,640,ls),
(460,640,o),
(516,593,o),
(516,498,cs),
(516,403,o),
(460,356,o),
(344,356,cs),
(157,356,l)
);
}
);
width = 640;
},
{
anchors = (
{
name = bottom;
pos = (369,0);
},
{
name = top;
pos = (341,700);
}
);
color = 6;
layerId = "EC64484B-0978-4CB1-9EE9-C40A2D8C4059";
shapes = (
{
closed = 1;
nodes = (
(278,0,ls),
(293,0,o),
(305,12,o),
(305,27,cs),
(305,218,l),
(346,218,l),
(432,27,ls),
(436,18,o),
(448,0,o),
(475,0,cs),
(680,0,ls),
(692,0,o),
(702,10,o),
(702,22,cs),
(702,27,o),
(701,29,o),
(699,33,cs),
(576,261,l),
(639,301,o),
(684,367,o),
(684,457,cs),
(684,608,o),
(570,700,o),
(378,700,cs),
(82,700,ls),
(67,700,o),
(55,688,o),
(55,673,cs),
(55,27,ls),
(55,12,o),
(67,0,o),
(82,0,cs)
);
},
{
closed = 1;
nodes = (
(305,514,l),
(378,514,ls),
(411,514,o),
(424,485,o),
(424,459,cs),
(424,432,o),
(409,408,o),
(378,408,cs),
(305,408,l)
);
}
);
width = 722;
}
);
unicode = 82;
userData = {
com.typemytype.robofont.guides = (
{
angle = 0;
isGlobal = 0;
magnetic = 5;
x = 0;
y = 691;
},
{
angle = 0;
isGlobal = 0;
magnetic = 5;
x = 0;
y = 9;
},
{
angle = 90;
isGlobal = 0;
magnetic = 5;
x = 616;
y = 0;
},
{
angle = 90;
isGlobal = 0;
magnetic = 5;
x = 574;
y = 0;
},
{
angle = 90;
isGlobal = 0;
magnetic = 5;
x = 94;
y = 0;
},
{
angle = 90;
isGlobal = 0;
magnetic = 5;
x = 139;
y = 0;
}
);
};
},
{
color = 6;
glyphname = S;
kernLeft = S;
kernRight = S;
layers = (
{
anchors = (
{
name = bottom;
pos = (305,0);
},
{
name = top;
pos = (303,700);
}
);
layerId = "581BC726-83A6-4935-8633-5A6508251040";
shapes = (
{
closed = 1;
nodes = (
(459,-10,o),
(555,60,o),
(555,181,cs),
(555,291,o),
(484,329,o),
(334,377,cs),
(191,423,o),
(131,450,o),
(131,530,cs),
(131,612,o),
(200,650,o),
(299,650,cs),
(397,650,o),
(464,601,o),
(472,535,cs),
(474,519,o),
(487,515,o),
(494,515,cs),
(514,515,ls),
(528,515,o),
(535,525,o),
(535,535,cs),
(532,612,o),
(457,710,o),
(299,710,cs),
(151,710,o),
(68,631,o),
(68,530,cs),
(68,420,o),
(131,379,o),
(274,333,cs),
(423,285,o),
(492,260,o),
(492,181,cs),
(492,101,o),
(434,50,o),
(304,50,cs),
(174,50,o),
(119,114,o),
(111,170,cs),
(109,181,o),
(102,190,o),
(89,190,cs),
(69,190,ls),
(57,190,o),
(48,181,o),
(48,170,cs),
(51,79,o),
(142,-10,o),
(304,-10,cs)
);
}
);
width = 605;
},
{
anchors = (
{
name = bottom;
pos = (349,0);
},
{
name = top;
pos = (349,700);
}
);
color = 6;
layerId = "EC64484B-0978-4CB1-9EE9-C40A2D8C4059";
shapes = (
{
closed = 1;
nodes = (
(536,-10,o),
(679,80,o),
(679,226,cs),
(679,356,o),
(603,419,o),
(403,444,cs),
(313,455,o),
(292,468,o),
(292,487,cs),
(292,504,o),
(306,515,o),
(340,515,cs),
(368,515,o),
(386,503,o),
(393,497,cs),
(405,486,o),
(414,481,o),
(433,481,cs),
(633,481,ls),
(644,481,o),
(654,491,o),
(654,503,cs),
(651,590,o),
(540,710,o),
(340,710,cs),
(158,710,o),
(35,616,o),
(35,480,cs),
(35,347,o),
(135,281,o),
(293,260,cs),
(392,247,o),
(422,237,o),
(422,213,cs),
(422,195,o),
(392,185,o),
(347,185,cs),
(314,185,o),
(292,193,o),
(273,208,cs),
(259,219,o),
(251,225,o),
(230,225,cs),
(40,225,ls),
(28,225,o),
(18,215,o),
(18,203,cs),
(21,92,o),
(126,-10,o),
(347,-10,cs)
);
}
);
width = 697;
}
);
unicode = 83;
userData = {
com.typemytype.robofont.guides = (
{
angle = 0;
isGlobal = 0;
magnetic = 5;
x = 0;
y = 355;
},
{
angle = 90;
isGlobal = 0;
magnetic = 5;
x = 306;
y = 0;
}
);
};
},
{
color = 6;
glyphname = Scedilla;
kernLeft = S;
kernRight = S;
layers = (
{
layerId = "581BC726-83A6-4935-8633-5A6508251040";
shapes = (
{
closed = 1;
nodes = (
(364,-221,o),
(395,-180,o),
(395,-132,cs),
(395,-84,o),
(363,-50,o),
(319,-50,cs),
(304,-50,o),
(289,-53,o),
(281,-58,c),
(304,-10,l),
(459,-10,o),
(555,60,o),
(555,181,cs),
(555,291,o),
(484,329,o),
(334,377,cs),
(191,423,o),
(131,450,o),
(131,530,cs),
(131,612,o),
(200,650,o),
(299,650,cs),
(397,650,o),
(464,601,o),
(472,535,cs),
(474,519,o),
(487,515,o),
(494,515,c),
(514,515,l),
(528,515,o),
(535,525,o),
(535,535,cs),
(532,612,o),
(457,710,o),
(299,710,cs),
(151,710,o),
(68,631,o),
(68,530,cs),
(68,420,o),
(131,379,o),
(274,333,cs),
(423,285,o),
(492,260,o),
(492,181,cs),
(492,101,o),
(434,50,o),
(304,50,cs),
(174,50,o),
(119,114,o),
(111,170,cs),
(109,181,o),
(102,190,o),
(89,190,c),
(69,190,l),
(57,190,o),
(48,181,o),
(48,170,cs),
(50,89,o),
(122,10,o),
(250,-6,c),
(230,-53,l),
(226,-63,o),
(218,-75,o),
(225,-83,c),
(241,-100,l),
(256,-116,o),
(269,-96,o),
(301,-96,cs),
(324,-96,o),
(344,-110,o),
(344,-134,cs),
(344,-159,o),
(324,-174,o),
(301,-174,cs),
(257,-174,o),
(250,-140,o),
(233,-156,c),
(219,-169,l),
(203,-184,o),
(244,-219,o),
(301,-220,cs)
);
}
);
width = 605;
},
{
color = 6;
hints = (
{
horizontal = 1;
place = (0, 0);
type = Tag;
}
);
layerId = "EC64484B-0978-4CB1-9EE9-C40A2D8C4059";
shapes = (
{
closed = 1;
nodes = (
(405,-220,o),
(444,-183,o),
(444,-130,cs),
(444,-77,o),
(414,-40,o),
(363,-40,cs),
(359,-40,o),
(341,-42,o),
(333,-45,c),
(351,-10,l),
(538,-8,o),
(679,81,o),
(679,226,cs),
(679,356,o),
(603,419,o),
(403,444,cs),
(313,455,o),
(292,468,o),
(292,487,cs),
(292,504,o),
(306,515,o),
(340,515,cs),
(368,515,o),
(386,503,o),
(393,497,cs),
(405,486,o),
(414,481,o),
(433,481,c),
(633,481,l),
(644,481,o),
(654,491,o),
(654,503,cs),
(651,590,o),
(540,710,o),
(340,710,cs),
(158,710,o),
(35,616,o),
(35,480,cs),
(35,347,o),
(135,281,o),
(293,260,cs),
(392,247,o),
(422,237,o),
(422,213,cs),
(422,195,o),
(392,185,o),
(347,185,cs),
(314,185,o),
(292,193,o),
(273,208,cs),
(259,219,o),
(251,225,o),
(230,225,c),
(40,225,l),
(28,225,o),
(18,215,o),
(18,203,cs),
(20,102,o),
(107,9,o),
(288,-7,c),
(268,-52,l),
(259,-71,o),
(261,-76,o),
(270,-85,c),
(291,-106,l),
(304,-119,o),
(327,-106,o),
(345,-106,cs),
(365,-106,o),
(373,-118,o),
(373,-130,cs),
(373,-142,o),
(364,-154,o),
(345,-154,cs),
(311,-154,o),
(306,-136,o),
(289,-151,c),
(268,-169,l),
(245,-189,o),
(292,-220,o),
(345,-220,cs)
);
}
);
width = 697;
}
);
unicode = 350;
userData = {
com.typemytype.robofont.guides = (
{
angle = 90;
isGlobal = 0;
magnetic = 5;
x = 306;
y = 0;
}
);
};
},
{
color = 6;
glyphname = Germandbls;
layers = (
{
anchors = (
{
name = bottom;
pos = (286,0);
}
);
layerId = "581BC726-83A6-4935-8633-5A6508251040";
shapes = (
{
closed = 1;
nodes = (
(123,0,ls),
(136,0,o),
(145,9,o),
(145,22,cs),
(145,457,ls),
(145,598,o),
(216,652,o),
(332,652,cs),
(412,652,o),
(477,617,o),
(477,586,cs),
(477,574,o),
(469,564,o),
(456,551,cs),
(294,389,ls),
(281,376,o),
(279,372,o),
(279,361,cs),
(279,350,ls),
(279,337,o),
(288,328,o),
(301,328,cs),
(346,328,ls),
(461,328,o),
(519,285,o),
(519,201,cs),
(519,106,o),
(460,58,o),
(342,58,cs),
(227,58,ls),
(214,58,o),
(205,49,o),
(205,36,cs),
(205,22,ls),
(205,9,o),
(214,0,o),
(227,0,cs),
(352,0,ls),
(492,0,o),
(580,77,o),
(580,201,cs),
(580,318,o),
(490,386,o),
(336,386,c),
(334,346,l),
(510,523,ls),
(529,542,o),
(542,557,o),
(542,588,cs),
(542,652,o),
(449,710,o),
(337,710,cs),
(181,710,o),
(84,634,o),
(84,462,cs),
(84,22,ls),
(84,9,o),
(93,0,o),
(106,0,cs)
);
}
);
width = 598;
},
{
anchors = (
{
name = bottom;
pos = (341,0);
}
);
hints = (
{
horizontal = 1;
place = (0, 0);
type = Tag;
}
);
layerId = "EC64484B-0978-4CB1-9EE9-C40A2D8C4059";
shapes = (
{
closed = 1;
nodes = (
(250,0,ls),
(265,0,o),
(277,12,o),
(277,27,c),
(277,459,ls),
(277,516,o),
(299,541,o),
(348,541,cs),
(376,541,o),
(395,531,o),
(395,517,cs),
(395,513,o),
(393,510,o),
(389,506,cs),
(325,432,ls),
(310,414,o),
(307,409,o),
(307,391,cs),
(307,298,ls),
(307,281,o),
(317,271,o),
(336,271,cs),
(377,271,ls),
(436,271,o),
(459,250,o),
(459,219,cs),
(459,188,o),
(437,168,o),
(378,168,cs),
(340,168,ls),
(320,168,o),
(307,157,o),
(307,141,cs),
(307,27,ls),
(307,11,o),
(320,0,o),
(340,0,c),
(435,0,ls),
(593,0,o),
(705,81,o),
(705,207,cs),
(705,307,o),
(632,394,o),
(463,394,cs),
(491,290,l),
(651,469,ls),
(676,496,o),
(679,508,o),
(679,526,cs),
(679,610,o),
(553,710,o),
(362,710,cs),
(170,710,o),
(45,617,o),
(45,452,cs),
(45,27,ls),
(45,12,o),
(57,0,o),
(72,0,cs)
);
}
);
width = 715;
}
);
unicode = 7838;
},
{
color = 6;
glyphname = T;
kernLeft = T;
kernRight = T;
layers = (
{
anchors = (
{
name = bottom;
pos = (279,0);
},
{
name = center;
pos = (279,350);
},
{
name = top;
pos = (279,700);
}
);
layerId = "581BC726-83A6-4935-8633-5A6508251040";
shapes = (
{
closed = 1;
nodes = (
(287,0,ls),
(301,0,o),
(310,9,o),
(310,22,cs),
(310,640,l),
(507,640,ls),
(521,640,o),
(530,649,o),
(530,662,cs),
(530,677,ls),
(530,691,o),
(521,700,o),
(507,700,cs),
(49,700,ls),
(36,700,o),
(27,691,o),
(27,677,cs),
(27,662,ls),
(27,649,o),
(36,640,o),
(49,640,cs),
(247,640,l),
(247,22,ls),
(247,9,o),
(256,0,o),
(269,0,cs)
);
}
);
width = 557;
},
{
anchors = (
{
name = bottom;
pos = (337,0);
},
{
name = center;
pos = (337,350);
},
{
name = top;
pos = (337,700);
}
);
color = 6;
hints = (
{
horizontal = 1;
place = (0, 0);
type = Tag;
}
);
layerId = "EC64484B-0978-4CB1-9EE9-C40A2D8C4059";
shapes = (
{
closed = 1;
nodes = (
(437,0,ls),
(452,0,o),
(464,12,o),
(464,27,cs),
(464,485,l),
(630,485,ls),
(645,485,o),
(657,497,o),
(657,512,cs),
(657,673,ls),
(657,688,o),
(645,700,o),
(630,700,cs),
(44,700,ls),
(29,700,o),
(17,688,o),
(17,673,cs),
(17,512,ls),
(17,497,o),
(29,485,o),
(44,485,cs),
(210,485,l),
(210,27,ls),
(210,12,o),
(222,0,o),
(237,0,cs)
);
}
);
width = 674;
}
);
unicode = 84;
userData = {
com.typemytype.robofont.guides = (
{
angle = 0;
isGlobal = 0;
magnetic = 5;
x = 0;
y = 495;
},
{
angle = 0;
isGlobal = 0;
magnetic = 5;
x = 0;
y = 9;
},
{
angle = 0;
isGlobal = 0;
magnetic = 5;
x = 0;
y = 691;
},
{
angle = 0;
isGlobal = 0;
magnetic = 5;
x = 0;
y = 649;
},
{
angle = 90;
isGlobal = 0;
magnetic = 5;
x = 279;
y = 0;
},
{
angle = 90;
isGlobal = 0;
magnetic = 5;
x = 324;
y = 0;
},
{
angle = 90;
isGlobal = 0;
magnetic = 5;
x = 59;
y = 0;
},
{
angle = 90;
isGlobal = 0;
magnetic = 5;
x = 544;
y = 0;
}
);
};
},
{
color = 6;
glyphname = Tbar;
kernLeft = T;
kernRight = T;
layers = (
{
layerId = "581BC726-83A6-4935-8633-5A6508251040";
shapes = (
{
closed = 1;
nodes = (
(292,0,ls),
(306,0,o),
(315,9,o),
(315,22,cs),
(315,350,l),
(432,350,ls),
(446,350,o),
(455,359,o),
(455,372,cs),
(455,387,ls),
(455,401,o),
(446,410,o),
(432,410,cs),
(315,410,l),
(315,640,l),
(512,640,ls),
(526,640,o),
(535,649,o),
(535,662,cs),
(535,677,ls),
(535,691,o),
(526,700,o),
(512,700,cs),
(54,700,ls),
(41,700,o),
(32,691,o),
(32,677,cs),
(32,662,ls),
(32,649,o),
(41,640,o),
(54,640,cs),
(252,640,l),
(252,410,l),
(134,410,ls),
(121,410,o),
(112,401,o),
(112,387,cs),
(112,372,ls),
(112,359,o),
(121,350,o),
(134,350,cs),
(252,350,l),
(252,22,ls),
(252,9,o),
(261,0,o),
(274,0,cs)
);
}
);
width = 567;
},
{
color = 6;
hints = (
{
horizontal = 1;
place = (0, 0);
type = Tag;
}
);
layerId = "EC64484B-0978-4CB1-9EE9-C40A2D8C4059";
shapes = (
{
closed = 1;
nodes = (
(441,0,ls),
(456,0,o),
(468,12,o),
(468,27,cs),
(468,258,l),
(558,258,ls),
(573,258,o),
(585,270,o),
(585,285,cs),
(585,356,ls),
(585,371,o),
(573,383,o),
(558,383,cs),
(468,383,l),
(468,485,l),
(634,485,ls),
(649,485,o),
(661,497,o),
(661,512,cs),
(661,673,ls),
(661,688,o),
(649,700,o),
(634,700,cs),
(48,700,ls),
(33,700,o),
(21,688,o),
(21,673,cs),
(21,512,ls),
(21,497,o),
(33,485,o),
(48,485,cs),
(214,485,l),
(214,383,l),
(124,383,ls),
(109,383,o),
(97,371,o),
(97,356,cs),
(97,285,ls),
(97,270,o),
(109,258,o),
(124,258,cs),
(214,258,l),
(214,27,ls),
(214,12,o),
(226,0,o),
(241,0,cs)
);
}
);
width = 682;
}
);
unicode = 358;
userData = {
com.typemytype.robofont.guides = (
{
angle = 0;
isGlobal = 0;
magnetic = 5;
x = 0;
y = 380;
},
{
angle = 90;
isGlobal = 0;
magnetic = 5;
x = 301;
y = 0;
},
{
angle = 90;
isGlobal = 0;
magnetic = 5;
x = 50;
y = 0;
}
);
};
},
{
color = 6;
glyphname = U;
kernLeft = U;
kernRight = U;
layers = (
{
anchors = (
{
name = bottom;
pos = (346,0);
},
{
name = ogonek;
pos = (410,50);
},
{
name = top;
pos = (346,700);
},
{
name = topright;
pos = (671,700);
}
);
layerId = "581BC726-83A6-4935-8633-5A6508251040";
shapes = (
{
closed = 1;
nodes = (
(509,-10,o),
(603,77,o),
(603,271,cs),
(603,677,l),
(603,691,o),
(594,700,o),
(581,700,c),
(563,700,l),
(549,700,o),
(540,691,o),
(540,677,c),
(540,268,ls),
(540,118,o),
(465,50,o),
(346,50,cs),
(226,50,o),
(151,118,o),
(151,268,cs),
(151,677,l),
(151,691,o),
(142,700,o),
(128,700,c),
(110,700,l),
(97,700,o),
(88,691,o),
(88,677,c),
(88,271,ls),
(88,77,o),
(184,-10,o),
(346,-10,cs)
);
}
);
width = 691;
},
{
anchors = (
{
name = bottom;
pos = (373,0);
},
{
name = ogonek;
pos = (469,115);
},
{
name = top;
pos = (373,700);
},
{
name = topright;
pos = (726,700);
}
);
color = 6;
layerId = "EC64484B-0978-4CB1-9EE9-C40A2D8C4059";
shapes = (
{
closed = 1;
nodes = (
(564,-10,o),
(697,75,o),
(697,264,cs),
(697,673,ls),
(697,688,o),
(685,700,o),
(670,700,cs),
(474,700,ls),
(459,700,o),
(447,688,o),
(447,673,cs),
(447,268,ls),
(447,218,o),
(422,191,o),
(373,191,cs),
(324,191,o),
(299,218,o),
(299,268,cs),
(299,673,ls),
(299,688,o),
(287,700,o),
(272,700,cs),
(76,700,ls),
(61,700,o),
(49,688,o),
(49,673,cs),
(49,264,ls),
(49,75,o),
(182,-10,o),
(374,-10,cs)
);
}
);
width = 746;
}
);
unicode = 85;
userData = {
com.typemytype.robofont.guides = (
{
angle = 0;
isGlobal = 0;
magnetic = 5;
x = 0;
y = 267;
},
{
angle = 90;
isGlobal = 0;
magnetic = 5;
x = 333;
y = 0;
},
{
angle = 90;
isGlobal = 0;
magnetic = 5;
x = 535;
y = 0;
},
{
angle = 90;
isGlobal = 0;
magnetic = 5;
x = 580;
y = 0;
},
{
angle = 90;
isGlobal = 0;
magnetic = 5;
x = 84;
y = 0;
},
{
angle = 90;
isGlobal = 0;
magnetic = 5;
x = 129;
y = 0;
}
);
};
},
{
color = 6;
glyphname = Uogonek;
kernLeft = U;
kernRight = U;
layers = (
{
layerId = "581BC726-83A6-4935-8633-5A6508251040";
shapes = (
{
closed = 1;
nodes = (
(428,-220,l),
(441,-220,o),
(450,-211,o),
(450,-198,c),
(450,-185,l),
(450,-172,o),
(441,-163,o),
(428,-163,c),
(413,-163,l),
(369,-163,o),
(337,-133,o),
(337,-82,cs),
(337,-31,o),
(369,-14,o),
(412,-5,c),
(534,16,o),
(603,105,o),
(603,271,cs),
(603,677,l),
(603,691,o),
(594,700,o),
(581,700,c),
(563,700,l),
(549,700,o),
(540,691,o),
(540,677,c),
(540,268,ls),
(540,118,o),
(465,50,o),
(346,50,cs),
(226,50,o),
(151,118,o),
(151,268,cs),
(151,677,l),
(151,691,o),
(142,700,o),
(128,700,c),
(110,700,l),
(97,700,o),
(88,691,o),
(88,677,c),
(88,271,ls),
(88,99,o),
(163,11,o),
(292,-6,c),
(282,-24,o),
(277,-47,o),
(277,-82,cs),
(277,-167,o),
(328,-220,o),
(409,-220,c)
);
}
);
width = 691;
},
{
color = 6;
hints = (
{
horizontal = 1;
place = (0, 0);
type = Tag;
},
{
horizontal = 1;
place = (0, 0);
type = Tag;
}
);
layerId = "EC64484B-0978-4CB1-9EE9-C40A2D8C4059";
shapes = (
{
closed = 1;
nodes = (
(471,-220,l),
(486,-220,o),
(498,-208,o),
(498,-193,c),
(498,-125,l),
(498,-110,o),
(486,-98,o),
(471,-98,c),
(461,-98,l),
(422,-98,o),
(411,-70,o),
(411,-49,cs),
(411,-30,o),
(416,-11,o),
(448,-5,cs),
(596,21,o),
(697,100,o),
(697,264,c),
(697,673,l),
(697,688,o),
(685,700,o),
(670,700,c),
(474,700,l),
(459,700,o),
(447,688,o),
(447,673,c),
(447,268,l),
(447,218,o),
(422,191,o),
(373,191,cs),
(324,191,o),
(299,218,o),
(299,268,c),
(299,673,l),
(299,688,o),
(287,700,o),
(272,700,c),
(76,700,l),
(61,700,o),
(49,688,o),
(49,673,c),
(49,264,l),
(49,104,o),
(144,19,o),
(289,-3,c),
(286,-18,o),
(285,-33,o),
(285,-49,cs),
(285,-144,o),
(336,-220,o),
(457,-220,c)
);
}
);
width = 746;
}
);
unicode = 370;
userData = {
com.typemytype.robofont.guides = (
{
angle = 0;
isGlobal = 0;
magnetic = 5;
x = 0;
y = "-187";
},
{
angle = 90;
isGlobal = 0;
magnetic = 5;
x = 332;
y = 0;
}
);
};
},
{
color = 6;
glyphname = V;
layers = (
{
anchors = (
{
name = bottom;
pos = (319,0);
},
{
name = top;
pos = (319,700);
}
);
layerId = "581BC726-83A6-4935-8633-5A6508251040";
shapes = (
{
closed = 1;
nodes = (
(333,0,ls),
(351,0,o),
(361,8,o),
(367,24,cs),
(599,669,ls),
(600,672,o),
(601,678,o),
(601,680,cs),
(601,691,o),
(592,700,o),
(581,700,cs),
(560,700,ls),
(547,700,o),
(540,690,o),
(538,685,cs),
(319,73,l),
(100,685,ls),
(98,690,o),
(91,700,o),
(78,700,cs),
(57,700,ls),
(46,700,o),
(37,691,o),
(37,680,cs),
(37,678,o),
(38,672,o),
(39,669,cs),
(271,24,ls),
(277,8,o),
(287,0,o),
(305,0,cs)
);
}
);
width = 638;
},
{
anchors = (
{
name = bottom;
pos = (363,0);
},
{
name = top;
pos = (363,700);
}
);
color = 6;
hints = (
{
horizontal = 1;
place = (0, 0);
type = Tag;
}
);
layerId = "EC64484B-0978-4CB1-9EE9-C40A2D8C4059";
shapes = (
{
closed = 1;
nodes = (
(477,0,ls),
(504,0,o),
(518,18,o),
(522,33,cs),
(710,671,ls),
(711,675,o),
(711,676,o),
(711,678,cs),
(711,690,o),
(701,700,o),
(689,700,cs),
(503,700,ls),
(476,700,o),
(462,682,o),
(458,667,cs),
(363,295,l),
(268,667,ls),
(264,682,o),
(250,700,o),
(223,700,cs),
(37,700,ls),
(25,700,o),
(15,690,o),
(15,678,cs),
(15,676,o),
(15,675,o),
(16,671,cs),
(204,33,ls),
(208,18,o),
(222,0,o),
(249,0,cs)
);
}
);
width = 726;
}
);
unicode = 86;
userData = {
com.typemytype.robofont.guides = (
{
angle = 0;
isGlobal = 0;
magnetic = 5;
x = 0;
y = 24;
}
);
};
},
{
color = 6;
glyphname = W;
kernLeft = W;
kernRight = W;
layers = (
{
anchors = (
{
name = bottom;
pos = (394,0);
},
{
name = top;
pos = (394,700);
}
);
layerId = "581BC726-83A6-4935-8633-5A6508251040";
shapes = (
{
closed = 1;
nodes = (
(230,0,l),
(246,0,o),
(256,8,o),
(261,24,c),
(394,446,l),
(527,24,l),
(532,8,o),
(542,0,o),
(558,0,c),
(573,0,l),
(589,0,o),
(597,7,o),
(601,24,c),
(738,668,l),
(739,673,o),
(740,678,o),
(740,680,cs),
(740,691,o),
(731,700,o),
(720,700,c),
(699,700,l),
(686,700,o),
(679,694,o),
(677,685,c),
(560,115,l),
(436,522,l),
(432,534,o),
(423,545,o),
(405,545,c),
(383,545,l),
(365,545,o),
(356,534,o),
(352,522,c),
(228,115,l),
(111,685,l),
(109,694,o),
(102,700,o),
(89,700,c),
(68,700,l),
(57,700,o),
(48,691,o),
(48,680,cs),
(48,678,o),
(49,673,o),
(50,668,c),
(187,24,l),
(191,7,o),
(199,0,o),
(215,0,c)
);
}
);
width = 788;
},
{
anchors = (
{
name = bottom;
pos = (428,0);
},
{
name = top;
pos = (428,700);
}
);
color = 6;
layerId = "EC64484B-0978-4CB1-9EE9-C40A2D8C4059";
shapes = (
{
closed = 1;
nodes = (
(305,0,ls),
(332,0,o),
(343,19,o),
(346,27,cs),
(428,232,l),
(510,27,ls),
(513,19,o),
(524,0,o),
(551,0,cs),
(694,0,ls),
(721,0,o),
(738,20,o),
(740,38,c),
(832,675,l),
(832,676,o),
(832,677,o),
(832,678,cs),
(832,690,o),
(822,700,o),
(810,700,cs),
(624,700,ls),
(601,700,o),
(590,693,o),
(588,673,cs),
(554,392,l),
(513,516,ls),
(510,525,o),
(503,545,o),
(479,545,cs),
(377,545,ls),
(353,545,o),
(346,525,o),
(343,516,cs),
(302,391,l),
(268,673,ls),
(266,693,o),
(255,700,o),
(232,700,cs),
(46,700,ls),
(34,700,o),
(24,690,o),
(24,678,cs),
(24,677,o),
(24,676,o),
(24,675,c),
(116,38,l),
(118,20,o),
(135,0,o),
(162,0,cs)
);
}
);
width = 856;
}
);
unicode = 87;
userData = {
com.typemytype.robofont.guides = (
{
angle = 0;
isGlobal = 0;
magnetic = 5;
x = 0;
y = 545;
},
{
angle = 0;
isGlobal = 0;
magnetic = 5;
x = 0;
y = 670;
},
{
angle = 0;
isGlobal = 0;
magnetic = 5;
x = 0;
y = 24;
}
);
};
},
{
color = 6;
glyphname = X;
layers = (
{
anchors = (
{
name = bottom;
pos = (305,0);
},
{
name = top;
pos = (305,700);
}
);
layerId = "581BC726-83A6-4935-8633-5A6508251040";
shapes = (
{
closed = 1;
nodes = (
(72,0,l),
(81,0,o),
(88,5,o),
(95,15,c),
(304,304,l),
(513,15,l),
(520,5,o),
(527,0,o),
(536,0,c),
(560,0,l),
(571,0,o),
(580,9,o),
(580,20,cs),
(580,25,o),
(578,30,o),
(576,33,c),
(344,354,l),
(565,667,l),
(567,670,o),
(569,675,o),
(569,680,cs),
(569,691,o),
(560,700,o),
(549,700,c),
(527,700,l),
(518,700,o),
(511,695,o),
(504,685,c),
(307,405,l),
(106,685,l),
(99,695,o),
(92,700,o),
(83,700,c),
(59,700,l),
(48,700,o),
(39,691,o),
(39,680,cs),
(39,675,o),
(41,670,o),
(43,667,c),
(267,356,l),
(34,33,l),
(32,30,o),
(30,25,o),
(30,20,cs),
(30,9,o),
(39,0,o),
(50,0,c)
);
}
);
width = 609;
},
{
anchors = (
{
name = bottom;
pos = (370,0);
},
{
name = top;
pos = (370,700);
}
);
color = 6;
hints = (
{
horizontal = 1;
place = (0, 0);
type = Tag;
}
);
layerId = "EC64484B-0978-4CB1-9EE9-C40A2D8C4059";
shapes = (
{
closed = 1;
nodes = (
(240,0,ls),
(266,0,o),
(278,18,o),
(281,23,cs),
(364,157,l),
(451,23,ls),
(454,18,o),
(466,0,o),
(492,0,cs),
(717,0,ls),
(729,0,o),
(739,10,o),
(739,22,cs),
(739,24,o),
(739,28,o),
(736,33,cs),
(523,361,l),
(716,667,ls),
(719,672,o),
(719,673,o),
(719,678,cs),
(719,690,o),
(709,700,o),
(697,700,cs),
(490,700,ls),
(464,700,o),
(452,682,o),
(448,675,cs),
(372,553,l),
(302,675,ls),
(298,682,o),
(286,700,o),
(260,700,cs),
(43,700,ls),
(31,700,o),
(21,690,o),
(21,678,cs),
(21,673,o),
(22,671,o),
(24,667,cs),
(213,358,l),
(3,33,ls),
(0,28,o),
(0,24,o),
(0,22,cs),
(0,10,o),
(10,0,o),
(22,0,cs)
);
}
);
width = 739;
}
);
unicode = 88;
userData = {
com.typemytype.robofont.guides = (
{
angle = 0;
isGlobal = 0;
magnetic = 5;
x = 0;
y = 350;
},
{
angle = 90;
isGlobal = 0;
magnetic = 5;
x = 28;
y = 0;
},
{
angle = 90;
isGlobal = 0;
magnetic = 5;
x = 580;
y = 0;
}
);
};
},
{
color = 6;
glyphname = Y;
kernLeft = Y;
kernRight = Y;
layers = (
{
anchors = (
{
name = bottom;
pos = (316,0);
},
{
name = top;
pos = (316,700);
},
{
name = topleft;
pos = (20,700);
}
);
layerId = "581BC726-83A6-4935-8633-5A6508251040";
shapes = (
{
closed = 1;
nodes = (
(325,0,ls),
(339,0,o),
(348,9,o),
(348,22,cs),
(348,267,l),
(592,667,ls),
(594,671,o),
(596,675,o),
(596,680,cs),
(596,691,o),
(587,700,o),
(576,700,cs),
(556,700,ls),
(547,700,o),
(539,695,o),
(533,685,cs),
(316,332,l),
(99,685,ls),
(93,695,o),
(85,700,o),
(76,700,cs),
(56,700,ls),
(45,700,o),
(36,691,o),
(36,680,cs),
(36,675,o),
(38,671,o),
(40,667,cs),
(284,267,l),
(284,22,ls),
(284,9,o),
(293,0,o),
(306,0,cs)
);
}
);
width = 632;
},
{
anchors = (
{
name = bottom;
pos = (355,0);
},
{
name = top;
pos = (355,700);
},
{
name = topleft;
pos = (20,700);
}
);
color = 6;
layerId = "EC64484B-0978-4CB1-9EE9-C40A2D8C4059";
shapes = (
{
closed = 1;
nodes = (
(453,0,ls),
(468,0,o),
(480,12,o),
(480,27,cs),
(480,224,l),
(705,669,ls),
(706,671,o),
(707,675,o),
(707,678,cs),
(707,690,o),
(697,700,o),
(685,700,cs),
(497,700,ls),
(470,700,o),
(458,681,o),
(455,675,cs),
(355,474,l),
(255,675,ls),
(252,681,o),
(240,700,o),
(213,700,cs),
(25,700,ls),
(13,700,o),
(3,690,o),
(3,678,cs),
(3,675,o),
(4,671,o),
(5,669,cs),
(230,224,l),
(230,27,ls),
(230,12,o),
(242,0,o),
(257,0,cs)
);
}
);
width = 710;
}
);
unicode = 89;
userData = {
com.typemytype.robofont.guides = (
{
angle = 90;
isGlobal = 0;
magnetic = 5;
x = 310;
y = 0;
}
);
};
},
{
color = 6;
glyphname = Z;
kernLeft = Z;
kernRight = Z;
layers = (
{
anchors = (
{
name = bottom;
pos = (290,0);
},
{
name = center;
pos = (290,350);
},
{
name = top;
pos = (280,700);
}
);
layerId = "581BC726-83A6-4935-8633-5A6508251040";
shapes = (
{
closed = 1;
nodes = (
(514,0,ls),
(528,0,o),
(537,9,o),
(537,22,cs),
(537,37,ls),
(537,51,o),
(528,60,o),
(514,60,cs),
(122,60,l),
(514,621,ls),
(520,630,o),
(527,640,o),
(527,657,cs),
(527,677,ls),
(527,691,o),
(518,700,o),
(504,700,cs),
(73,700,ls),
(60,700,o),
(51,691,o),
(51,677,cs),
(51,662,ls),
(51,649,o),
(60,640,o),
(73,640,cs),
(451,640,l),
(57,81,ls),
(53,75,o),
(42,63,o),
(42,43,cs),
(42,23,ls),
(42,9,o),
(51,0,o),
(64,0,cs)
);
}
);
width = 579;
},
{
anchors = (
{
name = bottom;
pos = (347,0);
},
{
name = center;
pos = (347,350);
},
{
name = top;
pos = (337,700);
}
);
color = 6;
layerId = "EC64484B-0978-4CB1-9EE9-C40A2D8C4059";
shapes = (
{
closed = 1;
nodes = (
(633,0,ls),
(648,0,o),
(660,12,o),
(660,27,cs),
(660,178,ls),
(660,193,o),
(648,205,o),
(633,205,cs),
(369,205,l),
(634,498,ls),
(642,506,o),
(647,517,o),
(647,531,cs),
(647,673,ls),
(647,688,o),
(635,700,o),
(620,700,cs),
(72,700,ls),
(57,700,o),
(45,688,o),
(45,673,cs),
(45,524,ls),
(45,509,o),
(57,497,o),
(72,497,cs),
(330,497,l),
(50,206,ls),
(45,201,o),
(35,190,o),
(35,171,cs),
(35,27,ls),
(35,12,o),
(47,0,o),
(62,0,cs)
);
}
);
width = 693;
}
);
unicode = 90;
userData = {
com.typemytype.robofont.guides = (
{
angle = 0;
isGlobal = 0;
magnetic = 5;
x = 0;
y = 51;
},
{
angle = 0;
isGlobal = 0;
magnetic = 5;
x = 0;
y = 9;
},
{
angle = 0;
isGlobal = 0;
magnetic = 5;
x = 0;
y = 691;
},
{
angle = 0;
isGlobal = 0;
magnetic = 5;
x = 0;
y = 649;
},
{
angle = 90;
isGlobal = 0;
magnetic = 5;
x = 189;
y = 0;
},
{
angle = 90;
isGlobal = 0;
magnetic = 5;
x = 815;
y = 0;
},
{
angle = 90;
isGlobal = 0;
magnetic = 5;
x = 732;
y = 0;
},
{
angle = 90;
isGlobal = 0;
magnetic = 5;
x = "-431";
y = 0;
},
{
angle = 90;
isGlobal = 0;
magnetic = 5;
x = 74;
y = 0;
},
{
angle = 90;
isGlobal = 0;
magnetic = 5;
x = 541;
y = 0;
}
);
};
},
{
color = 6;
glyphname = a;
kernLeft = a;
kernRight = a;
layers = (
{
anchors = (
{
name = bottom;
pos = (268,0);
},
{
name = ogonek;
pos = (458,58);
},
{
name = top;
pos = (265,520);
}
);
layerId = "581BC726-83A6-4935-8633-5A6508251040";
shapes = (
{
closed = 1;
nodes = (
(324,-10,o),
(374,33,o),
(398,69,c),
(398,22,ls),
(398,9,o),
(407,0,o),
(420,0,cs),
(437,0,ls),
(450,0,o),
(459,9,o),
(459,22,cs),
(459,355,ls),
(459,435,o),
(420,530,o),
(262,530,cs),
(129,530,o),
(77,442,o),
(77,405,cs),
(77,393,o),
(83,383,o),
(99,383,c),
(115,383,l),
(125,383,o),
(131,389,o),
(134,398,cs),
(150,442,o),
(192,472,o),
(262,472,cs),
(356,472,o),
(398,429,o),
(398,358,cs),
(398,323,l),
(240,301,ls),
(123,285,o),
(42,229,o),
(42,139,cs),
(42,55,o),
(125,-10,o),
(221,-10,cs)
);
},
{
closed = 1;
nodes = (
(169,48,o),
(103,78,o),
(103,144,cs),
(103,198,o),
(160,235,o),
(269,250,cs),
(398,268,l),
(398,234,ls),
(398,108,o),
(323,48,o),
(231,48,cs)
);
}
);
width = 536;
},
{
anchors = (
{
name = bottom;
pos = (311,0);
},
{
name = ogonek;
pos = (580,122);
},
{
name = top;
pos = (310,520);
}
);
color = 6;
hints = (
{
horizontal = 1;
place = (0, 0);
type = Tag;
},
{
horizontal = 1;
place = (0, 0);
type = Tag;
}
);
layerId = "EC64484B-0978-4CB1-9EE9-C40A2D8C4059";
shapes = (
{
closed = 1;
nodes = (
(273,-10,o),
(324,15,o),
(353,55,c),
(353,27,ls),
(353,12,o),
(365,0,o),
(380,0,cs),
(555,0,ls),
(570,0,o),
(582,12,o),
(582,27,cs),
(582,314,ls),
(582,451,o),
(495,530,o),
(314,530,cs),
(127,530,o),
(54,431,o),
(51,380,cs),
(50,367,o),
(60,358,o),
(73,358,c),
(243,358,l),
(255,358,o),
(264,362,o),
(271,369,cs),
(284,382,o),
(293,390,o),
(312,390,cs),
(340,390,o),
(342,375,o),
(342,340,c),
(342,339,l),
(236,322,l),
(103,299,o),
(17,246,o),
(17,149,cs),
(17,59,o),
(96,-10,o),
(211,-10,cs)
);
},
{
closed = 1;
nodes = (
(255,138,o),
(242,151,o),
(242,166,cs),
(242,180,o),
(251,195,o),
(286,203,cs),
(345,216,l),
(345,215,l),
(345,162,o),
(319,138,o),
(280,138,cs)
);
}
);
width = 622;
}
);
unicode = 97;
},
{
color = 6;
glyphname = aogonek;
kernLeft = a;
kernRight = a;
layers = (
{
layerId = "581BC726-83A6-4935-8633-5A6508251040";
shapes = (
{
closed = 1;
nodes = (
(437,-220,ls),
(450,-220,o),
(459,-211,o),
(459,-198,cs),
(459,-185,ls),
(459,-172,o),
(450,-163,o),
(437,-163,cs),
(432,-163,ls),
(398,-163,o),
(376,-141,o),
(376,-90,cs),
(376,-44,o),
(399,-22,o),
(443,0,cs),
(445,1,ls),
(455,6,o),
(459,14,o),
(459,22,cs),
(459,355,ls),
(459,435,o),
(420,530,o),
(262,530,cs),
(129,530,o),
(77,442,o),
(77,405,cs),
(77,393,o),
(87,383,o),
(99,383,cs),
(113,383,ls),
(125,383,o),
(132,388,o),
(137,404,cs),
(148,437,o),
(188,472,o),
(262,472,cs),
(356,472,o),
(398,429,o),
(398,358,cs),
(398,323,l),
(240,301,ls),
(123,285,o),
(42,229,o),
(42,139,cs),
(42,55,o),
(125,-10,o),
(221,-10,cs),
(324,-10,o),
(374,33,o),
(398,69,c),
(398,38,l),
(398,37,o),
(398,36,o),
(398,35,c),
(362,18,o),
(316,-26,o),
(316,-90,cs),
(316,-175,o),
(367,-220,o),
(428,-220,cs)
);
},
{
closed = 1;
nodes = (
(169,48,o),
(103,78,o),
(103,144,cs),
(103,198,o),
(160,235,o),
(269,250,cs),
(398,268,l),
(398,234,ls),
(398,108,o),
(323,48,o),
(231,48,cs)
);
}
);
width = 536;
},
{
color = 6;
hints = (
{
horizontal = 1;
place = (0, 0);
type = Tag;
},
{
horizontal = 1;
place = (0, 0);
type = Tag;
},
{
horizontal = 1;
place = (0, 0);
type = Tag;
},
{
horizontal = 1;
place = (0, 0);
type = Tag;
}
);
layerId = "EC64484B-0978-4CB1-9EE9-C40A2D8C4059";
shapes = (
{
closed = 1;
nodes = (
(555,-220,l),
(570,-220,o),
(582,-208,o),
(582,-193,c),
(582,-125,l),
(582,-110,o),
(570,-98,o),
(555,-98,c),
(545,-98,l),
(506,-98,o),
(495,-70,o),
(495,-49,cs),
(495,-29,o),
(505,-2,o),
(539,0,c),
(555,0,l),
(570,0,o),
(582,12,o),
(582,27,c),
(582,314,l),
(582,451,o),
(495,530,o),
(314,530,cs),
(127,530,o),
(54,431,o),
(51,380,cs),
(50,367,o),
(60,358,o),
(73,358,c),
(240,358,l),
(241,358,o),
(242,358,o),
(243,358,c),
(275,358,o),
(278,390,o),
(312,390,cs),
(340,390,o),
(342,375,o),
(342,340,c),
(342,339,l),
(236,322,l),
(103,299,o),
(17,246,o),
(17,149,cs),
(17,59,o),
(96,-10,o),
(211,-10,cs),
(273,-10,o),
(324,15,o),
(353,55,c),
(353,27,l),
(353,14,o),
(361,3,o),
(373,0,c),
(370,-14,o),
(369,-33,o),
(369,-49,cs),
(369,-144,o),
(420,-220,o),
(541,-220,c)
);
},
{
closed = 1;
nodes = (
(255,138,o),
(242,151,o),
(242,166,cs),
(242,180,o),
(251,195,o),
(286,203,c),
(345,216,l),
(345,215,l),
(345,162,o),
(319,138,o),
(280,138,cs)
);
}
);
width = 622;
}
);
metricLeft = a;
metricRight = a;
unicode = 261;
userData = {
com.typemytype.robofont.guides = (
{
angle = 0;
isGlobal = 0;
magnetic = 5;
x = 0;
y = 22;
},
{
angle = 0;
isGlobal = 0;
magnetic = 5;
x = 0;
y = "-220";
},
{
angle = 90;
isGlobal = 0;
magnetic = 5;
x = 472;
y = 0;
}
);
};
},
{
color = 6;
glyphname = ae;
kernLeft = a;
kernRight = e;
layers = (
{
anchors = (
{
name = bottom;
pos = (441,0);
},
{
name = top;
pos = (443,520);
}
);
layerId = "581BC726-83A6-4935-8633-5A6508251040";
shapes = (
{
closed = 1;
nodes = (
(320,-10,o),
(388,26,o),
(427,100,c),
(458,36,o),
(516,-10,o),
(614,-10,cs),
(749,-10,o),
(816,81,o),
(816,111,cs),
(816,123,o),
(807,131,o),
(795,131,c),
(783,131,l),
(768,131,o),
(764,129,o),
(753,113,cs),
(721,67,o),
(666,48,o),
(614,48,cs),
(545,48,o),
(465,95,o),
(461,225,c),
(461,235,l),
(807,235,l),
(820,235,o),
(830,244,o),
(830,257,c),
(830,272,l),
(830,373,o),
(801,530,o),
(615,530,cs),
(531,530,o),
(475,494,o),
(441,442,c),
(417,491,o),
(364,530,o),
(263,530,cs),
(130,530,o),
(77,442,o),
(77,405,cs),
(77,393,o),
(87,383,o),
(99,383,c),
(113,383,l),
(125,383,o),
(132,388,o),
(137,404,cs),
(148,437,o),
(189,472,o),
(263,472,cs),
(357,472,o),
(399,429,o),
(399,358,c),
(399,326,l),
(241,304,l),
(124,288,o),
(43,229,o),
(43,139,cs),
(43,55,o),
(116,-10,o),
(222,-10,cs)
);
},
{
closed = 1;
nodes = (
(170,48,o),
(104,78,o),
(104,144,cs),
(104,198,o),
(161,235,o),
(270,250,c),
(399,268,l),
(399,234,l),
(399,108,o),
(324,48,o),
(232,48,cs)
);
},
{
closed = 1;
nodes = (
(461,295,l),
(465,416,o),
(539,472,o),
(615,472,cs),
(720,472,o),
(769,396,o),
(769,295,c),
(769,291,l),
(461,291,l)
);
}
);
width = 881;
},
{
anchors = (
{
name = bottom;
pos = (468,0);
},
{
name = top;
pos = (468,520);
}
);
color = 6;
hints = (
{
horizontal = 1;
place = (0, 0);
type = Tag;
},
{
horizontal = 1;
place = (0, 0);
type = Tag;
},
{
horizontal = 1;
place = (0, 0);
type = Tag;
}
);
layerId = "EC64484B-0978-4CB1-9EE9-C40A2D8C4059";
shapes = (
{
closed = 1;
nodes = (
(290,-10,o),
(367,-1,o),
(428,51,c),
(476,11,o),
(544,-10,o),
(625,-10,cs),
(810,-10,o),
(896,94,o),
(896,145,cs),
(896,158,o),
(887,167,o),
(874,167,cs),
(685,167,ls),
(669,167,o),
(664,165,o),
(652,153,cs),
(641,142,o),
(635,135,o),
(623,135,cs),
(594,135,o),
(584,156,o),
(584,196,cs),
(584,201,l),
(882,201,ls),
(897,201,o),
(909,213,o),
(909,228,cs),
(909,258,ls),
(909,405,o),
(820,530,o),
(624,530,cs),
(565,530,o),
(514,516,o),
(471,493,c),
(438,517,o),
(388,530,o),
(314,530,cs),
(127,530,o),
(51,431,o),
(51,380,cs),
(51,367,o),
(60,358,o),
(73,358,cs),
(240,358,l),
(241,358,o),
(242,358,o),
(243,358,cs),
(275,358,o),
(278,390,o),
(312,390,cs),
(339,390,o),
(342,376,o),
(342,342,c),
(342,339,l),
(236,322,l),
(103,299,o),
(17,246,o),
(17,149,cs),
(17,59,o),
(95,-10,o),
(231,-10,cs)
);
},
{
closed = 1;
nodes = (
(255,138,o),
(242,151,o),
(242,166,cs),
(242,180,o),
(251,195,o),
(286,203,cs),
(345,216,l),
(345,215,l),
(345,162,o),
(319,138,o),
(280,138,cs)
);
},
{
closed = 1;
nodes = (
(584,330,ls),
(584,371,o),
(598,390,o),
(624,390,cs),
(649,390,o),
(664,371,o),
(664,330,cs),
(664,326,l),
(584,326,l)
);
}
);
width = 935;
}
);
unicode = 230;
userData = {
com.typemytype.robofont.guides = (
{
angle = 0;
isGlobal = 0;
magnetic = 5;
x = 0;
y = "-10";
},
{
angle = 0;
isGlobal = 0;
magnetic = 5;
x = 0;
y = 530;
},
{
angle = 90;
isGlobal = 0;
magnetic = 5;
x = 473;
y = 0;
},
{
angle = 90;
isGlobal = 0;
magnetic = 5;
x = "-379";
y = 0;
},
{
angle = 90;
isGlobal = 0;
magnetic = 5;
x = 453;
y = 0;
}
);
};
},
{
color = 6;
glyphname = b;
kernLeft = h;
kernRight = b;
layers = (
{
anchors = (
{
name = bottom;
pos = (290,0);
},
{
name = top;
pos = (290,750);
}
);
layerId = "581BC726-83A6-4935-8633-5A6508251040";
shapes = (
{
closed = 1;
nodes = (
(467,-10,o),
(521,115,o),
(525,232,cs),
(526,252,o),
(526,268,o),
(525,288,cs),
(521,405,o),
(467,530,o),
(311,530,cs),
(228,530,o),
(176,495,o),
(143,451,c),
(143,688,ls),
(143,701,o),
(134,710,o),
(121,710,cs),
(104,710,ls),
(91,710,o),
(82,701,o),
(82,688,cs),
(82,22,ls),
(82,9,o),
(91,0,o),
(104,0,cs),
(121,0,ls),
(134,0,o),
(143,9,o),
(143,22,cs),
(143,69,l),
(176,24,o),
(228,-10,o),
(311,-10,cs)
);
},
{
closed = 1;
nodes = (
(191,48,o),
(146,142,o),
(143,224,cs),
(142,244,o),
(142,282,o),
(143,302,cs),
(145,382,o),
(194,472,o),
(305,472,cs),
(422,472,o),
(460,384,o),
(464,288,cs),
(465,268,o),
(465,252,o),
(464,232,cs),
(460,136,o),
(422,48,o),
(305,48,cs)
);
}
);
width = 580;
},
{
anchors = (
{
name = bottom;
pos = (331,0);
},
{
name = top;
pos = (331,750);
}
);
color = 6;
hints = (
{
horizontal = 1;
place = (0, 0);
type = Tag;
},
{
horizontal = 1;
place = (0, 0);
type = Tag;
}
);
layerId = "EC64484B-0978-4CB1-9EE9-C40A2D8C4059";
shapes = (
{
closed = 1;
nodes = (
(533,-10,o),
(622,54,o),
(629,221,cs),
(630,251,o),
(630,270,o),
(629,300,cs),
(623,457,o),
(533,530,o),
(417,530,cs),
(361,530,o),
(316,512,o),
(284,483,c),
(284,683,ls),
(284,698,o),
(272,710,o),
(257,710,cs),
(72,710,ls),
(57,710,o),
(45,698,o),
(45,683,cs),
(45,27,ls),
(45,12,o),
(57,0,o),
(72,0,cs),
(242,0,ls),
(257,0,o),
(269,12,o),
(269,27,cs),
(269,50,l),
(301,14,o),
(348,-10,o),
(417,-10,cs)
);
},
{
closed = 1;
nodes = (
(297,169,o),
(286,191,o),
(284,227,cs),
(282,257,o),
(282,271,o),
(284,301,cs),
(286,333,o),
(300,351,o),
(334,351,cs),
(371,351,o),
(380,329,o),
(384,293,cs),
(386,273,o),
(386,247,o),
(384,227,cs),
(380,191,o),
(371,169,o),
(334,169,cs)
);
}
);
width = 661;
}
);
unicode = 98;
userData = {
com.typemytype.robofont.guides = (
{
angle = 0;
isGlobal = 0;
magnetic = 5;
x = 0;
y = 530;
},
{
angle = 0;
isGlobal = 0;
magnetic = 5;
x = 0;
y = "-10";
},
{
angle = 0;
isGlobal = 0;
magnetic = 5;
x = 0;
y = 710;
},
{
angle = 0;
isGlobal = 0;
magnetic = 5;
x = 0;
y = 288;
},
{
angle = 0;
isGlobal = 0;
magnetic = 5;
x = 0;
y = 232;
},
{
angle = 0;
isGlobal = 0;
magnetic = 5;
x = 0;
y = 451;
},
{
angle = 0;
isGlobal = 0;
magnetic = 5;
x = 0;
y = 69;
},
{
angle = 90;
isGlobal = 0;
magnetic = 5;
x = 121;
y = 0;
},
{
angle = 90;
isGlobal = 0;
magnetic = 5;
x = 79;
y = 0;
}
);
};
},
{
color = 6;
glyphname = c;
kernLeft = o;
kernRight = c;
layers = (
{
anchors = (
{
name = bottom;
pos = (268,0);
},
{
name = top;
pos = (271,520);
}
);
layerId = "581BC726-83A6-4935-8633-5A6508251040";
shapes = (
{
closed = 1;
nodes = (
(419,-10,o),
(482,77,o),
(485,149,cs),
(486,162,o),
(475,171,o),
(463,171,cs),
(449,171,ls),
(435,171,o),
(431,166,o),
(425,150,cs),
(397,74,o),
(348,48,o),
(278,48,cs),
(187,48,o),
(122,100,o),
(118,225,cs),
(117,245,o),
(117,275,o),
(118,295,cs),
(122,420,o),
(187,472,o),
(278,472,cs),
(348,472,o),
(397,446,o),
(425,370,cs),
(431,354,o),
(435,349,o),
(449,349,cs),
(463,349,ls),
(475,349,o),
(486,358,o),
(485,371,cs),
(482,443,o),
(419,530,o),
(278,530,cs),
(137,530,o),
(61,443,o),
(57,300,cs),
(56,280,o),
(56,240,o),
(57,220,cs),
(61,77,o),
(137,-10,o),
(278,-10,cs)
);
}
);
width = 536;
},
{
anchors = (
{
name = bottom;
pos = (311,0);
},
{
name = top;
pos = (311,520);
}
);
color = 6;
hints = (
{
horizontal = 1;
place = (0, 0);
type = Tag;
},
{
horizontal = 1;
place = (0, 0);
type = Tag;
}
);
layerId = "EC64484B-0978-4CB1-9EE9-C40A2D8C4059";
shapes = (
{
closed = 1;
nodes = (
(531,-10,o),
(600,141,o),
(603,184,cs),
(604,199,o),
(591,211,o),
(576,211,cs),
(381,211,ls),
(366,211,o),
(357,203,o),
(352,191,cs),
(344,172,o),
(339,161,o),
(315,161,cs),
(284,161,o),
(277,181,o),
(275,224,cs),
(274,243,o),
(274,266,o),
(275,295,cs),
(276,335,o),
(284,359,o),
(315,359,cs),
(335,359,o),
(343,348,o),
(352,329,cs),
(358,317,o),
(366,309,o),
(381,309,cs),
(576,309,ls),
(591,309,o),
(604,321,o),
(603,336,cs),
(600,389,o),
(521,530,o),
(310,530,cs),
(157,530,o),
(37,448,o),
(30,300,cs),
(29,277,o),
(29,240,o),
(30,219,cs),
(38,71,o),
(157,-10,o),
(310,-10,cs)
);
}
);
width = 622;
}
);
unicode = 99;
userData = {
com.typemytype.robofont.guides = (
{
angle = 0;
isGlobal = 0;
magnetic = 5;
x = 0;
y = "-10";
},
{
angle = 0;
isGlobal = 0;
magnetic = 5;
x = 0;
y = 295;
},
{
angle = 0;
isGlobal = 0;
magnetic = 5;
x = 0;
y = 225;
},
{
angle = 90;
isGlobal = 0;
magnetic = 5;
x = 445;
y = 0;
},
{
angle = 90;
isGlobal = 0;
magnetic = 5;
x = 484;
y = 0;
},
{
angle = 90;
isGlobal = 0;
magnetic = 5;
x = 137;
y = 0;
},
{
angle = 90;
isGlobal = 0;
magnetic = 5;
x = 270;
y = 0;
}
);
};
},
{
color = 6;
glyphname = ccedilla;
kernLeft = o;
kernRight = c;
layers = (
{
layerId = "581BC726-83A6-4935-8633-5A6508251040";
shapes = (
{
closed = 1;
nodes = (
(338,-221,o),
(369,-180,o),
(369,-132,cs),
(369,-84,o),
(337,-50,o),
(293,-50,cs),
(278,-50,o),
(263,-53,o),
(255,-58,c),
(278,-10,l),
(419,-10,o),
(482,77,o),
(485,149,cs),
(486,162,o),
(475,171,o),
(463,171,c),
(449,171,l),
(435,171,o),
(431,166,o),
(425,150,cs),
(397,74,o),
(348,48,o),
(278,48,cs),
(187,48,o),
(122,100,o),
(118,225,cs),
(117,245,o),
(117,275,o),
(118,295,cs),
(122,420,o),
(187,472,o),
(278,472,cs),
(348,472,o),
(397,446,o),
(425,370,cs),
(431,354,o),
(435,349,o),
(449,349,c),
(463,349,l),
(475,349,o),
(486,358,o),
(485,371,cs),
(482,443,o),
(419,530,o),
(278,530,cs),
(137,530,o),
(61,443,o),
(57,300,cs),
(56,280,o),
(56,240,o),
(57,220,cs),
(60,96,o),
(118,14,o),
(225,-5,c),
(204,-53,l),
(200,-63,o),
(192,-75,o),
(199,-83,c),
(215,-100,l),
(230,-116,o),
(243,-96,o),
(275,-96,cs),
(298,-96,o),
(318,-110,o),
(318,-134,cs),
(318,-159,o),
(298,-174,o),
(275,-174,cs),
(231,-174,o),
(224,-140,o),
(207,-156,c),
(193,-169,l),
(177,-184,o),
(218,-219,o),
(275,-220,cs)
);
}
);
width = 536;
},
{
color = 6;
hints = (
{
horizontal = 1;
place = (0, 0);
type = Tag;
},
{
horizontal = 1;
place = (0, 0);
type = Tag;
}
);
layerId = "EC64484B-0978-4CB1-9EE9-C40A2D8C4059";
shapes = (
{
closed = 1;
nodes = (
(371,-220,o),
(410,-183,o),
(410,-130,cs),
(410,-77,o),
(380,-40,o),
(329,-40,cs),
(325,-40,o),
(307,-42,o),
(299,-45,c),
(317,-10,l),
(532,-7,o),
(600,141,o),
(603,184,cs),
(604,199,o),
(591,211,o),
(576,211,c),
(381,211,l),
(366,211,o),
(357,203,o),
(352,191,cs),
(344,172,o),
(339,161,o),
(315,161,cs),
(284,161,o),
(277,181,o),
(275,224,cs),
(274,243,o),
(274,266,o),
(275,295,cs),
(276,335,o),
(284,359,o),
(315,359,cs),
(335,359,o),
(343,348,o),
(352,329,cs),
(358,317,o),
(366,309,o),
(381,309,c),
(576,309,l),
(591,309,o),
(604,321,o),
(603,336,cs),
(600,389,o),
(521,530,o),
(310,530,cs),
(157,530,o),
(37,448,o),
(30,300,cs),
(29,277,o),
(29,240,o),
(30,219,cs),
(37,89,o),
(129,11,o),
(254,-6,c),
(234,-52,l),
(225,-71,o),
(227,-76,o),
(236,-85,c),
(257,-106,l),
(270,-119,o),
(293,-106,o),
(311,-106,cs),
(331,-106,o),
(339,-118,o),
(339,-130,cs),
(339,-142,o),
(330,-154,o),
(311,-154,cs),
(277,-154,o),
(272,-136,o),
(255,-151,c),
(234,-169,l),
(211,-189,o),
(258,-220,o),
(311,-220,cs)
);
}
);
width = 622;
}
);
unicode = 231;
},
{
color = 6;
glyphname = d;
kernLeft = d;
kernRight = d;
layers = (
{
anchors = (
{
name = bottom;
pos = (290,0);
},
{
name = center;
pos = (438,615);
},
{
name = top;
pos = (290,750);
},
{
name = topright;
pos = (565,710);
}
);
layerId = "581BC726-83A6-4935-8633-5A6508251040";
shapes = (
{
closed = 1;
nodes = (
(352,-10,o),
(404,24,o),
(437,69,c),
(437,22,ls),
(437,9,o),
(446,0,o),
(459,0,cs),
(476,0,ls),
(489,0,o),
(498,9,o),
(498,22,cs),
(498,688,ls),
(498,701,o),
(489,710,o),
(476,710,cs),
(459,710,ls),
(446,710,o),
(437,701,o),
(437,688,cs),
(437,451,l),
(404,495,o),
(352,530,o),
(269,530,cs),
(113,530,o),
(59,405,o),
(55,288,cs),
(54,268,o),
(54,252,o),
(55,232,cs),
(59,115,o),
(113,-10,o),
(269,-10,cs)
);
},
{
closed = 1;
nodes = (
(158,48,o),
(120,136,o),
(116,232,cs),
(115,252,o),
(115,268,o),
(116,288,cs),
(120,384,o),
(158,472,o),
(275,472,cs),
(386,472,o),
(435,382,o),
(437,302,cs),
(438,282,o),
(438,244,o),
(437,224,cs),
(434,142,o),
(389,48,o),
(275,48,cs)
);
}
);
width = 580;
},
{
anchors = (
{
name = bottom;
pos = (331,0);
},
{
name = center;
pos = (466,612);
},
{
name = top;
pos = (331,750);
},
{
name = topright;
pos = (781,710);
}
);
color = 6;
hints = (
{
horizontal = 1;
place = (0, 0);
type = Tag;
},
{
horizontal = 1;
place = (0, 0);
type = Tag;
}
);
layerId = "EC64484B-0978-4CB1-9EE9-C40A2D8C4059";
shapes = (
{
closed = 1;
nodes = (
(313,-10,o),
(360,14,o),
(392,50,c),
(392,27,ls),
(392,12,o),
(404,0,o),
(419,0,cs),
(589,0,ls),
(604,0,o),
(616,12,o),
(616,27,cs),
(616,683,ls),
(616,698,o),
(604,710,o),
(589,710,cs),
(404,710,ls),
(389,710,o),
(377,698,o),
(377,683,cs),
(377,483,l),
(345,512,o),
(300,530,o),
(244,530,cs),
(128,530,o),
(38,457,o),
(32,300,cs),
(31,270,o),
(31,251,o),
(32,221,cs),
(39,54,o),
(128,-10,o),
(244,-10,cs)
);
},
{
closed = 1;
nodes = (
(290,169,o),
(281,191,o),
(277,227,cs),
(275,247,o),
(275,273,o),
(277,293,cs),
(281,329,o),
(290,351,o),
(327,351,cs),
(361,351,o),
(375,333,o),
(377,301,cs),
(379,271,o),
(379,257,o),
(377,227,cs),
(375,191,o),
(364,169,o),
(327,169,cs)
);
}
);
width = 661;
}
);
unicode = 100;
userData = {
com.typemytype.robofont.guides = (
{
angle = 0;
isGlobal = 0;
magnetic = 5;
x = 0;
y = 650;
},
{
angle = 0;
isGlobal = 0;
magnetic = 5;
x = 0;
y = 530;
},
{
angle = 90;
isGlobal = 0;
magnetic = 5;
x = 438;
y = 0;
},
{
angle = 90;
isGlobal = 0;
magnetic = 5;
x = 499;
y = 0;
}
);
};
},
{
color = 6;
glyphname = eth;
layers = (
{
layerId = "581BC726-83A6-4935-8633-5A6508251040";
shapes = (
{
closed = 1;
nodes = (
(416,-10,o),
(492,92,o),
(492,229,cs),
(492,230,o),
(492,231,o),
(492,232,cs),
(490,402,o),
(455,501,o),
(398,575,c),
(460,599,l),
(476,605,o),
(482,609,o),
(482,624,c),
(482,643,l),
(482,655,o),
(474,661,o),
(463,661,cs),
(459,661,o),
(455,660,o),
(450,658,c),
(357,622,l),
(336,644,o),
(313,665,o),
(288,687,cs),
(278,695,o),
(268,700,o),
(252,700,c),
(232,700,l),
(220,700,o),
(212,692,o),
(212,680,cs),
(212,675,o),
(215,669,o),
(229,658,cs),
(253,638,o),
(276,618,o),
(296,599,c),
(234,575,l),
(218,569,o),
(212,565,o),
(212,550,c),
(212,531,l),
(212,519,o),
(220,513,o),
(231,513,cs),
(235,513,o),
(239,514,o),
(244,516,c),
(340,553,l),
(368,518,o),
(389,479,o),
(405,431,c),
(371,456,o),
(326,470,o),
(273,470,cs),
(129,470,o),
(53,368,o),
(54,231,c),
(53,94,o),
(129,-10,o),
(273,-10,cs)
);
},
{
closed = 1;
nodes = (
(170,48,o),
(117,127,o),
(115,226,cs),
(115,227,o),
(115,229,o),
(115,232,cs),
(115,332,o),
(168,412,o),
(273,412,cs),
(378,412,o),
(431,332,o),
(431,232,cs),
(431,230,o),
(431,229,o),
(431,228,cs),
(430,128,o),
(377,48,o),
(273,48,cs)
);
}
);
width = 550;
},
{
color = 6;
hints = (
{
horizontal = 1;
place = (0, 0);
type = Tag;
}
);
layerId = "EC64484B-0978-4CB1-9EE9-C40A2D8C4059";
shapes = (
{
closed = 1;
nodes = (
(489,-10,o),
(597,68,o),
(606,225,cs),
(607,245,o),
(607,268,o),
(606,288,cs),
(599,424,o),
(560,524,o),
(498,601,c),
(539,617,l),
(555,623,o),
(561,632,o),
(561,650,c),
(561,678,l),
(561,690,o),
(552,699,o),
(540,699,cs),
(538,699,o),
(534,698,o),
(529,696,c),
(439,661,l),
(429,670,o),
(417,678,o),
(406,687,cs),
(396,694,o),
(380,700,o),
(353,700,c),
(165,700,l),
(153,700,o),
(143,690,o),
(143,678,cs),
(143,673,o),
(147,665,o),
(156,659,cs),
(188,637,o),
(219,613,o),
(246,586,c),
(172,557,l),
(156,551,o),
(150,542,o),
(150,524,c),
(150,496,l),
(150,484,o),
(159,475,o),
(171,475,cs),
(173,475,o),
(177,476,o),
(182,478,c),
(300,524,l),
(312,506,o),
(322,488,o),
(330,470,c),
(325,470,o),
(321,470,o),
(316,470,c),
(153,470,o),
(26,392,o),
(26,230,cs),
(26,68,o),
(142,-10,o),
(316,-10,cs)
);
},
{
closed = 1;
nodes = (
(279,150,o),
(272,171,o),
(271,204,cs),
(270,224,o),
(270,236,o),
(271,256,cs),
(273,288,o),
(279,310,o),
(316,310,cs),
(353,310,o),
(359,288,o),
(361,256,cs),
(362,236,o),
(362,223,o),
(361,203,cs),
(360,171,o),
(350,150,o),
(316,150,cs)
);
}
);
width = 638;
}
);
unicode = 240;
userData = {
com.typemytype.robofont.guides = (
{
angle = 0;
isGlobal = 0;
magnetic = 5;
x = 0;
y = 512;
},
{
angle = 90;
isGlobal = 0;
magnetic = 5;
x = 214;
y = 0;
},
{
angle = 90;
isGlobal = 0;
magnetic = 5;
x = 484;
y = 0;
}
);
};
},
{
color = 6;
glyphname = dcroat;
kernLeft = d;
kernRight = d;
layers = (
{
layerId = "581BC726-83A6-4935-8633-5A6508251040";
shapes = (
{
closed = 1;
nodes = (
(353,-10,o),
(405,24,o),
(438,69,c),
(438,22,ls),
(438,9,o),
(447,0,o),
(460,0,cs),
(477,0,ls),
(490,0,o),
(499,9,o),
(499,22,cs),
(499,571,l),
(557,571,ls),
(570,571,o),
(579,580,o),
(579,593,cs),
(579,607,ls),
(579,620,o),
(570,629,o),
(557,629,cs),
(499,629,l),
(499,688,ls),
(499,701,o),
(490,710,o),
(477,710,cs),
(460,710,ls),
(447,710,o),
(438,701,o),
(438,688,cs),
(438,629,l),
(380,629,ls),
(367,629,o),
(358,620,o),
(358,607,cs),
(358,593,ls),
(358,580,o),
(367,571,o),
(380,571,cs),
(438,571,l),
(438,451,l),
(405,495,o),
(353,530,o),
(270,530,cs),
(94,530,o),
(59,385,o),
(56,288,cs),
(55,268,o),
(55,252,o),
(56,232,cs),
(59,135,o),
(94,-10,o),
(270,-10,cs)
);
},
{
closed = 1;
nodes = (
(159,48,o),
(120,136,o),
(117,232,cs),
(116,252,o),
(116,268,o),
(117,288,cs),
(120,384,o),
(159,472,o),
(276,472,cs),
(387,472,o),
(436,382,o),
(438,302,cs),
(439,282,o),
(439,244,o),
(438,224,cs),
(435,142,o),
(390,48,o),
(276,48,cs)
);
}
);
width = 580;
},
{
color = 6;
hints = (
{
horizontal = 1;
place = (0, 0);
type = Tag;
},
{
horizontal = 1;
place = (0, 0);
type = Tag;
}
);
layerId = "EC64484B-0978-4CB1-9EE9-C40A2D8C4059";
shapes = (
{
closed = 1;
nodes = (
(313,-10,o),
(362,18,o),
(392,57,c),
(392,27,ls),
(392,12,o),
(404,0,o),
(419,0,cs),
(589,0,ls),
(604,0,o),
(616,12,o),
(616,27,cs),
(616,548,l),
(646,548,ls),
(661,548,o),
(673,560,o),
(673,575,cs),
(673,626,ls),
(673,641,o),
(661,653,o),
(646,653,cs),
(616,653,l),
(616,683,ls),
(616,698,o),
(604,710,o),
(589,710,cs),
(404,710,ls),
(389,710,o),
(377,698,o),
(377,683,cs),
(377,653,l),
(347,653,ls),
(332,653,o),
(320,641,o),
(320,626,cs),
(320,575,ls),
(320,560,o),
(332,548,o),
(347,548,cs),
(377,548,l),
(377,483,l),
(345,512,o),
(300,530,o),
(244,530,cs),
(128,530,o),
(38,457,o),
(32,300,cs),
(31,270,o),
(31,251,o),
(32,221,cs),
(39,54,o),
(128,-10,o),
(244,-10,cs)
);
},
{
closed = 1;
nodes = (
(290,169,o),
(281,191,o),
(277,227,cs),
(275,247,o),
(275,273,o),
(277,293,cs),
(281,329,o),
(290,351,o),
(327,351,cs),
(361,351,o),
(375,333,o),
(377,301,cs),
(379,271,o),
(379,257,o),
(377,227,cs),
(375,191,o),
(364,169,o),
(327,169,cs)
);
}
);
width = 662;
}
);
unicode = 273;
userData = {
com.typemytype.robofont.guides = (
{
angle = 0;
isGlobal = 0;
magnetic = 5;
x = 0;
y = 600;
}
);
};
},
{
color = 6;
glyphname = e;
kernLeft = o;
kernRight = e;
layers = (
{
anchors = (
{
name = bottom;
pos = (273,0);
},
{
name = ogonek;
pos = (381,60);
},
{
name = top;
pos = (274,520);
}
);
layerId = "581BC726-83A6-4935-8633-5A6508251040";
shapes = (
{
closed = 1;
nodes = (
(400,-10,o),
(478,73,o),
(480,111,cs),
(481,123,o),
(471,131,o),
(459,131,cs),
(443,131,ls),
(428,131,o),
(425,130,o),
(413,113,cs),
(402,97,o),
(359,48,o),
(274,48,cs),
(177,48,o),
(120,134,o),
(116,225,cs),
(116,228,o),
(116,235,o),
(116,235,c),
(472,235,ls),
(485,235,o),
(495,244,o),
(495,257,cs),
(495,272,ls),
(495,432,o),
(413,530,o),
(274,530,cs),
(144,530,o),
(65,436,o),
(55,300,cs),
(54,280,o),
(54,240,o),
(55,220,cs),
(65,83,o),
(145,-10,o),
(274,-10,cs)
);
},
{
closed = 1;
nodes = (
(116,295,ls),
(116,395,o),
(174,472,o),
(274,472,cs),
(374,472,o),
(434,395,o),
(434,295,cs),
(434,291,l),
(116,291,l)
);
}
);
width = 546;
},
{
anchors = (
{
name = bottom;
pos = (312,0);
},
{
name = ogonek;
pos = (561,10);
},
{
name = top;
pos = (312,520);
}
);
color = 6;
hints = (
{
horizontal = 1;
place = (0, 0);
type = Tag;
}
);
layerId = "EC64484B-0978-4CB1-9EE9-C40A2D8C4059";
shapes = (
{
closed = 1;
nodes = (
(499,-10,o),
(582,94,o),
(585,145,cs),
(586,158,o),
(576,167,o),
(563,167,cs),
(374,167,ls),
(358,167,o),
(353,165,o),
(341,153,cs),
(330,142,o),
(324,135,o),
(312,135,cs),
(283,135,o),
(273,156,o),
(273,196,cs),
(273,198,o),
(273,199,o),
(273,201,c),
(571,201,ls),
(586,201,o),
(598,213,o),
(598,228,cs),
(598,258,ls),
(598,405,o),
(509,530,o),
(313,530,cs),
(142,530,o),
(31,438,o),
(28,266,cs),
(28,264,o),
(28,261,o),
(28,259,cs),
(28,72,o),
(139,-10,o),
(314,-10,cs)
);
},
{
closed = 1;
nodes = (
(273,327,l),
(273,371,o),
(287,390,o),
(313,390,cs),
(339,390,o),
(353,371,o),
(353,327,c),
(353,326,l),
(273,326,l)
);
}
);
width = 623;
}
);
unicode = 101;
userData = {
com.typemytype.robofont.guides = (
{
angle = 0;
isGlobal = 0;
magnetic = 5;
x = 0;
y = "-10";
},
{
angle = 90;
isGlobal = 0;
magnetic = 5;
x = 275;
y = 0;
},
{
angle = 90;
isGlobal = 0;
magnetic = 5;
x = 496;
y = 0;
},
{
angle = 90;
isGlobal = 0;
magnetic = 5;
x = 61;
y = 0;
},
{
angle = 90;
isGlobal = 0;
magnetic = 5;
x = 122;
y = 0;
},
{
angle = 90;
isGlobal = 0;
magnetic = 5;
x = 430;
y = 0;
}
);
};
},
{
color = 6;
glyphname = eogonek;
kernLeft = o;
kernRight = e;
layers = (
{
anchors = (
{
name = top;
pos = (274,520);
}
);
layerId = "581BC726-83A6-4935-8633-5A6508251040";
shapes = (
{
closed = 1;
nodes = (
(345,-220,l),
(358,-220,o),
(367,-211,o),
(367,-198,c),
(367,-185,l),
(367,-172,o),
(358,-163,o),
(345,-163,c),
(330,-163,l),
(286,-163,o),
(254,-133,o),
(254,-82,cs),
(254,-35,o),
(280,-14,o),
(320,-6,cs),
(418,14,o),
(479,77,o),
(481,111,cs),
(482,123,o),
(472,131,o),
(460,131,cs),
(444,131,ls),
(429,131,o),
(426,130,o),
(414,113,cs),
(403,97,o),
(360,48,o),
(275,48,cs),
(178,48,o),
(121,134,o),
(117,225,cs),
(117,235,l),
(473,235,ls),
(486,235,o),
(496,244,o),
(496,257,cs),
(496,272,ls),
(496,432,o),
(414,530,o),
(275,530,cs),
(145,530,o),
(66,436,o),
(56,300,cs),
(55,280,o),
(55,240,o),
(56,220,cs),
(64,106,o),
(120,23,o),
(213,-2,c),
(200,-23,o),
(194,-51,o),
(194,-82,cs),
(194,-167,o),
(245,-220,o),
(326,-220,c)
);
},
{
closed = 1;
nodes = (
(116,295,ls),
(116,395,o),
(174,472,o),
(274,472,cs),
(374,472,o),
(434,395,o),
(434,295,cs),
(434,291,l),
(116,291,l)
);
}
);
width = 547;
},
{
anchors = (
{
name = top;
pos = (312,520);
}
);
color = 6;
hints = (
{
horizontal = 1;
place = (0, 0);
type = Tag;
},
{
horizontal = 1;
place = (0, 0);
type = Tag;
},
{
horizontal = 1;
place = (0, 0);
type = Tag;
}
);
layerId = "EC64484B-0978-4CB1-9EE9-C40A2D8C4059";
shapes = (
{
closed = 1;
nodes = (
(382,-220,l),
(397,-220,o),
(409,-208,o),
(409,-193,c),
(409,-125,l),
(409,-110,o),
(397,-98,o),
(382,-98,c),
(372,-98,l),
(333,-98,o),
(322,-70,o),
(322,-49,cs),
(322,-28,o),
(338,-12,o),
(380,-5,c),
(519,15,o),
(582,100,o),
(585,145,cs),
(586,158,o),
(576,167,o),
(563,167,c),
(374,167,l),
(358,167,o),
(353,165,o),
(341,153,cs),
(330,142,o),
(324,135,o),
(312,135,cs),
(283,135,o),
(273,156,o),
(273,196,c),
(273,201,l),
(571,201,l),
(586,201,o),
(598,213,o),
(598,228,c),
(598,258,l),
(598,405,o),
(509,530,o),
(313,530,cs),
(142,530,o),
(30,437,o),
(28,264,cs),
(28,262,o),
(28,261,o),
(28,259,cs),
(28,116,o),
(93,34,o),
(202,3,c),
(198,-13,o),
(196,-30,o),
(196,-49,cs),
(196,-144,o),
(247,-220,o),
(368,-220,cs)
);
},
{
closed = 1;
nodes = (
(273,327,l),
(273,371,o),
(287,390,o),
(313,390,cs),
(339,390,o),
(353,371,o),
(353,327,c),
(353,326,l),
(273,326,l)
);
}
);
width = 623;
}
);
unicode = 281;
userData = {
com.typemytype.robofont.guides = (
{
angle = 0;
isGlobal = 0;
magnetic = 5;
x = 0;
y = 259;
},
{
angle = 0;
isGlobal = 0;
magnetic = 5;
x = 0;
y = "-220";
},
{
angle = 90;
isGlobal = 0;
magnetic = 5;
x = 339;
y = 0;
}
);
};
},
{
color = 6;
glyphname = f;
kernLeft = f;
kernRight = f;
layers = (
{
anchors = (
{
name = bottom;
pos = (180,0);
},
{
name = top;
pos = (180,710);
}
);
layerId = "581BC726-83A6-4935-8633-5A6508251040";
shapes = (
{
closed = 1;
nodes = (
(169,0,ls),
(182,0,o),
(191,9,o),
(191,22,cs),
(191,462,l),
(323,462,ls),
(336,462,o),
(345,471,o),
(345,484,cs),
(345,498,ls),
(345,511,o),
(336,520,o),
(323,520,cs),
(191,520,l),
(191,572,ls),
(191,643,o),
(210,682,o),
(281,682,cs),
(333,682,ls),
(346,682,o),
(355,691,o),
(355,704,cs),
(355,718,ls),
(355,731,o),
(346,740,o),
(333,740,cs),
(281,740,ls),
(159,740,o),
(130,666,o),
(130,577,cs),
(130,520,l),
(41,520,ls),
(28,520,o),
(19,511,o),
(19,498,cs),
(19,484,ls),
(19,471,o),
(28,462,o),
(41,462,cs),
(130,462,l),
(130,22,ls),
(130,9,o),
(139,0,o),
(152,0,cs)
);
}
);
width = 360;
},
{
anchors = (
{
name = bottom;
pos = (246,0);
},
{
name = top;
pos = (246,750);
}
);
color = 6;
hints = (
{
horizontal = 1;
place = (0, 0);
type = Tag;
}
);
layerId = "EC64484B-0978-4CB1-9EE9-C40A2D8C4059";
shapes = (
{
closed = 1;
nodes = (
(313,0,ls),
(328,0,o),
(340,12,o),
(340,27,cs),
(340,345,l),
(454,345,ls),
(469,345,o),
(481,357,o),
(481,372,cs),
(481,493,ls),
(481,508,o),
(469,520,o),
(454,520,cs),
(340,520,l),
(340,532,ls),
(340,553,o),
(353,565,o),
(383,565,cs),
(464,565,ls),
(479,565,o),
(491,577,o),
(491,592,cs),
(491,713,ls),
(491,728,o),
(479,740,o),
(464,740,cs),
(371,740,ls),
(226,740,o),
(111,701,o),
(111,537,cs),
(111,520,l),
(42,520,ls),
(27,520,o),
(15,508,o),
(15,493,cs),
(15,372,ls),
(15,357,o),
(27,345,o),
(42,345,cs),
(111,345,l),
(111,27,ls),
(111,12,o),
(123,0,o),
(138,0,cs)
);
}
);
width = 492;
}
);
unicode = 102;
userData = {
com.typemytype.robofont.guides = (
{
angle = 0;
isGlobal = 0;
magnetic = 5;
x = 0;
y = 345;
},
{
angle = 0;
isGlobal = 0;
magnetic = 5;
x = 0;
y = 9;
},
{
angle = 0;
isGlobal = 0;
magnetic = 5;
x = 0;
y = 740;
},
{
angle = 90;
isGlobal = 0;
magnetic = 5;
x = 297;
y = 0;
},
{
angle = 90;
isGlobal = 0;
magnetic = 5;
x = 371;
y = 0;
}
);
};
},
{
color = 6;
glyphname = g;
kernLeft = g;
kernRight = u;
layers = (
{
anchors = (
{
name = bottom;
pos = (291,-225);
},
{
name = top;
pos = (278,520);
}
);
layerId = "581BC726-83A6-4935-8633-5A6508251040";
shapes = (
{
closed = 1;
nodes = (
(453,-220,o),
(499,-118,o),
(499,10,cs),
(499,497,ls),
(499,510,o),
(489,520,o),
(476,520,cs),
(460,520,ls),
(447,520,o),
(438,510,o),
(438,497,cs),
(438,451,l),
(405,495,o),
(352,530,o),
(270,530,cs),
(114,530,o),
(59,405,o),
(56,288,cs),
(55,268,o),
(55,252,o),
(56,232,cs),
(59,115,o),
(114,-10,o),
(270,-10,cs),
(352,-10,o),
(405,24,o),
(438,69,c),
(438,0,ls),
(438,-127,o),
(379,-162,o),
(270,-162,cs),
(166,-162,o),
(137,-103,o),
(126,-71,cs),
(120,-53,o),
(112,-50,o),
(102,-50,cs),
(88,-50,ls),
(76,-50,o),
(65,-60,o),
(66,-73,cs),
(68,-113,o),
(105,-220,o),
(275,-220,cs)
);
},
{
closed = 1;
nodes = (
(159,48,o),
(120,136,o),
(117,232,cs),
(116,252,o),
(116,268,o),
(117,288,cs),
(120,384,o),
(159,472,o),
(276,472,cs),
(390,472,o),
(434,378,o),
(438,296,c),
(439,276,o),
(439,244,o),
(438,224,c),
(434,142,o),
(390,48,o),
(276,48,cs)
);
}
);
width = 581;
},
{
anchors = (
{
name = bottom;
pos = (333,-225);
},
{
name = top;
pos = (327,520);
}
);
color = 6;
hints = (
{
horizontal = 1;
place = (0, 0);
type = Tag;
},
{
horizontal = 1;
place = (0, 0);
type = Tag;
},
{
horizontal = 1;
place = (0, 0);
type = Tag;
}
);
layerId = "EC64484B-0978-4CB1-9EE9-C40A2D8C4059";
shapes = (
{
closed = 1;
nodes = (
(496,-220,o),
(621,-151,o),
(621,17,c),
(620,493,l),
(620,508,o),
(608,520,o),
(593,520,c),
(418,520,l),
(403,520,o),
(391,508,o),
(391,493,c),
(391,462,l),
(359,502,o),
(308,530,o),
(243,530,cs),
(117,530,o),
(39,457,o),
(31,300,c),
(30,280,o),
(30,269,o),
(31,249,c),
(40,82,o),
(117,23,o),
(243,23,cs),
(301,23,o),
(345,39,o),
(376,66,c),
(376,0,l),
(376,-40,o),
(362,-59,o),
(333,-59,cs),
(309,-59,o),
(300,-51,o),
(291,-34,cs),
(285,-22,o),
(278,-14,o),
(263,-14,c),
(68,-14,l),
(53,-14,o),
(40,-26,o),
(41,-41,cs),
(44,-84,o),
(112,-220,o),
(338,-220,cs)
);
},
{
closed = 1;
nodes = (
(289,197,o),
(279,219,o),
(276,255,cs),
(275,265,o),
(275,283,o),
(276,293,c),
(279,329,o),
(289,351,o),
(326,351,cs),
(360,351,o),
(373,333,o),
(376,301,cs),
(377,291,o),
(377,257,o),
(376,247,cs),
(373,215,o),
(360,197,o),
(326,197,cs)
);
}
);
width = 666;
}
);
unicode = 103;
userData = {
com.typemytype.robofont.guides = (
{
angle = 0;
isGlobal = 0;
magnetic = 5;
x = 0;
y = 530;
},
{
angle = 0;
isGlobal = 0;
magnetic = 5;
x = 0;
y = "-220";
},
{
angle = 0;
isGlobal = 0;
magnetic = 5;
x = 0;
y = 288;
},
{
angle = 0;
isGlobal = 0;
magnetic = 5;
x = 0;
y = 232;
},
{
angle = 90;
isGlobal = 0;
magnetic = 5;
x = 56;
y = 0;
},
{
angle = 90;
isGlobal = 0;
magnetic = 5;
x = 270;
y = 0;
}
);
};
},
{
color = 6;
glyphname = h;
kernLeft = h;
kernRight = n;
layers = (
{
anchors = (
{
name = bottom;
pos = (296,0);
},
{
name = center;
pos = (143,597);
},
{
name = top;
pos = (298,675);
}
);
layerId = "581BC726-83A6-4935-8633-5A6508251040";
shapes = (
{
closed = 1;
nodes = (
(121,0,ls),
(134,0,o),
(143,9,o),
(143,22,cs),
(143,301,ls),
(143,408,o),
(206,472,o),
(301,472,cs),
(401,472,o),
(454,407,o),
(454,301,cs),
(454,22,ls),
(454,9,o),
(463,0,o),
(476,0,cs),
(493,0,ls),
(506,0,o),
(515,9,o),
(515,22,cs),
(515,306,ls),
(515,433,o),
(447,530,o),
(311,530,cs),
(225,530,o),
(179,498,o),
(143,451,c),
(143,688,ls),
(143,701,o),
(134,710,o),
(121,710,cs),
(104,710,ls),
(91,710,o),
(82,701,o),
(82,688,cs),
(82,22,ls),
(82,9,o),
(91,0,o),
(104,0,cs)
);
}
);
width = 591;
},
{
anchors = (
{
name = bottom;
pos = (343,0);
},
{
name = center;
pos = (187,599);
},
{
name = top;
pos = (343,676);
}
);
color = 6;
layerId = "EC64484B-0978-4CB1-9EE9-C40A2D8C4059";
shapes = (
{
closed = 1;
nodes = (
(267,0,ls),
(282,0,o),
(294,12,o),
(294,27,cs),
(294,296,ls),
(294,332,o),
(313,351,o),
(345,351,cs),
(377,351,o),
(395,332,o),
(395,296,cs),
(395,27,ls),
(395,12,o),
(407,0,o),
(422,0,cs),
(618,0,ls),
(633,0,o),
(645,12,o),
(645,27,cs),
(645,303,ls),
(645,461,o),
(547,530,o),
(446,530,cs),
(384,530,o),
(329,506,o),
(294,468,c),
(294,683,ls),
(294,698,o),
(282,710,o),
(267,710,cs),
(72,710,ls),
(57,710,o),
(45,698,o),
(45,683,cs),
(45,27,ls),
(45,12,o),
(57,0,o),
(72,0,cs)
);
}
);
width = 685;
}
);
unicode = 104;
userData = {
com.typemytype.robofont.guides = (
{
angle = 0;
isGlobal = 0;
magnetic = 5;
x = 0;
y = 9;
},
{
angle = 0;
isGlobal = 0;
magnetic = 5;
x = 0;
y = 301;
},
{
angle = 0;
isGlobal = 0;
magnetic = 5;
x = 0;
y = 414;
},
{
angle = 0;
isGlobal = 0;
magnetic = 5;
x = 0;
y = 710;
},
{
angle = 90;
isGlobal = 0;
magnetic = 5;
x = 79;
y = 0;
},
{
angle = 90;
isGlobal = 0;
magnetic = 5;
x = 291;
y = 0;
}
);
};
},
{
color = 3;
glyphname = hbar;
kernLeft = h;
kernRight = n;
layers = (
{
layerId = "581BC726-83A6-4935-8633-5A6508251040";
shapes = (
{
closed = 1;
nodes = (
(200,571,ls),
(213,571,o),
(222,580,o),
(222,593,cs),
(222,607,ls),
(222,620,o),
(213,629,o),
(200,629,cs),
(23,629,ls),
(10,629,o),
(1,620,o),
(1,607,cs),
(1,593,ls),
(1,580,o),
(10,571,o),
(23,571,cs)
);
},
{
ref = h;
}
);
width = 591;
},
{
color = 3;
hints = (
{
horizontal = 1;
place = (0, 0);
type = Tag;
}
);
layerId = "EC64484B-0978-4CB1-9EE9-C40A2D8C4059";
shapes = (
{
closed = 1;
nodes = (
(319,538,ls),
(334,538,o),
(346,550,o),
(346,565,cs),
(346,616,ls),
(346,631,o),
(334,643,o),
(319,643,cs),
(20,643,ls),
(5,643,o),
(-7,631,o),
(-7,616,cs),
(-7,565,ls),
(-7,550,o),
(5,538,o),
(20,538,cs)
);
},
{
ref = h;
}
);
width = 685;
}
);
metricRight = h;
unicode = 295;
userData = {
com.typemytype.robofont.guides = (
{
angle = 90;
isGlobal = 0;
magnetic = 5;
x = 189;
y = 0;
},
{
angle = 90;
isGlobal = 0;
magnetic = 5;
x = 110;
y = 0;
}
);
};
},
{
color = 6;
glyphname = i;
kernLeft = i;
kernRight = i;
layers = (
{
anchors = (
{
name = bottom;
pos = (112,0);
},
{
name = top;
pos = (112,710);
}
);
layerId = "581BC726-83A6-4935-8633-5A6508251040";
shapes = (
{
closed = 1;
nodes = (
(120,0,ls),
(133,0,o),
(142,9,o),
(142,22,cs),
(142,498,ls),
(142,511,o),
(133,520,o),
(120,520,cs),
(103,520,ls),
(90,520,o),
(81,511,o),
(81,498,cs),
(81,22,ls),
(81,9,o),
(90,0,o),
(103,0,cs)
);
},
{
closed = 1;
nodes = (
(130,627,ls),
(143,627,o),
(153,636,o),
(153,649,cs),
(153,687,ls),
(153,700,o),
(143,710,o),
(130,710,cs),
(92,710,ls),
(79,710,o),
(70,700,o),
(70,687,cs),
(70,649,ls),
(70,636,o),
(79,627,o),
(92,627,cs)
);
}
);
width = 223;
},
{
anchors = (
{
name = bottom;
pos = (162,0);
},
{
name = top;
pos = (166,772);
}
);
color = 6;
hints = (
{
horizontal = 1;
place = (0, 0);
type = Tag;
}
);
layerId = "EC64484B-0978-4CB1-9EE9-C40A2D8C4059";
shapes = (
{
closed = 1;
nodes = (
(251,0,ls),
(266,0,o),
(278,12,o),
(278,27,cs),
(278,493,ls),
(278,508,o),
(266,520,o),
(251,520,cs),
(72,520,ls),
(57,520,o),
(45,508,o),
(45,493,cs),
(45,27,ls),
(45,12,o),
(57,0,o),
(72,0,cs)
);
},
{
closed = 1;
nodes = (
(246,575,ls),
(261,575,o),
(273,587,o),
(273,602,cs),
(273,723,ls),
(273,738,o),
(261,750,o),
(246,750,cs),
(77,750,ls),
(62,750,o),
(50,738,o),
(50,723,cs),
(50,602,ls),
(50,587,o),
(62,575,o),
(77,575,cs)
);
}
);
width = 323;
}
);
unicode = 105;
userData = {
com.typemytype.robofont.guides = (
{
angle = 0;
isGlobal = 0;
magnetic = 5;
x = 0;
y = 510;
},
{
angle = 0;
isGlobal = 0;
magnetic = 5;
x = 0;
y = 22;
},
{
angle = 0;
isGlobal = 0;
magnetic = 5;
x = 0;
y = 627;
},
{
angle = 90;
isGlobal = 0;
magnetic = 5;
x = 79;
y = 0;
},
{
angle = 90;
isGlobal = 0;
magnetic = 5;
x = 121;
y = 0;
},
{
angle = 90;
isGlobal = 0;
magnetic = 5;
x = 70;
y = 0;
},
{
angle = 90;
isGlobal = 0;
magnetic = 5;
x = 131;
y = 0;
}
);
};
},
{
color = 6;
glyphname = idotless;
kernLeft = i;
kernRight = i;
layers = (
{
anchors = (
{
name = bottom;
pos = (112,0);
},
{
name = ogonek;
pos = (141,57);
},
{
name = top;
pos = (112,520);
}
);
layerId = "581BC726-83A6-4935-8633-5A6508251040";
shapes = (
{
closed = 1;
nodes = (
(120,0,ls),
(133,0,o),
(142,9,o),
(142,22,cs),
(142,498,ls),
(142,511,o),
(133,520,o),
(120,520,cs),
(103,520,ls),
(90,520,o),
(81,511,o),
(81,498,cs),
(81,22,ls),
(81,9,o),
(90,0,o),
(103,0,cs)
);
}
);
width = 223;
},
{
anchors = (
{
name = bottom;
pos = (162,0);
},
{
name = ogonek;
pos = (291,10);
},
{
name = top;
pos = (162,520);
}
);
color = 6;
hints = (
{
horizontal = 1;
place = (0, 0);
type = Tag;
}
);
layerId = "EC64484B-0978-4CB1-9EE9-C40A2D8C4059";
shapes = (
{
closed = 1;
nodes = (
(251,0,l),
(266,0,o),
(278,12,o),
(278,27,cs),
(278,493,ls),
(278,508,o),
(266,520,o),
(251,520,cs),
(72,520,ls),
(57,520,o),
(45,508,o),
(45,493,cs),
(45,27,ls),
(45,12,o),
(57,0,o),
(72,0,cs)
);
}
);
width = 323;
}
);
unicode = 305;
},
{
color = 6;
glyphname = iogonek;
kernLeft = i;
kernRight = i;
layers = (
{
layerId = "581BC726-83A6-4935-8633-5A6508251040";
shapes = (
{
closed = 1;
nodes = (
(151,-220,l),
(164,-220,o),
(173,-211,o),
(173,-198,c),
(173,-185,l),
(173,-172,o),
(164,-163,o),
(151,-163,c),
(136,-163,l),
(92,-163,o),
(60,-133,o),
(60,-82,cs),
(60,-31,o),
(92,0,o),
(136,0,c),
(141,0,l),
(154,0,o),
(163,9,o),
(163,22,c),
(163,498,l),
(163,511,o),
(154,520,o),
(141,520,c),
(124,520,l),
(111,520,o),
(102,511,o),
(102,498,c),
(102,64,l),
(102,62,o),
(102,60,o),
(102,58,c),
(102,54,l),
(39,42,o),
(0,-8,o),
(0,-82,cs),
(0,-167,o),
(51,-220,o),
(132,-220,c)
);
},
{
closed = 1;
nodes = (
(151,627,l),
(164,627,o),
(174,636,o),
(174,649,c),
(174,687,l),
(174,700,o),
(164,710,o),
(151,710,c),
(113,710,l),
(100,710,o),
(91,700,o),
(91,687,c),
(91,649,l),
(91,636,o),
(100,627,o),
(113,627,c)
);
}
);
width = 244;
},
{
color = 6;
hints = (
{
horizontal = 1;
place = (0, 0);
type = Tag;
},
{
horizontal = 1;
place = (0, 0);
type = Tag;
}
);
layerId = "EC64484B-0978-4CB1-9EE9-C40A2D8C4059";
shapes = (
{
closed = 1;
nodes = (
(251,-192,ls),
(266,-192,o),
(278,-180,o),
(278,-165,cs),
(278,-107,ls),
(278,-92,o),
(266,-80,o),
(251,-80,c),
(241,-80,ls),
(202,-80,o),
(191,-61,o),
(191,-40,cs),
(191,-19,o),
(202,0,o),
(241,0,cs),
(251,0,ls),
(266,0,o),
(278,12,o),
(278,27,cs),
(278,493,ls),
(278,508,o),
(266,520,o),
(251,520,cs),
(72,520,ls),
(57,520,o),
(45,508,o),
(45,493,cs),
(45,27,ls),
(45,12,o),
(57,0,o),
(72,0,cs),
(79,0,l),
(76,-12,o),
(75,-26,o),
(75,-40,cs),
(75,-125,o),
(126,-192,o),
(237,-192,cs)
);
},
{
closed = 1;
nodes = (
(246,575,ls),
(261,575,o),
(273,587,o),
(273,602,cs),
(273,723,ls),
(273,738,o),
(261,750,o),
(246,750,cs),
(77,750,ls),
(62,750,o),
(50,738,o),
(50,723,cs),
(50,602,ls),
(50,587,o),
(62,575,o),
(77,575,cs)
);
}
);
width = 323;
}
);
unicode = 303;
userData = {
com.typemytype.robofont.guides = (
{
angle = 0;
isGlobal = 0;
magnetic = 5;
x = 0;
y = 22;
},
{
angle = 90;
isGlobal = 0;
magnetic = 5;
x = 131;
y = 0;
}
);
};
},
{
color = 6;
glyphname = j;
kernRight = i;
layers = (
{
anchors = (
{
name = top;
pos = (120,710);
}
);
layerId = "581BC726-83A6-4935-8633-5A6508251040";
shapes = (
{
closed = 1;
nodes = (
(0,-190,ls),
(122,-190,o),
(151,-116,o),
(151,-22,cs),
(151,498,ls),
(151,511,o),
(142,520,o),
(129,520,cs),
(112,520,ls),
(99,520,o),
(90,511,o),
(90,498,cs),
(90,-22,ls),
(90,-83,o),
(81,-132,o),
(0,-132,cs),
(-4,-132,ls),
(-17,-132,o),
(-26,-141,o),
(-26,-154,cs),
(-26,-168,ls),
(-26,-181,o),
(-17,-190,o),
(-4,-190,cs)
);
},
{
closed = 1;
nodes = (
(139,627,ls),
(152,627,o),
(162,636,o),
(162,649,cs),
(162,687,ls),
(162,700,o),
(152,710,o),
(139,710,cs),
(101,710,ls),
(88,710,o),
(79,700,o),
(79,687,cs),
(79,649,ls),
(79,636,o),
(88,627,o),
(101,627,cs)
);
}
);
width = 233;
},
{
anchors = (
{
name = top;
pos = (179,772);
}
);
color = 6;
layerId = "EC64484B-0978-4CB1-9EE9-C40A2D8C4059";
shapes = (
{
closed = 1;
nodes = (
(45,-190,ls),
(190,-190,o),
(300,-121,o),
(300,29,cs),
(300,493,ls),
(300,508,o),
(288,520,o),
(273,520,cs),
(85,520,ls),
(70,520,o),
(58,508,o),
(58,493,cs),
(58,35,ls),
(58,4,o),
(45,-15,o),
(15,-15,cs),
(-43,-15,ls),
(-58,-15,o),
(-70,-27,o),
(-70,-42,cs),
(-70,-163,ls),
(-70,-178,o),
(-58,-190,o),
(-43,-190,cs)
);
},
{
closed = 1;
nodes = (
(268,575,ls),
(283,575,o),
(295,587,o),
(295,602,cs),
(295,723,ls),
(295,738,o),
(283,750,o),
(268,750,cs),
(90,750,ls),
(75,750,o),
(63,738,o),
(63,723,cs),
(63,602,ls),
(63,587,o),
(75,575,o),
(90,575,cs)
);
}
);
width = 345;
}
);
unicode = 106;
userData = {
com.typemytype.robofont.guides = (
{
angle = 0;
isGlobal = 0;
magnetic = 5;
x = 0;
y = 740;
},
{
angle = 0;
isGlobal = 0;
magnetic = 5;
x = 0;
y = "-190";
},
{
angle = 90;
isGlobal = 0;
magnetic = 5;
x = "-46";
y = 0;
}
);
};
},
{
color = 6;
glyphname = jdotless;
kernLeft = dotlessj;
kernRight = i;
layers = (
{
anchors = (
{
name = bottom;
pos = (135,-225);
},
{
name = top;
pos = (115,520);
}
);
layerId = "581BC726-83A6-4935-8633-5A6508251040";
shapes = (
{
closed = 1;
nodes = (
(36,-190,ls),
(158,-190,o),
(187,-116,o),
(187,-22,cs),
(187,498,ls),
(187,511,o),
(178,520,o),
(165,520,cs),
(42,520,ls),
(29,520,o),
(20,511,o),
(20,498,cs),
(20,484,ls),
(20,471,o),
(29,462,o),
(42,462,cs),
(126,462,l),
(126,-22,ls),
(126,-83,o),
(117,-132,o),
(36,-132,cs),
(32,-132,ls),
(19,-132,o),
(10,-141,o),
(10,-154,cs),
(10,-168,ls),
(10,-181,o),
(19,-190,o),
(32,-190,cs)
);
}
);
width = 269;
},
{
anchors = (
{
name = bottom;
pos = (241,-225);
},
{
name = top;
pos = (241,520);
}
);
color = 6;
hints = (
{
horizontal = 1;
place = (0, 0);
type = Tag;
}
);
layerId = "EC64484B-0978-4CB1-9EE9-C40A2D8C4059";
shapes = (
{
closed = 1;
nodes = (
(182,-190,l),
(327,-190,o),
(437,-94,o),
(437,70,cs),
(437,493,ls),
(437,508,o),
(425,520,o),
(410,520,cs),
(52,520,ls),
(37,520,o),
(25,508,o),
(25,493,cs),
(25,364,ls),
(25,349,o),
(37,337,o),
(52,337,cs),
(193,337,l),
(193,70,ls),
(193,39,o),
(180,20,o),
(150,20,cs),
(49,20,ls),
(34,20,o),
(22,8,o),
(22,-7,cs),
(22,-163,ls),
(22,-178,o),
(34,-190,o),
(49,-190,cs)
);
}
);
width = 482;
}
);
unicode = 567;
userData = {
com.typemytype.robofont.guides = (
{
angle = 0;
isGlobal = 0;
magnetic = 5;
x = 0;
y = "-190";
},
{
angle = 90;
isGlobal = 0;
magnetic = 5;
x = 45;
y = 0;
}
);
};
},
{
color = 6;
glyphname = k;
kernLeft = h;
kernRight = k;
layers = (
{
anchors = (
{
name = bottom;
pos = (244,0);
},
{
name = top;
pos = (244,750);
}
);
layerId = "581BC726-83A6-4935-8633-5A6508251040";
shapes = (
{
closed = 1;
nodes = (
(121,0,ls),
(134,0,o),
(143,9,o),
(143,22,cs),
(143,240,l),
(394,17,ls),
(412,1,o),
(416,0,o),
(436,0,cs),
(452,0,ls),
(464,0,o),
(472,8,o),
(472,20,cs),
(472,25,o),
(468,32,o),
(459,40,cs),
(181,288,l),
(434,480,ls),
(444,487,o),
(447,495,o),
(447,500,cs),
(447,512,o),
(439,520,o),
(427,520,cs),
(408,520,ls),
(388,520,o),
(385,517,o),
(366,503,cs),
(143,334,l),
(143,688,ls),
(143,701,o),
(134,710,o),
(121,710,cs),
(104,710,ls),
(91,710,o),
(82,701,o),
(82,688,cs),
(82,22,ls),
(82,9,o),
(91,0,o),
(104,0,cs)
);
}
);
width = 487;
},
{
anchors = (
{
name = bottom;
pos = (322,0);
},
{
name = top;
pos = (322,750);
}
);
color = 6;
hints = (
{
horizontal = 1;
place = (0, 0);
type = Tag;
}
);
layerId = "EC64484B-0978-4CB1-9EE9-C40A2D8C4059";
shapes = (
{
closed = 1;
nodes = (
(247,0,ls),
(262,0,o),
(274,12,o),
(274,27,cs),
(274,187,l),
(376,17,ls),
(378,14,o),
(387,0,o),
(407,0,cs),
(617,0,ls),
(630,0,o),
(641,11,o),
(641,24,cs),
(641,30,o),
(639,34,o),
(637,37,cs),
(475,286,l),
(612,481,ls),
(614,484,o),
(617,490,o),
(617,496,cs),
(617,509,o),
(606,520,o),
(593,520,cs),
(391,520,ls),
(373,520,o),
(365,508,o),
(362,503,cs),
(274,359,l),
(274,683,ls),
(274,698,o),
(262,710,o),
(247,710,cs),
(72,710,ls),
(57,710,o),
(45,698,o),
(45,683,cs),
(45,27,ls),
(45,12,o),
(57,0,o),
(72,0,cs)
);
}
);
width = 643;
}
);
unicode = 107;
userData = {
com.typemytype.robofont.guides = (
{
angle = 0;
isGlobal = 0;
magnetic = 5;
x = 0;
y = 520;
},
{
angle = 0;
isGlobal = 0;
magnetic = 5;
x = 0;
y = 710;
},
{
angle = 0;
isGlobal = 0;
magnetic = 5;
x = 0;
y = 260;
},
{
angle = 90;
isGlobal = 0;
magnetic = 5;
x = 460;
y = 0;
},
{
angle = 90;
isGlobal = 0;
magnetic = 5;
x = 430;
y = 0;
}
);
};
},
{
color = 6;
glyphname = kgreenlandic;
kernLeft = n;
kernRight = k;
layers = (
{
anchors = (
{
name = bottom;
pos = (244,0);
},
{
name = top;
pos = (244,520);
}
);
layerId = "581BC726-83A6-4935-8633-5A6508251040";
shapes = (
{
closed = 1;
nodes = (
(120,0,ls),
(133,0,o),
(142,9,o),
(142,22,cs),
(142,212,l),
(391,17,l),
(408,4,o),
(413,0,o),
(433,0,cs),
(451,0,ls),
(463,0,o),
(471,8,o),
(471,20,cs),
(471,25,o),
(467,33,o),
(458,40,cs),
(178,260,l),
(438,480,l),
(448,487,o),
(451,495,o),
(451,500,cs),
(451,512,o),
(443,520,o),
(431,520,cs),
(415,520,ls),
(395,520,o),
(392,517,o),
(373,503,c),
(142,308,l),
(142,498,ls),
(142,511,o),
(133,520,o),
(120,520,cs),
(103,520,ls),
(90,520,o),
(81,511,o),
(81,498,cs),
(81,22,ls),
(81,9,o),
(90,0,o),
(103,0,cs)
);
}
);
width = 488;
},
{
anchors = (
{
name = bottom;
pos = (322,0);
},
{
name = top;
pos = (322,520);
}
);
color = 6;
hints = (
{
horizontal = 1;
place = (0, 0);
type = Tag;
}
);
layerId = "EC64484B-0978-4CB1-9EE9-C40A2D8C4059";
shapes = (
{
closed = 1;
nodes = (
(247,0,ls),
(262,0,o),
(274,12,o),
(274,27,cs),
(274,187,l),
(376,17,ls),
(378,14,o),
(387,0,o),
(407,0,cs),
(617,0,ls),
(630,0,o),
(641,11,o),
(641,24,cs),
(641,30,o),
(639,34,o),
(637,37,cs),
(485,266,l),
(612,481,ls),
(614,484,o),
(617,490,o),
(617,496,cs),
(617,509,o),
(606,520,o),
(593,520,cs),
(401,520,ls),
(383,520,o),
(375,508,o),
(372,503,cs),
(274,329,l),
(274,493,ls),
(274,508,o),
(262,520,o),
(247,520,cs),
(72,520,ls),
(57,520,o),
(45,508,o),
(45,493,cs),
(45,27,ls),
(45,12,o),
(57,0,o),
(72,0,cs)
);
}
);
width = 643;
}
);
unicode = 312;
userData = {
com.typemytype.robofont.guides = (
{
angle = 0;
isGlobal = 0;
magnetic = 5;
x = 0;
y = 520;
},
{
angle = 0;
isGlobal = 0;
magnetic = 5;
x = 0;
y = 260;
}
);
};
},
{
color = 6;
glyphname = l;
kernLeft = l;
kernRight = l;
layers = (
{
anchors = (
{
name = bottom;
pos = (113,0);
},
{
name = center;
pos = (113,375);
},
{
name = top;
pos = (113,676);
},
{
name = topright;
pos = (210,710);
}
);
layerId = "581BC726-83A6-4935-8633-5A6508251040";
shapes = (
{
closed = 1;
nodes = (
(121,0,ls),
(134,0,o),
(143,9,o),
(143,22,cs),
(143,688,ls),
(143,701,o),
(134,710,o),
(121,710,cs),
(104,710,ls),
(91,710,o),
(82,701,o),
(82,688,cs),
(82,22,ls),
(82,9,o),
(91,0,o),
(104,0,cs)
);
}
);
width = 225;
},
{
anchors = (
{
name = bottom;
pos = (162,0);
},
{
name = center;
pos = (162,375);
},
{
name = top;
pos = (162,675);
},
{
name = topright;
pos = (440,710);
}
);
color = 6;
layerId = "EC64484B-0978-4CB1-9EE9-C40A2D8C4059";
shapes = (
{
closed = 1;
nodes = (
(251,0,ls),
(266,0,o),
(278,12,o),
(278,27,cs),
(278,683,ls),
(278,698,o),
(266,710,o),
(251,710,cs),
(72,710,ls),
(57,710,o),
(45,698,o),
(45,683,cs),
(45,27,ls),
(45,12,o),
(57,0,o),
(72,0,cs)
);
}
);
width = 323;
}
);
unicode = 108;
userData = {
com.typemytype.robofont.guides = (
{
angle = 0;
isGlobal = 0;
magnetic = 5;
x = 0;
y = 9;
},
{
angle = 0;
isGlobal = 0;
magnetic = 5;
x = 0;
y = 710;
}
);
};
},
{
color = 6;
glyphname = lslash;
kernLeft = l;
kernRight = l;
layers = (
{
layerId = "581BC726-83A6-4935-8633-5A6508251040";
shapes = (
{
closed = 1;
nodes = (
(133,0,ls),
(146,0,o),
(155,9,o),
(155,22,cs),
(155,341,l),
(203,360,ls),
(219,366,o),
(225,370,o),
(225,385,cs),
(225,404,ls),
(225,416,o),
(217,422,o),
(206,422,cs),
(202,422,o),
(198,421,o),
(193,419,cs),
(155,404,l),
(155,688,ls),
(155,701,o),
(146,710,o),
(133,710,cs),
(116,710,ls),
(103,710,o),
(94,701,o),
(94,688,cs),
(94,381,l),
(46,363,ls),
(30,357,o),
(24,353,o),
(24,338,cs),
(24,319,ls),
(24,307,o),
(32,301,o),
(43,301,cs),
(47,301,o),
(51,302,o),
(56,304,cs),
(94,318,l),
(94,22,ls),
(94,9,o),
(103,0,o),
(116,0,cs)
);
}
);
width = 247;
},
{
color = 6;
hints = (
{
horizontal = 1;
place = (0, 0);
type = Tag;
}
);
layerId = "EC64484B-0978-4CB1-9EE9-C40A2D8C4059";
shapes = (
{
closed = 1;
nodes = (
(290,0,ls),
(305,0,o),
(317,12,o),
(317,27,cs),
(317,319,l),
(355,334,ls),
(371,340,o),
(377,349,o),
(377,367,cs),
(377,475,ls),
(377,487,o),
(368,496,o),
(356,496,cs),
(354,496,o),
(350,495,o),
(345,493,cs),
(317,482,l),
(317,683,ls),
(317,698,o),
(305,710,o),
(290,710,cs),
(111,710,ls),
(96,710,o),
(84,698,o),
(84,683,cs),
(84,391,l),
(46,377,ls),
(30,371,o),
(24,362,o),
(24,344,cs),
(24,236,ls),
(24,224,o),
(33,215,o),
(45,215,cs),
(47,215,o),
(51,216,o),
(56,218,cs),
(84,229,l),
(84,27,ls),
(84,12,o),
(96,0,o),
(111,0,cs)
);
}
);
width = 400;
}
);
unicode = 322;
userData = {
com.typemytype.robofont.guides = (
{
angle = 0;
isGlobal = 0;
magnetic = 5;
x = 0;
y = 355;
},
{
angle = 90;
isGlobal = 0;
magnetic = 5;
x = 231;
y = 0;
},
{
angle = 90;
isGlobal = 0;
magnetic = 5;
x = 100;
y = 0;
},
{
angle = 90;
isGlobal = 0;
magnetic = 5;
x = 30;
y = 0;
}
);
};
},
{
color = 6;
glyphname = m;
kernLeft = n;
kernRight = n;
layers = (
{
anchors = (
{
name = bottom;
pos = (439,0);
},
{
name = top;
pos = (439,520);
}
);
layerId = "581BC726-83A6-4935-8633-5A6508251040";
shapes = (
{
closed = 1;
nodes = (
(120,0,ls),
(133,0,o),
(142,9,o),
(142,22,cs),
(142,304,ls),
(142,434,o),
(214,472,o),
(275,472,cs),
(342,472,o),
(411,434,o),
(411,303,cs),
(411,22,ls),
(411,9,o),
(420,0,o),
(433,0,cs),
(450,0,ls),
(463,0,o),
(472,9,o),
(472,22,cs),
(472,303,ls),
(472,434,o),
(544,472,o),
(605,472,cs),
(677,472,o),
(741,434,o),
(741,303,cs),
(741,22,ls),
(741,9,o),
(750,0,o),
(763,0,cs),
(780,0,ls),
(793,0,o),
(802,9,o),
(802,22,cs),
(802,313,ls),
(802,456,o),
(721,530,o),
(615,530,cs),
(538,530,o),
(476,493,o),
(445,436,c),
(414,497,o),
(360,530,o),
(285,530,cs),
(219,530,o),
(175,506,o),
(142,463,c),
(142,498,ls),
(142,511,o),
(133,520,o),
(120,520,cs),
(103,520,ls),
(90,520,o),
(81,511,o),
(81,498,cs),
(81,22,ls),
(81,9,o),
(90,0,o),
(103,0,cs)
);
}
);
width = 878;
},
{
anchors = (
{
name = bottom;
pos = (469,0);
},
{
name = top;
pos = (469,520);
}
);
color = 6;
hints = (
{
horizontal = 1;
place = (0, 0);
type = Tag;
},
{
horizontal = 1;
place = (0, 0);
type = Tag;
}
);
layerId = "EC64484B-0978-4CB1-9EE9-C40A2D8C4059";
shapes = (
{
closed = 1;
nodes = (
(252,0,ls),
(267,0,o),
(279,12,o),
(279,27,cs),
(279,302,ls),
(279,333,o),
(294,351,o),
(319,351,cs),
(344,351,o),
(359,334,o),
(359,302,cs),
(359,27,ls),
(359,12,o),
(371,0,o),
(386,0,cs),
(562,0,ls),
(577,0,o),
(589,12,o),
(589,27,cs),
(589,302,ls),
(589,334,o),
(603,351,o),
(628,351,cs),
(653,351,o),
(668,334,o),
(668,302,cs),
(668,27,ls),
(668,12,o),
(680,0,o),
(695,0,cs),
(871,0,ls),
(886,0,o),
(898,12,o),
(898,27,cs),
(898,307,ls),
(898,465,o),
(815,530,o),
(714,530,cs),
(653,530,o),
(592,494,o),
(561,448,c),
(534,506,o),
(482,533,o),
(403,530,cs),
(337,527,o),
(287,490,o),
(264,460,c),
(264,493,ls),
(264,508,o),
(252,520,o),
(237,520,cs),
(72,520,ls),
(57,520,o),
(45,508,o),
(45,493,cs),
(45,27,ls),
(45,12,o),
(57,0,o),
(72,0,cs)
);
}
);
width = 938;
}
);
unicode = 109;
},
{
color = 6;
glyphname = n;
kernLeft = n;
kernRight = n;
layers = (
{
anchors = (
{
name = bottom;
pos = (297,0);
},
{
name = top;
pos = (297,520);
}
);
layerId = "581BC726-83A6-4935-8633-5A6508251040";
shapes = (
{
closed = 1;
nodes = (
(120,0,ls),
(133,0,o),
(142,9,o),
(142,22,cs),
(142,301,ls),
(142,408,o),
(205,472,o),
(300,472,cs),
(400,472,o),
(453,407,o),
(453,301,cs),
(453,22,ls),
(453,9,o),
(462,0,o),
(475,0,cs),
(492,0,ls),
(505,0,o),
(514,9,o),
(514,22,cs),
(514,306,ls),
(514,433,o),
(446,530,o),
(310,530,cs),
(224,530,o),
(178,498,o),
(142,451,c),
(142,498,ls),
(142,511,o),
(133,520,o),
(120,520,cs),
(103,520,ls),
(90,520,o),
(81,511,o),
(81,498,cs),
(81,22,ls),
(81,9,o),
(90,0,o),
(103,0,cs)
);
}
);
width = 590;
},
{
anchors = (
{
name = bottom;
pos = (343,0);
},
{
name = top;
pos = (340,520);
}
);
color = 6;
hints = (
{
horizontal = 1;
place = (0, 0);
type = Tag;
},
{
horizontal = 1;
place = (0, 0);
type = Tag;
}
);
layerId = "EC64484B-0978-4CB1-9EE9-C40A2D8C4059";
shapes = (
{
closed = 1;
nodes = (
(262,0,ls),
(277,0,o),
(289,12,o),
(289,27,cs),
(289,296,ls),
(289,332,o),
(307,351,o),
(339,351,cs),
(371,351,o),
(389,332,o),
(389,296,cs),
(389,27,ls),
(389,12,o),
(401,0,o),
(416,0,cs),
(607,0,ls),
(622,0,o),
(634,12,o),
(634,27,cs),
(634,303,ls),
(634,461,o),
(541,530,o),
(440,530,cs),
(369,530,o),
(307,499,o),
(274,460,c),
(274,493,ls),
(274,508,o),
(262,520,o),
(247,520,cs),
(72,520,ls),
(57,520,o),
(45,508,o),
(45,493,cs),
(45,27,ls),
(45,12,o),
(57,0,o),
(72,0,cs)
);
}
);
width = 674;
}
);
unicode = 110;
userData = {
com.typemytype.robofont.guides = (
{
angle = 0;
isGlobal = 0;
magnetic = 5;
x = 0;
y = 530;
},
{
angle = 0;
isGlobal = 0;
magnetic = 5;
x = 0;
y = 301;
},
{
angle = 0;
isGlobal = 0;
magnetic = 5;
x = 0;
y = 650;
},
{
angle = 0;
isGlobal = 0;
magnetic = 5;
x = 0;
y = 407;
},
{
angle = 0;
isGlobal = 0;
magnetic = 5;
x = 0;
y = 451;
},
{
angle = 90;
isGlobal = 0;
magnetic = 5;
x = 291;
y = 0;
},
{
angle = 90;
isGlobal = 0;
magnetic = 5;
x = 131;
y = 0;
}
);
};
},
{
color = 3;
glyphname = napostrophe;
kernLeft = n;
kernRight = n;
layers = (
{
hints = (
{
horizontal = 1;
origin = (0,15);
type = Tag;
}
);
layerId = "581BC726-83A6-4935-8633-5A6508251040";
shapes = (
{
closed = 1;
nodes = (
(31,582,ls),
(46,582,o),
(52,590,o),
(57,603,cs),
(97,708,ls),
(100,715,o),
(101,721,o),
(101,726,cs),
(101,734,o),
(95,742,o),
(86,742,cs),
(41,742,ls),
(25,742,o),
(18,731,o),
(16,715,cs),
(-1,603,ls),
(-3,591,o),
(2,582,o),
(13,582,cs)
);
},
{
ref = n;
}
);
width = 590;
},
{
color = 3;
layerId = "EC64484B-0978-4CB1-9EE9-C40A2D8C4059";
shapes = (
{
closed = 1;
nodes = (
(30,550,ls),
(56,550,o),
(68,569,o),
(73,582,cs),
(128,721,ls),
(129,724,o),
(129,726,o),
(129,728,cs),
(129,740,o),
(119,750,o),
(107,750,cs),
(-33,750,ls),
(-60,750,o),
(-73,729,o),
(-76,711,c),
(-97,572,l),
(-97,560,o),
(-87,550,o),
(-75,550,cs)
);
},
{
ref = n;
}
);
width = 674;
}
);
metricRight = n;
unicode = 329;
userData = {
com.typemytype.robofont.guides = (
{
angle = 0;
isGlobal = 0;
magnetic = 5;
x = 0;
y = 575;
},
{
angle = 90;
isGlobal = 0;
magnetic = 5;
x = 286;
y = 0;
}
);
};
},
{
color = 6;
glyphname = eng;
kernLeft = n;
kernRight = n;
layers = (
{
layerId = "581BC726-83A6-4935-8633-5A6508251040";
shapes = (
{
closed = 1;
nodes = (
(363,-225,l),
(485,-225,o),
(514,-151,o),
(514,-57,c),
(514,306,l),
(514,433,o),
(446,530,o),
(310,530,cs),
(224,530,o),
(178,498,o),
(142,451,c),
(142,498,l),
(142,511,o),
(133,520,o),
(120,520,c),
(103,520,l),
(90,520,o),
(81,511,o),
(81,498,c),
(81,22,l),
(81,9,o),
(90,0,o),
(103,0,c),
(120,0,l),
(133,0,o),
(142,9,o),
(142,22,c),
(142,301,l),
(142,408,o),
(205,472,o),
(300,472,cs),
(400,472,o),
(453,407,o),
(453,301,c),
(453,-57,l),
(453,-118,o),
(444,-167,o),
(363,-167,c),
(359,-167,l),
(346,-167,o),
(337,-176,o),
(337,-189,c),
(337,-203,l),
(337,-216,o),
(346,-225,o),
(359,-225,c)
);
}
);
width = 590;
},
{
color = 6;
hints = (
{
horizontal = 1;
place = (0, 0);
type = Tag;
},
{
horizontal = 1;
place = (0, 0);
type = Tag;
}
);
layerId = "EC64484B-0978-4CB1-9EE9-C40A2D8C4059";
shapes = (
{
closed = 1;
nodes = (
(312,-225,ls),
(494,-225,o),
(634,-142,o),
(634,48,cs),
(634,303,ls),
(634,461,o),
(541,530,o),
(440,530,cs),
(369,530,o),
(307,499,o),
(274,460,c),
(274,493,ls),
(274,508,o),
(262,520,o),
(247,520,cs),
(72,520,ls),
(57,520,o),
(45,508,o),
(45,493,cs),
(45,27,ls),
(45,12,o),
(57,0,o),
(72,0,cs),
(262,0,ls),
(277,0,o),
(289,12,o),
(289,27,cs),
(289,296,ls),
(289,332,o),
(307,351,o),
(339,351,cs),
(371,351,o),
(389,332,o),
(389,296,cs),
(389,59,ls),
(389,-2,o),
(365,-22,o),
(322,-22,cs),
(283,-22,ls),
(268,-22,o),
(256,-34,o),
(256,-49,c),
(256,-198,ls),
(256,-213,o),
(268,-225,o),
(283,-225,cs)
);
}
);
width = 674;
}
);
unicode = 331;
userData = {
com.typemytype.robofont.guides = (
{
angle = 0;
isGlobal = 0;
magnetic = 5;
x = 0;
y = "-300";
},
{
angle = 90;
isGlobal = 0;
magnetic = 5;
x = 225;
y = 0;
}
);
};
},
{
color = 6;
glyphname = o;
kernLeft = o;
kernRight = o;
layers = (
{
anchors = (
{
name = bottom;
pos = (279,0);
},
{
name = center;
pos = (279,260);
},
{
name = ogonek;
pos = (502,10);
},
{
name = top;
pos = (279,520);
},
{
name = topright;
pos = (538,520);
}
);
layerId = "581BC726-83A6-4935-8633-5A6508251040";
shapes = (
{
closed = 1;
nodes = (
(423,-10,o),
(497,89,o),
(501,218,cs),
(502,238,o),
(502,282,o),
(501,302,cs),
(497,431,o),
(423,530,o),
(279,530,cs),
(135,530,o),
(61,431,o),
(57,302,cs),
(56,282,o),
(56,238,o),
(57,218,cs),
(61,89,o),
(135,-10,o),
(279,-10,cs)
);
},
{
closed = 1;
nodes = (
(186,48,o),
(122,109,o),
(118,223,cs),
(117,243,o),
(117,277,o),
(118,297,cs),
(122,411,o),
(186,472,o),
(279,472,cs),
(372,472,o),
(436,411,o),
(440,297,cs),
(441,277,o),
(441,243,o),
(440,223,cs),
(436,109,o),
(372,48,o),
(279,48,cs)
);
}
);
width = 558;
},
{
anchors = (
{
name = bottom;
pos = (321,0);
},
{
name = center;
pos = (321,260);
},
{
name = ogonek;
pos = (578,10);
},
{
name = top;
pos = (321,520);
},
{
name = topright;
pos = (622,520);
}
);
color = 6;
hints = (
{
horizontal = 1;
place = (0, 0);
type = Tag;
}
);
layerId = "EC64484B-0978-4CB1-9EE9-C40A2D8C4059";
shapes = (
{
closed = 1;
nodes = (
(505,-10,o),
(601,66,o),
(611,213,cs),
(613,243,o),
(613,277,o),
(611,307,cs),
(601,454,o),
(494,530,o),
(321,530,cs),
(148,530,o),
(41,454,o),
(31,307,cs),
(29,277,o),
(29,243,o),
(31,213,cs),
(41,66,o),
(137,-10,o),
(321,-10,cs)
);
},
{
closed = 1;
nodes = (
(283,150,o),
(279,171,o),
(276,218,cs),
(275,238,o),
(275,282,o),
(276,302,cs),
(279,346,o),
(283,370,o),
(321,370,cs),
(359,370,o),
(363,346,o),
(366,302,cs),
(367,282,o),
(367,238,o),
(366,218,cs),
(363,171,o),
(359,150,o),
(321,150,cs)
);
}
);
width = 642;
}
);
unicode = 111;
userData = {
com.typemytype.robofont.guides = (
{
angle = 0;
isGlobal = 0;
magnetic = 5;
x = 0;
y = 302;
},
{
angle = 0;
isGlobal = 0;
magnetic = 5;
x = 0;
y = 218;
},
{
angle = 0;
isGlobal = 0;
magnetic = 5;
x = 0;
y = 411;
},
{
angle = 0;
isGlobal = 0;
magnetic = 5;
x = 0;
y = 109;
},
{
angle = 90;
isGlobal = 0;
magnetic = 5;
x = 278;
y = 0;
},
{
angle = 90;
isGlobal = 0;
magnetic = 5;
x = 56;
y = 0;
},
{
angle = 90;
isGlobal = 0;
magnetic = 5;
x = 500;
y = 0;
}
);
};
},
{
color = 6;
glyphname = oe;
kernLeft = o;
kernRight = e;
layers = (
{
anchors = (
{
name = bottom;
pos = (466,0);
},
{
name = top;
pos = (466,520);
}
);
layerId = "581BC726-83A6-4935-8633-5A6508251040";
shapes = (
{
closed = 1;
nodes = (
(376,-10,o),
(440,33,o),
(474,101,c),
(510,32,o),
(575,-10,o),
(662,-10,cs),
(783,-10,o),
(861,73,o),
(863,111,cs),
(864,123,o),
(854,131,o),
(842,131,cs),
(826,131,ls),
(811,131,o),
(808,130,o),
(796,113,cs),
(785,97,o),
(742,48,o),
(662,48,cs),
(565,48,o),
(508,134,o),
(504,225,cs),
(504,235,l),
(860,235,ls),
(873,235,o),
(883,244,o),
(883,257,cs),
(883,272,ls),
(883,432,o),
(801,530,o),
(662,530,cs),
(574,530,o),
(510,487,o),
(474,418,c),
(440,486,o),
(376,530,o),
(280,530,cs),
(136,530,o),
(62,431,o),
(58,302,cs),
(57,282,o),
(57,238,o),
(58,218,cs),
(62,89,o),
(136,-10,o),
(280,-10,cs)
);
},
{
closed = 1;
nodes = (
(187,48,o),
(123,109,o),
(119,223,cs),
(118,243,o),
(118,277,o),
(119,297,cs),
(123,411,o),
(187,472,o),
(280,472,cs),
(373,472,o),
(437,411,o),
(441,297,cs),
(442,277,o),
(442,243,o),
(441,223,cs),
(437,109,o),
(373,48,o),
(280,48,cs)
);
},
{
closed = 1;
nodes = (
(504,295,ls),
(504,395,o),
(562,472,o),
(662,472,cs),
(762,472,o),
(822,395,o),
(822,295,cs),
(822,291,l),
(504,291,l)
);
}
);
width = 931;
},
{
anchors = (
{
name = bottom;
pos = (482,0);
},
{
name = top;
pos = (482,520);
}
);
color = 6;
hints = (
{
horizontal = 1;
place = (0, 0);
type = Tag;
},
{
horizontal = 1;
place = (0, 0);
type = Tag;
},
{
horizontal = 1;
place = (0, 0);
type = Tag;
},
{
horizontal = 1;
place = (0, 0);
type = Tag;
}
);
layerId = "EC64484B-0978-4CB1-9EE9-C40A2D8C4059";
shapes = (
{
closed = 1;
nodes = (
(391,-10,o),
(448,1,o),
(492,22,c),
(536,0,o),
(591,-10,o),
(654,-10,cs),
(839,-10,o),
(922,94,o),
(925,145,cs),
(926,158,o),
(916,167,o),
(903,167,c),
(714,167,l),
(698,167,o),
(693,165,o),
(681,153,cs),
(670,142,o),
(664,135,o),
(652,135,cs),
(623,135,o),
(613,156,o),
(613,196,c),
(613,201,l),
(911,201,l),
(926,201,o),
(938,213,o),
(938,228,c),
(938,258,l),
(938,405,o),
(849,530,o),
(653,530,cs),
(591,530,o),
(538,518,o),
(494,494,c),
(448,518,o),
(389,530,o),
(321,530,cs),
(148,530,o),
(41,454,o),
(31,307,cs),
(29,277,o),
(29,243,o),
(31,213,cs),
(41,66,o),
(137,-10,o),
(321,-10,cs)
);
},
{
closed = 1;
nodes = (
(283,150,o),
(279,171,o),
(276,218,cs),
(275,238,o),
(275,282,o),
(276,302,cs),
(279,346,o),
(283,370,o),
(321,370,cs),
(359,370,o),
(363,346,o),
(366,302,cs),
(367,282,o),
(367,238,o),
(366,218,cs),
(363,171,o),
(359,150,o),
(321,150,cs)
);
},
{
closed = 1;
nodes = (
(613,327,l),
(613,371,o),
(627,390,o),
(653,390,cs),
(679,390,o),
(693,371,o),
(693,327,c),
(693,326,l),
(613,326,l)
);
}
);
width = 963;
}
);
unicode = 339;
userData = {
com.typemytype.robofont.guides = (
{
angle = 90;
isGlobal = 0;
magnetic = 5;
x = 51;
y = 0;
},
{
angle = 90;
isGlobal = 0;
magnetic = 5;
x = 495;
y = 0;
}
);
};
},
{
color = 6;
glyphname = p;
kernLeft = n;
kernRight = b;
layers = (
{
anchors = (
{
name = bottom;
pos = (291,0);
},
{
name = top;
pos = (291,520);
}
);
layerId = "581BC726-83A6-4935-8633-5A6508251040";
shapes = (
{
closed = 1;
nodes = (
(121,-190,ls),
(134,-190,o),
(143,-181,o),
(143,-168,cs),
(143,69,l),
(176,25,o),
(228,-10,o),
(311,-10,cs),
(467,-10,o),
(521,110,o),
(525,227,cs),
(526,247,o),
(526,273,o),
(525,293,cs),
(521,410,o),
(467,530,o),
(311,530,cs),
(228,530,o),
(176,496,o),
(143,451,c),
(143,498,ls),
(143,511,o),
(134,520,o),
(121,520,cs),
(104,520,ls),
(91,520,o),
(82,511,o),
(82,498,cs),
(82,-168,ls),
(82,-181,o),
(91,-190,o),
(104,-190,cs)
);
},
{
closed = 1;
nodes = (
(194,48,o),
(145,138,o),
(143,218,cs),
(142,238,o),
(142,276,o),
(143,296,cs),
(146,378,o),
(191,472,o),
(305,472,cs),
(422,472,o),
(460,384,o),
(464,288,cs),
(465,268,o),
(465,252,o),
(464,232,cs),
(460,136,o),
(422,48,o),
(305,48,cs)
);
}
);
width = 581;
},
{
anchors = (
{
name = bottom;
pos = (331,0);
},
{
name = top;
pos = (331,520);
}
);
color = 6;
hints = (
{
horizontal = 1;
place = (0, 0);
type = Tag;
},
{
horizontal = 1;
place = (0, 0);
type = Tag;
}
);
layerId = "EC64484B-0978-4CB1-9EE9-C40A2D8C4059";
shapes = (
{
closed = 1;
nodes = (
(257,-190,ls),
(272,-190,o),
(284,-178,o),
(284,-163,cs),
(284,50,l),
(314,7,o),
(361,-10,o),
(417,-10,cs),
(533,-10,o),
(623,63,o),
(629,220,cs),
(630,250,o),
(630,269,o),
(629,299,cs),
(622,466,o),
(533,530,o),
(417,530,cs),
(348,530,o),
(299,502,o),
(269,463,c),
(269,493,ls),
(269,508,o),
(257,520,o),
(242,520,cs),
(72,520,ls),
(57,520,o),
(45,508,o),
(45,493,cs),
(45,-163,ls),
(45,-178,o),
(57,-190,o),
(72,-190,cs)
);
},
{
closed = 1;
nodes = (
(300,169,o),
(286,187,o),
(284,219,cs),
(282,249,o),
(282,263,o),
(284,293,cs),
(286,329,o),
(297,351,o),
(334,351,cs),
(371,351,o),
(380,329,o),
(384,293,cs),
(386,273,o),
(386,247,o),
(384,227,cs),
(380,191,o),
(371,169,o),
(334,169,cs)
);
}
);
width = 661;
}
);
unicode = 112;
userData = {
com.typemytype.robofont.guides = (
{
angle = 0;
isGlobal = 0;
magnetic = 5;
x = 0;
y = 530;
},
{
angle = 0;
isGlobal = 0;
magnetic = 5;
x = 0;
y = "-10";
},
{
angle = 0;
isGlobal = 0;
magnetic = 5;
x = 0;
y = 422;
},
{
angle = 0;
isGlobal = 0;
magnetic = 5;
x = 0;
y = "-190";
},
{
angle = 90;
isGlobal = 0;
magnetic = 5;
x = 419;
y = 0;
},
{
angle = 90;
isGlobal = 0;
magnetic = 5;
x = "-609";
y = 0;
},
{
angle = 90;
isGlobal = 0;
magnetic = 5;
x = 79;
y = 0;
},
{
angle = 90;
isGlobal = 0;
magnetic = 5;
x = 122;
y = 0;
},
{
angle = 90;
isGlobal = 0;
magnetic = 5;
x = 291;
y = 0;
}
);
};
},
{
color = 6;
glyphname = thorn;
kernLeft = h;
kernRight = b;
layers = (
{
anchors = (
{
name = bottom;
pos = (291,0);
},
{
name = top;
pos = (291,520);
}
);
layerId = "581BC726-83A6-4935-8633-5A6508251040";
shapes = (
{
closed = 1;
nodes = (
(121,-190,ls),
(134,-190,o),
(143,-181,o),
(143,-168,cs),
(143,69,l),
(176,25,o),
(228,-10,o),
(311,-10,cs),
(467,-10,o),
(521,110,o),
(525,227,cs),
(526,247,o),
(526,273,o),
(525,293,cs),
(521,410,o),
(467,530,o),
(311,530,cs),
(228,530,o),
(176,496,o),
(143,451,c),
(143,688,ls),
(143,701,o),
(134,710,o),
(121,710,cs),
(104,710,ls),
(91,710,o),
(82,701,o),
(82,688,cs),
(82,-168,ls),
(82,-181,o),
(91,-190,o),
(104,-190,cs)
);
},
{
closed = 1;
nodes = (
(194,48,o),
(145,138,o),
(143,218,cs),
(142,238,o),
(142,276,o),
(143,296,cs),
(146,378,o),
(191,472,o),
(305,472,cs),
(422,472,o),
(460,384,o),
(464,288,cs),
(465,268,o),
(465,252,o),
(464,232,cs),
(460,136,o),
(422,48,o),
(305,48,cs)
);
}
);
width = 581;
},
{
anchors = (
{
name = bottom;
pos = (331,0);
},
{
name = top;
pos = (331,520);
}
);
color = 6;
hints = (
{
horizontal = 1;
place = (0, 0);
type = Tag;
}
);
layerId = "EC64484B-0978-4CB1-9EE9-C40A2D8C4059";
shapes = (
{
closed = 1;
nodes = (
(258,-190,ls),
(273,-190,o),
(285,-178,o),
(285,-163,cs),
(285,50,l),
(315,7,o),
(362,-10,o),
(418,-10,cs),
(534,-10,o),
(624,63,o),
(630,220,cs),
(631,250,o),
(631,269,o),
(630,299,cs),
(623,466,o),
(534,530,o),
(418,530,cs),
(349,530,o),
(315,512,o),
(285,473,c),
(285,683,ls),
(285,698,o),
(273,710,o),
(258,710,cs),
(73,710,ls),
(58,710,o),
(46,698,o),
(46,683,cs),
(46,-163,ls),
(46,-178,o),
(58,-190,o),
(73,-190,cs)
);
},
{
closed = 1;
nodes = (
(301,169,o),
(287,187,o),
(285,219,cs),
(283,249,o),
(283,263,o),
(285,293,cs),
(287,329,o),
(298,351,o),
(335,351,cs),
(372,351,o),
(381,329,o),
(385,293,cs),
(387,273,o),
(387,247,o),
(385,227,cs),
(381,191,o),
(372,169,o),
(335,169,cs)
);
}
);
width = 662;
}
);
unicode = 254;
userData = {
com.typemytype.robofont.guides = (
{
angle = 0;
isGlobal = 0;
magnetic = 5;
x = 0;
y = 710;
}
);
};
},
{
color = 6;
glyphname = q;
kernLeft = d;
kernRight = u;
layers = (
{
anchors = (
{
name = bottom;
pos = (291,0);
},
{
name = top;
pos = (291,520);
}
);
layerId = "581BC726-83A6-4935-8633-5A6508251040";
shapes = (
{
closed = 1;
nodes = (
(477,-190,ls),
(490,-190,o),
(499,-181,o),
(499,-168,cs),
(499,498,ls),
(499,511,o),
(490,520,o),
(477,520,cs),
(460,520,ls),
(447,520,o),
(438,511,o),
(438,498,cs),
(438,451,l),
(405,496,o),
(353,530,o),
(270,530,cs),
(114,530,o),
(60,410,o),
(56,293,cs),
(55,273,o),
(55,247,o),
(56,227,cs),
(60,110,o),
(114,-10,o),
(270,-10,cs),
(353,-10,o),
(405,25,o),
(438,69,c),
(438,-168,ls),
(438,-181,o),
(447,-190,o),
(460,-190,cs)
);
},
{
closed = 1;
nodes = (
(159,48,o),
(121,136,o),
(117,232,cs),
(116,252,o),
(116,268,o),
(117,288,cs),
(121,384,o),
(159,472,o),
(276,472,cs),
(390,472,o),
(435,378,o),
(438,296,cs),
(439,276,o),
(439,238,o),
(438,218,cs),
(436,138,o),
(387,48,o),
(276,48,cs)
);
}
);
width = 581;
},
{
anchors = (
{
name = bottom;
pos = (331,0);
},
{
name = top;
pos = (331,520);
}
);
color = 6;
hints = (
{
horizontal = 1;
place = (0, 0);
type = Tag;
},
{
horizontal = 1;
place = (0, 0);
type = Tag;
}
);
layerId = "EC64484B-0978-4CB1-9EE9-C40A2D8C4059";
shapes = (
{
closed = 1;
nodes = (
(589,-190,ls),
(604,-190,o),
(616,-178,o),
(616,-163,cs),
(616,493,ls),
(616,508,o),
(604,520,o),
(589,520,cs),
(419,520,ls),
(404,520,o),
(392,508,o),
(392,493,cs),
(392,463,l),
(362,502,o),
(313,530,o),
(244,530,cs),
(128,530,o),
(39,466,o),
(32,299,cs),
(31,269,o),
(31,250,o),
(32,220,cs),
(38,63,o),
(128,-10,o),
(244,-10,cs),
(300,-10,o),
(347,7,o),
(377,50,c),
(377,-163,ls),
(377,-178,o),
(389,-190,o),
(404,-190,cs)
);
},
{
closed = 1;
nodes = (
(290,169,o),
(281,191,o),
(277,227,cs),
(275,247,o),
(275,273,o),
(277,293,cs),
(281,329,o),
(290,351,o),
(327,351,cs),
(364,351,o),
(375,329,o),
(377,293,cs),
(379,263,o),
(379,249,o),
(377,219,cs),
(375,187,o),
(361,169,o),
(327,169,cs)
);
}
);
width = 661;
}
);
unicode = 113;
userData = {
com.typemytype.robofont.guides = (
{
angle = 0;
isGlobal = 0;
magnetic = 5;
x = 0;
y = 530;
},
{
angle = 0;
isGlobal = 0;
magnetic = 5;
x = 0;
y = "-10";
},
{
angle = 0;
isGlobal = 0;
magnetic = 5;
x = 0;
y = "-190";
}
);
};
},
{
color = 6;
glyphname = r;
kernLeft = n;
kernRight = r;
layers = (
{
anchors = (
{
name = bottom;
pos = (112,0);
},
{
name = top;
pos = (191,520);
}
);
layerId = "581BC726-83A6-4935-8633-5A6508251040";
shapes = (
{
closed = 1;
nodes = (
(119,0,ls),
(132,0,o),
(142,9,o),
(142,22,cs),
(142,332,ls),
(142,412,o),
(192,462,o),
(272,462,cs),
(315,462,ls),
(328,462,o),
(337,471,o),
(337,484,cs),
(337,498,ls),
(337,511,o),
(328,520,o),
(315,520,cs),
(278,520,ls),
(211,520,o),
(166,497,o),
(142,451,c),
(142,497,ls),
(142,510,o),
(132,520,o),
(119,520,cs),
(103,520,ls),
(90,520,o),
(81,510,o),
(81,497,cs),
(81,22,ls),
(81,9,o),
(90,0,o),
(103,0,cs)
);
}
);
width = 348;
},
{
anchors = (
{
name = bottom;
pos = (164,0);
},
{
name = top;
pos = (277,520);
}
);
color = 6;
hints = (
{
horizontal = 1;
place = (0, 0);
type = Tag;
}
);
layerId = "EC64484B-0978-4CB1-9EE9-C40A2D8C4059";
shapes = (
{
closed = 1;
nodes = (
(262,0,ls),
(277,0,o),
(289,12,o),
(289,27,cs),
(289,250,ls),
(289,290,o),
(309,310,o),
(349,310,cs),
(478,310,ls),
(493,310,o),
(505,322,o),
(505,337,cs),
(505,493,ls),
(505,508,o),
(493,520,o),
(478,520,cs),
(430,520,ls),
(370,520,o),
(316,495,o),
(274,458,c),
(274,493,ls),
(274,508,o),
(262,520,o),
(247,520,cs),
(72,520,ls),
(57,520,o),
(45,508,o),
(45,493,cs),
(45,27,ls),
(45,12,o),
(57,0,o),
(72,0,cs)
);
}
);
width = 518;
}
);
unicode = 114;
userData = {
com.typemytype.robofont.guides = (
{
angle = 0;
isGlobal = 0;
magnetic = 5;
x = 0;
y = 462;
}
);
};
},
{
color = 6;
glyphname = s;
kernLeft = s;
kernRight = s;
layers = (
{
anchors = (
{
name = bottom;
pos = (246,0);
},
{
name = top;
pos = (243,520);
}
);
layerId = "581BC726-83A6-4935-8633-5A6508251040";
shapes = (
{
closed = 1;
nodes = (
(376,-10,o),
(445,59,o),
(445,139,cs),
(445,214,o),
(404,259,o),
(276,288,cs),
(149,317,o),
(123,340,o),
(123,385,cs),
(123,435,o),
(161,472,o),
(241,472,cs),
(321,472,o),
(345,443,o),
(366,411,cs),
(371,403,o),
(377,398,o),
(388,398,cs),
(403,398,ls),
(415,398,o),
(426,407,o),
(425,420,cs),
(423,449,o),
(371,530,o),
(241,530,cs),
(121,530,o),
(62,455,o),
(62,385,cs),
(62,320,o),
(89,270,o),
(216,241,cs),
(342,212,o),
(384,194,o),
(384,139,cs),
(384,79,o),
(326,48,o),
(246,48,cs),
(166,48,o),
(131,79,o),
(106,114,cs),
(97,126,o),
(92,127,o),
(84,127,cs),
(69,127,ls),
(60,127,o),
(46,120,o),
(47,105,cs),
(49,78,o),
(106,-10,o),
(246,-10,cs)
);
}
);
width = 492;
},
{
anchors = (
{
name = bottom;
pos = (295,0);
},
{
name = top;
pos = (295,520);
}
);
color = 6;
hints = (
{
horizontal = 1;
place = (0, 0);
type = Tag;
},
{
horizontal = 1;
place = (0, 0);
type = Tag;
}
);
layerId = "EC64484B-0978-4CB1-9EE9-C40A2D8C4059";
shapes = (
{
closed = 1;
nodes = (
(469,-10,o),
(569,55,o),
(569,162,cs),
(569,230,o),
(518,309,o),
(374,330,cs),
(270,345,o),
(264,357,o),
(264,374,cs),
(264,383,o),
(274,390,o),
(284,390,cs),
(313,390,o),
(328,360,o),
(357,360,cs),
(360,360,o),
(364,360,o),
(367,360,c),
(525,360,ls),
(537,360,o),
(548,372,o),
(547,387,cs),
(544,444,o),
(450,530,o),
(285,530,cs),
(120,530,o),
(32,445,o),
(32,359,cs),
(32,254,o),
(122,209,o),
(215,192,cs),
(314,174,o),
(319,162,o),
(319,145,cs),
(319,135,o),
(307,130,o),
(296,130,cs),
(265,130,o),
(250,157,o),
(224,160,cs),
(223,160,o),
(221,160,o),
(220,160,cs),
(46,160,ls),
(32,160,o),
(21,148,o),
(22,133,cs),
(25,80,o),
(97,-10,o),
(289,-10,cs)
);
}
);
width = 590;
}
);
unicode = 115;
userData = {
com.typemytype.robofont.guides = (
{
angle = 0;
isGlobal = 0;
magnetic = 5;
x = 0;
y = 265;
},
{
angle = 0;
isGlobal = 0;
magnetic = 5;
x = 0;
y = 139;
},
{
angle = 90;
isGlobal = 0;
magnetic = 5;
x = 250;
y = 0;
}
);
};
},
{
color = 6;
glyphname = scedilla;
kernLeft = s;
kernRight = s;
layers = (
{
layerId = "581BC726-83A6-4935-8633-5A6508251040";
shapes = (
{
closed = 1;
nodes = (
(323,-221,o),
(354,-180,o),
(354,-132,cs),
(354,-84,o),
(322,-50,o),
(278,-50,cs),
(263,-50,o),
(248,-53,o),
(240,-58,c),
(263,-10,l),
(382,-4,o),
(445,62,o),
(445,139,cs),
(445,214,o),
(404,259,o),
(276,288,cs),
(149,317,o),
(123,340,o),
(123,385,cs),
(123,435,o),
(161,472,o),
(241,472,cs),
(321,472,o),
(345,443,o),
(366,411,cs),
(371,403,o),
(377,398,o),
(388,398,cs),
(403,398,ls),
(415,398,o),
(426,407,o),
(425,420,cs),
(423,449,o),
(371,530,o),
(241,530,cs),
(121,530,o),
(62,455,o),
(62,385,cs),
(62,320,o),
(89,270,o),
(216,241,cs),
(342,212,o),
(384,194,o),
(384,139,cs),
(384,79,o),
(326,48,o),
(246,48,cs),
(166,48,o),
(131,79,o),
(106,114,cs),
(97,126,o),
(92,127,o),
(84,127,cs),
(69,127,ls),
(60,127,o),
(46,120,o),
(47,105,cs),
(48,79,o),
(94,7,o),
(208,-7,c),
(189,-53,ls),
(185,-63,o),
(177,-75,o),
(184,-83,cs),
(200,-100,ls),
(215,-116,o),
(228,-96,o),
(260,-96,cs),
(283,-96,o),
(303,-110,o),
(303,-134,cs),
(303,-159,o),
(283,-174,o),
(260,-174,cs),
(216,-174,o),
(209,-140,o),
(192,-156,cs),
(178,-169,ls),
(162,-184,o),
(203,-219,o),
(260,-220,cs)
);
}
);
width = 492;
},
{
color = 6;
hints = (
{
horizontal = 1;
place = (0, 0);
type = Tag;
}
);
layerId = "EC64484B-0978-4CB1-9EE9-C40A2D8C4059";
shapes = (
{
closed = 1;
nodes = (
(359,-220,o),
(398,-183,o),
(398,-130,cs),
(398,-77,o),
(368,-40,o),
(317,-40,cs),
(313,-40,o),
(295,-42,o),
(287,-45,c),
(305,-10,l),
(474,-6,o),
(569,58,o),
(569,162,cs),
(569,230,o),
(518,309,o),
(374,330,cs),
(270,345,o),
(264,357,o),
(264,374,cs),
(264,383,o),
(274,390,o),
(284,390,cs),
(313,390,o),
(328,360,o),
(357,360,cs),
(360,360,o),
(362,360,o),
(365,360,cs),
(525,360,ls),
(537,360,o),
(548,372,o),
(547,387,cs),
(544,444,o),
(450,530,o),
(285,530,cs),
(120,530,o),
(32,445,o),
(32,359,cs),
(32,254,o),
(122,209,o),
(215,192,cs),
(314,174,o),
(319,162,o),
(319,145,cs),
(319,135,o),
(307,130,o),
(296,130,cs),
(263,130,o),
(249,160,o),
(220,160,cs),
(217,160,o),
(215,160,o),
(212,160,cs),
(46,160,ls),
(32,160,o),
(21,148,o),
(22,133,cs),
(24,84,o),
(85,9,o),
(242,-7,c),
(222,-52,ls),
(213,-71,o),
(215,-76,o),
(224,-85,cs),
(245,-106,ls),
(258,-119,o),
(281,-106,o),
(299,-106,cs),
(319,-106,o),
(327,-118,o),
(327,-130,cs),
(327,-142,o),
(318,-154,o),
(299,-154,cs),
(265,-154,o),
(260,-136,o),
(243,-151,cs),
(222,-169,ls),
(199,-189,o),
(246,-220,o),
(299,-220,cs)
);
}
);
width = 590;
}
);
unicode = 351;
},
{
color = 6;
glyphname = germandbls;
kernLeft = h;
layers = (
{
anchors = (
{
name = bottom;
pos = (284,0);
},
{
name = top;
pos = (284,520);
}
);
layerId = "581BC726-83A6-4935-8633-5A6508251040";
shapes = (
{
closed = 1;
nodes = (
(121,0,ls),
(134,0,o),
(143,9,o),
(143,22,cs),
(143,497,ls),
(143,601,o),
(199,652,o),
(284,652,cs),
(369,652,o),
(426,600,o),
(426,528,cs),
(426,449,o),
(379,406,o),
(280,405,cs),
(225,405,ls),
(212,405,o),
(203,396,o),
(203,383,cs),
(203,369,ls),
(203,356,o),
(212,347,o),
(225,347,cs),
(290,347,ls),
(399,347,o),
(455,283,o),
(455,202,cs),
(455,122,o),
(399,58,o),
(290,58,c),
(225,58,ls),
(212,58,o),
(203,49,o),
(203,36,cs),
(203,22,ls),
(203,9,o),
(212,0,o),
(225,0,cs),
(300,0,ls),
(456,0,o),
(516,113,o),
(516,202,cs),
(516,272,o),
(492,347,o),
(397,377,c),
(437,395,o),
(487,442,o),
(487,528,cs),
(487,613,o),
(429,710,o),
(284,710,cs),
(139,710,o),
(82,611,o),
(82,502,cs),
(82,22,ls),
(82,9,o),
(91,0,o),
(104,0,cs)
);
}
);
width = 568;
},
{
anchors = (
{
name = bottom;
pos = (341,0);
},
{
name = top;
pos = (341,520);
}
);
color = 6;
hints = (
{
horizontal = 1;
place = (0, 0);
type = Tag;
}
);
layerId = "EC64484B-0978-4CB1-9EE9-C40A2D8C4059";
shapes = (
{
closed = 1;
nodes = (
(250,0,ls),
(265,0,o),
(277,12,o),
(277,27,c),
(277,459,ls),
(277,518,o),
(301,541,o),
(340,541,c),
(379,541,o),
(403,518,o),
(403,489,cs),
(403,460,o),
(376,439,o),
(339,438,c),
(336,438,l),
(311,438,o),
(307,426,o),
(307,411,cs),
(307,313,ls),
(307,298,o),
(315,286,o),
(336,286,c),
(338,286,l),
(384,286,o),
(409,262,o),
(409,227,cs),
(409,191,o),
(380,168,o),
(342,168,c),
(340,168,l),
(319,169,o),
(307,156,o),
(307,141,cs),
(307,27,ls),
(307,12,o),
(319,0,o),
(340,0,c),
(375,0,l),
(569,0,o),
(655,113,o),
(655,216,cs),
(655,303,o),
(620,348,o),
(566,375,c),
(607,407,o),
(625,447,o),
(625,502,cs),
(625,608,o),
(546,709,o),
(340,710,c),
(134,709,o),
(45,598,o),
(45,452,cs),
(45,27,ls),
(45,12,o),
(57,0,o),
(72,0,cs)
);
}
);
width = 682;
}
);
unicode = 223;
userData = {
com.typemytype.robofont.guides = (
{
angle = 0;
isGlobal = 0;
magnetic = 5;
x = 0;
y = 527;
},
{
angle = 0;
isGlobal = 0;
magnetic = 5;
x = 0;
y = 601;
},
{
angle = 90;
isGlobal = 0;
magnetic = 5;
x = 267;
y = 0;
},
{
angle = 90;
isGlobal = 0;
magnetic = 5;
x = 499;
y = 0;
}
);
};
},
{
color = 6;
glyphname = longs;
layers = (
{
anchors = (
{
name = bottom;
pos = (136,0);
},
{
name = top;
pos = (136,520);
}
);
layerId = "581BC726-83A6-4935-8633-5A6508251040";
shapes = (
{
closed = 1;
nodes = (
(169,0,ls),
(182,0,o),
(191,9,o),
(191,22,cs),
(191,572,l),
(191,633,o),
(200,682,o),
(281,682,cs),
(333,682,ls),
(346,682,o),
(355,691,o),
(355,704,cs),
(355,718,ls),
(355,731,o),
(346,740,o),
(333,740,cs),
(281,740,ls),
(159,740,o),
(130,666,o),
(130,572,cs),
(130,520,l),
(41,520,ls),
(28,520,o),
(19,511,o),
(19,498,cs),
(19,484,ls),
(19,471,o),
(28,462,o),
(41,462,cs),
(130,462,l),
(130,22,ls),
(130,9,o),
(139,0,o),
(152,0,cs)
);
}
);
width = 272;
},
{
anchors = (
{
name = bottom;
pos = (194,0);
},
{
name = top;
pos = (194,520);
}
);
color = 6;
hints = (
{
horizontal = 1;
place = (0, 0);
type = Tag;
}
);
layerId = "EC64484B-0978-4CB1-9EE9-C40A2D8C4059";
shapes = (
{
closed = 1;
nodes = (
(314,0,ls),
(329,0,o),
(341,12,o),
(341,27,cs),
(341,532,l),
(341,553,o),
(354,565,o),
(384,565,cs),
(465,565,ls),
(480,565,o),
(492,577,o),
(492,592,cs),
(492,713,ls),
(492,728,o),
(480,740,o),
(465,740,cs),
(372,740,ls),
(227,740,o),
(112,701,o),
(112,537,cs),
(112,520,l),
(43,520,ls),
(28,520,o),
(16,508,o),
(16,493,cs),
(16,372,ls),
(16,357,o),
(28,345,o),
(43,345,cs),
(112,345,l),
(112,27,ls),
(112,12,o),
(124,0,o),
(139,0,cs)
);
}
);
width = 387;
}
);
unicode = 383;
},
{
color = 6;
glyphname = t;
kernLeft = t;
kernRight = t;
layers = (
{
anchors = (
{
name = bottom;
pos = (230,0);
},
{
name = center;
pos = (180,260);
},
{
name = top;
pos = (180,520);
},
{
name = topright;
pos = (275,770);
}
);
layerId = "581BC726-83A6-4935-8633-5A6508251040";
shapes = (
{
closed = 1;
nodes = (
(315,0,ls),
(328,0,o),
(337,9,o),
(337,22,cs),
(337,36,ls),
(337,49,o),
(328,58,o),
(315,58,cs),
(261,58,ls),
(201,58,o),
(181,100,o),
(181,171,cs),
(181,462,l),
(305,462,ls),
(318,462,o),
(327,471,o),
(327,484,cs),
(327,498,ls),
(327,511,o),
(318,520,o),
(305,520,cs),
(181,520,l),
(181,688,ls),
(181,701,o),
(172,710,o),
(159,710,cs),
(142,710,ls),
(129,710,o),
(120,701,o),
(120,688,cs),
(120,520,l),
(42,520,ls),
(29,520,o),
(20,511,o),
(20,498,cs),
(20,484,ls),
(20,471,o),
(29,462,o),
(42,462,cs),
(120,462,l),
(120,167,ls),
(120,73,o),
(151,0,o),
(256,0,cs)
);
}
);
width = 359;
},
{
anchors = (
{
name = bottom;
pos = (311,0);
},
{
name = center;
pos = (242,260);
},
{
name = top;
pos = (266,520);
},
{
name = topright;
pos = (512,810);
}
);
color = 6;
hints = (
{
horizontal = 1;
place = (0, 0);
type = Tag;
}
);
layerId = "EC64484B-0978-4CB1-9EE9-C40A2D8C4059";
shapes = (
{
closed = 1;
nodes = (
(480,0,ls),
(495,0,o),
(507,12,o),
(507,27,cs),
(507,158,ls),
(507,173,o),
(495,185,o),
(480,185,cs),
(389,185,ls),
(359,185,o),
(346,204,o),
(346,235,cs),
(346,345,l),
(472,345,ls),
(487,345,o),
(499,357,o),
(499,372,cs),
(499,493,ls),
(499,508,o),
(487,520,o),
(472,520,cs),
(346,520,l),
(346,683,ls),
(346,698,o),
(334,710,o),
(319,710,cs),
(144,710,ls),
(129,710,o),
(117,698,o),
(117,683,cs),
(117,520,l),
(38,520,ls),
(23,520,o),
(11,508,o),
(11,493,cs),
(11,372,ls),
(11,357,o),
(23,345,o),
(38,345,cs),
(117,345,l),
(117,215,ls),
(117,51,o),
(222,0,o),
(367,0,cs)
);
}
);
width = 532;
}
);
unicode = 116;
userData = {
com.typemytype.robofont.guides = (
{
angle = 0;
isGlobal = 0;
magnetic = 5;
x = 0;
y = 175;
},
{
angle = 90;
isGlobal = 0;
magnetic = 5;
x = 342;
y = 0;
},
{
angle = 90;
isGlobal = 0;
magnetic = 5;
x = 35;
y = 0;
}
);
};
},
{
color = 6;
glyphname = tbar;
kernLeft = t;
kernRight = t;
layers = (
{
layerId = "581BC726-83A6-4935-8633-5A6508251040";
shapes = (
{
closed = 1;
nodes = (
(320,0,ls),
(333,0,o),
(342,9,o),
(342,22,cs),
(342,36,ls),
(342,49,o),
(333,58,o),
(320,58,cs),
(266,58,ls),
(206,58,o),
(186,100,o),
(186,171,cs),
(186,304,l),
(310,304,ls),
(323,304,o),
(332,313,o),
(332,326,cs),
(332,340,ls),
(332,353,o),
(323,362,o),
(310,362,cs),
(186,362,l),
(186,462,l),
(310,462,ls),
(323,462,o),
(332,471,o),
(332,484,cs),
(332,498,ls),
(332,511,o),
(323,520,o),
(310,520,cs),
(186,520,l),
(186,688,ls),
(186,701,o),
(177,710,o),
(164,710,cs),
(147,710,ls),
(134,710,o),
(125,701,o),
(125,688,cs),
(125,520,l),
(47,520,ls),
(34,520,o),
(25,511,o),
(25,498,cs),
(25,484,ls),
(25,471,o),
(34,462,o),
(47,462,cs),
(125,462,l),
(125,362,l),
(47,362,ls),
(34,362,o),
(25,353,o),
(25,340,cs),
(25,326,ls),
(25,313,o),
(34,304,o),
(47,304,cs),
(125,304,l),
(125,167,ls),
(125,73,o),
(156,0,o),
(261,0,cs)
);
}
);
width = 367;
},
{
color = 6;
hints = (
{
horizontal = 1;
place = (0, 0);
type = Tag;
}
);
layerId = "EC64484B-0978-4CB1-9EE9-C40A2D8C4059";
shapes = (
{
closed = 1;
nodes = (
(481,0,ls),
(496,0,o),
(508,12,o),
(508,27,cs),
(508,158,ls),
(508,173,o),
(496,185,o),
(481,185,cs),
(390,185,ls),
(360,185,o),
(347,204,o),
(347,235,cs),
(347,265,l),
(473,265,ls),
(488,265,o),
(500,277,o),
(500,292,cs),
(500,343,ls),
(500,358,o),
(488,370,o),
(473,370,cs),
(347,370,l),
(347,415,l),
(473,415,ls),
(488,415,o),
(500,427,o),
(500,442,cs),
(500,493,ls),
(500,508,o),
(488,520,o),
(473,520,cs),
(347,520,l),
(347,683,ls),
(347,698,o),
(335,710,o),
(320,710,cs),
(145,710,ls),
(130,710,o),
(118,698,o),
(118,683,cs),
(118,520,l),
(39,520,ls),
(24,520,o),
(12,508,o),
(12,493,cs),
(12,442,ls),
(12,427,o),
(24,415,o),
(39,415,cs),
(118,415,l),
(118,370,l),
(39,370,ls),
(24,370,o),
(12,358,o),
(12,343,cs),
(12,292,ls),
(12,277,o),
(24,265,o),
(39,265,cs),
(118,265,l),
(118,215,ls),
(118,51,o),
(223,0,o),
(368,0,cs)
);
}
);
width = 533;
}
);
unicode = 359;
userData = {
com.typemytype.robofont.guides = (
{
angle = 90;
isGlobal = 0;
magnetic = 5;
x = 342;
y = 0;
}
);
};
},
{
color = 6;
glyphname = u;
kernLeft = u;
kernRight = u;
layers = (
{
anchors = (
{
name = bottom;
pos = (293,0);
},
{
name = ogonek;
pos = (503,57);
},
{
name = top;
pos = (289,520);
},
{
name = topright;
pos = (565,520);
}
);
hints = (
{
horizontal = 1;
origin = (0,6);
type = Tag;
},
{
horizontal = 1;
origin = (0,22);
type = Tag;
}
);
layerId = "581BC726-83A6-4935-8633-5A6508251040";
shapes = (
{
closed = 1;
nodes = (
(362,-10,o),
(407,22,o),
(443,69,c),
(443,22,ls),
(443,9,o),
(452,0,o),
(465,0,cs),
(482,0,ls),
(495,0,o),
(504,9,o),
(504,22,cs),
(504,498,ls),
(504,511,o),
(495,520,o),
(482,520,cs),
(465,520,ls),
(452,520,o),
(443,511,o),
(443,498,cs),
(443,219,ls),
(443,112,o),
(381,48,o),
(286,48,cs),
(186,48,o),
(137,106,o),
(137,219,cs),
(137,498,ls),
(137,511,o),
(128,520,o),
(115,520,cs),
(98,520,ls),
(85,520,o),
(76,511,o),
(76,498,cs),
(76,214,ls),
(76,87,o),
(140,-10,o),
(276,-10,cs)
);
}
);
width = 585;
},
{
anchors = (
{
name = bottom;
pos = (337,0);
},
{
name = ogonek;
pos = (607,10);
},
{
name = top;
pos = (337,520);
},
{
name = topright;
pos = (654,520);
}
);
color = 6;
layerId = "EC64484B-0978-4CB1-9EE9-C40A2D8C4059";
shapes = (
{
closed = 1;
nodes = (
(305,-10,o),
(367,11,o),
(400,60,c),
(400,27,ls),
(400,12,o),
(412,0,o),
(427,0,cs),
(602,0,ls),
(617,0,o),
(629,12,o),
(629,27,cs),
(629,493,ls),
(629,508,o),
(617,520,o),
(602,520,cs),
(412,520,ls),
(397,520,o),
(385,508,o),
(385,493,cs),
(385,224,ls),
(385,188,o),
(367,169,o),
(335,169,cs),
(303,169,o),
(285,188,o),
(285,224,cs),
(285,493,ls),
(285,508,o),
(273,520,o),
(258,520,cs),
(67,520,ls),
(52,520,o),
(40,508,o),
(40,493,cs),
(40,217,l),
(40,59,o),
(133,-10,o),
(234,-10,cs)
);
}
);
width = 674;
}
);
unicode = 117;
userData = {
com.typemytype.robofont.guides = (
{
angle = 0;
isGlobal = 0;
magnetic = 5;
x = 0;
y = "-10";
},
{
angle = 90;
isGlobal = 0;
magnetic = 5;
x = 432;
y = 0;
},
{
angle = 90;
isGlobal = 0;
magnetic = 5;
x = 126;
y = 0;
},
{
angle = 90;
isGlobal = 0;
magnetic = 5;
x = 65;
y = 0;
}
);
};
},
{
color = 6;
glyphname = uogonek;
kernLeft = u;
kernRight = u;
layers = (
{
hints = (
{
horizontal = 1;
origin = (0,0);
type = Tag;
}
);
layerId = "581BC726-83A6-4935-8633-5A6508251040";
shapes = (
{
closed = 1;
nodes = (
(482,-220,ls),
(495,-220,o),
(504,-211,o),
(504,-198,cs),
(504,-185,ls),
(504,-172,o),
(495,-163,o),
(482,-163,cs),
(477,-163,ls),
(443,-163,o),
(421,-141,o),
(421,-90,cs),
(421,-45,o),
(442,-21,o),
(485,-2,c),
(488,0,l),
(500,6,o),
(504,14,o),
(504,22,cs),
(504,498,ls),
(504,511,o),
(495,520,o),
(482,520,cs),
(465,520,ls),
(452,520,o),
(443,511,o),
(443,498,cs),
(443,219,ls),
(443,112,o),
(381,48,o),
(286,48,cs),
(186,48,o),
(137,106,o),
(137,219,cs),
(137,498,ls),
(137,511,o),
(128,520,o),
(115,520,cs),
(98,520,ls),
(85,520,o),
(76,511,o),
(76,498,cs),
(76,214,ls),
(76,87,o),
(140,-10,o),
(276,-10,cs),
(362,-10,o),
(407,22,o),
(443,69,c),
(443,43,l),
(443,40,o),
(443,38,o),
(443,35,c),
(407,18,o),
(361,-26,o),
(361,-90,cs),
(361,-175,o),
(412,-220,o),
(473,-220,cs)
);
}
);
width = 585;
},
{
color = 6;
layerId = "EC64484B-0978-4CB1-9EE9-C40A2D8C4059";
shapes = (
{
closed = 1;
nodes = (
(602,-220,ls),
(617,-220,o),
(629,-208,o),
(629,-193,cs),
(629,-125,ls),
(629,-110,o),
(617,-98,o),
(602,-98,cs),
(592,-98,ls),
(553,-98,o),
(542,-70,o),
(542,-49,cs),
(542,-29,o),
(552,-2,o),
(586,0,c),
(602,0,ls),
(617,0,o),
(629,12,o),
(629,27,cs),
(629,493,ls),
(629,508,o),
(617,520,o),
(602,520,cs),
(412,520,ls),
(397,520,o),
(385,508,o),
(385,493,cs),
(385,224,ls),
(385,188,o),
(367,169,o),
(335,169,cs),
(303,169,o),
(285,188,o),
(285,224,cs),
(285,493,ls),
(285,508,o),
(273,520,o),
(258,520,cs),
(67,520,ls),
(52,520,o),
(40,508,o),
(40,493,cs),
(40,217,ls),
(40,59,o),
(133,-10,o),
(234,-10,cs),
(305,-10,o),
(367,11,o),
(400,60,c),
(400,27,ls),
(400,14,o),
(409,3,o),
(421,0,c),
(418,-15,o),
(416,-32,o),
(416,-49,cs),
(416,-144,o),
(467,-220,o),
(588,-220,cs)
);
}
);
width = 674;
}
);
unicode = 371;
userData = {
com.typemytype.robofont.guides = (
{
angle = 0;
isGlobal = 0;
magnetic = 5;
x = 0;
y = 213;
},
{
angle = 90;
isGlobal = 0;
magnetic = 5;
x = 493;
y = 0;
}
);
};
},
{
color = 6;
glyphname = v;
layers = (
{
anchors = (
{
name = bottom;
pos = (268,0);
},
{
name = top;
pos = (268,520);
}
);
hints = (
{
horizontal = 1;
origin = (0,30);
type = Tag;
}
);
layerId = "581BC726-83A6-4935-8633-5A6508251040";
shapes = (
{
closed = 1;
nodes = (
(276,0,ls),
(297,0,o),
(308,10,o),
(314,25,cs),
(498,489,ls),
(499,492,o),
(500,498,o),
(500,500,cs),
(500,511,o),
(491,520,o),
(480,520,cs),
(459,520,ls),
(446,520,o),
(439,510,o),
(437,505,cs),
(268,73,l),
(99,505,ls),
(97,510,o),
(90,520,o),
(77,520,cs),
(56,520,ls),
(45,520,o),
(36,511,o),
(36,500,cs),
(36,498,o),
(37,492,o),
(38,489,cs),
(222,25,ls),
(228,10,o),
(239,0,o),
(260,0,c)
);
}
);
width = 536;
},
{
anchors = (
{
name = bottom;
pos = (315,0);
},
{
name = top;
pos = (315,520);
}
);
color = 6;
layerId = "EC64484B-0978-4CB1-9EE9-C40A2D8C4059";
shapes = (
{
closed = 1;
nodes = (
(395,0,ls),
(415,0,o),
(422,13,o),
(428,25,c),
(620,489,ls),
(621,492,o),
(621,494,o),
(621,496,cs),
(621,509,o),
(610,520,o),
(597,520,cs),
(428,520,ls),
(408,520,o),
(399,507,o),
(395,496,cs),
(315,263,l),
(235,496,ls),
(231,507,o),
(222,520,o),
(202,520,cs),
(33,520,ls),
(20,520,o),
(9,509,o),
(9,496,cs),
(9,494,o),
(9,492,o),
(10,489,cs),
(202,25,l),
(208,13,o),
(215,0,o),
(235,0,cs)
);
}
);
width = 630;
}
);
unicode = 118;
userData = {
com.typemytype.robofont.guides = (
{
angle = 90;
isGlobal = 0;
magnetic = 5;
x = 267;
y = 0;
}
);
};
},
{
color = 6;
glyphname = w;
kernLeft = w;
kernRight = w;
layers = (
{
anchors = (
{
name = bottom;
pos = (393,0);
},
{
name = top;
pos = (393,520);
}
);
hints = (
{
horizontal = 1;
origin = (0,25);
type = Tag;
}
);
layerId = "581BC726-83A6-4935-8633-5A6508251040";
shapes = (
{
closed = 1;
nodes = (
(233,0,l),
(251,0,o),
(262,8,o),
(267,25,c),
(393,419,l),
(519,25,l),
(524,8,o),
(535,0,o),
(553,0,c),
(570,0,l),
(588,0,o),
(596,8,o),
(602,25,c),
(743,489,l),
(744,492,o),
(745,498,o),
(745,500,cs),
(745,511,o),
(736,520,o),
(725,520,c),
(706,520,l),
(693,520,o),
(685,510,o),
(684,505,c),
(561,89,l),
(430,500,l),
(428,508,o),
(420,520,o),
(403,520,c),
(383,520,l),
(366,520,o),
(358,508,o),
(356,500,c),
(225,89,l),
(102,505,l),
(101,510,o),
(93,520,o),
(80,520,c),
(61,520,l),
(50,520,o),
(41,511,o),
(41,500,cs),
(41,498,o),
(42,492,o),
(43,489,c),
(184,25,l),
(190,8,o),
(198,0,o),
(216,0,c)
);
}
);
width = 786;
},
{
anchors = (
{
name = bottom;
pos = (435,0);
},
{
name = top;
pos = (435,520);
}
);
color = 6;
layerId = "EC64484B-0978-4CB1-9EE9-C40A2D8C4059";
shapes = (
{
closed = 1;
nodes = (
(330,0,ls),
(350,0,o),
(359,13,o),
(363,25,cs),
(435,227,l),
(506,25,ls),
(510,13,o),
(519,0,o),
(539,0,cs),
(673,0,ls),
(693,0,o),
(702,13,o),
(706,25,cs),
(852,488,ls),
(853,492,o),
(853,494,o),
(853,496,cs),
(853,509,o),
(842,520,o),
(829,520,cs),
(675,520,ls),
(655,520,o),
(644,507,o),
(641,496,cs),
(580,288,l),
(515,496,ls),
(512,507,o),
(501,520,o),
(481,520,cs),
(388,520,ls),
(368,520,o),
(357,507,o),
(354,496,cs),
(289,288,l),
(228,496,ls),
(225,507,o),
(214,520,o),
(194,520,cs),
(40,520,ls),
(27,520,o),
(16,509,o),
(16,496,cs),
(16,494,o),
(16,492,o),
(17,488,cs),
(163,25,ls),
(167,13,o),
(176,0,o),
(196,0,cs)
);
}
);
width = 869;
}
);
unicode = 119;
userData = {
com.typemytype.robofont.guides = (
{
angle = 90;
isGlobal = 0;
magnetic = 5;
x = 45;
y = 0;
},
{
angle = 90;
isGlobal = 0;
magnetic = 5;
x = 737;
y = 0;
}
);
};
},
{
color = 6;
glyphname = x;
layers = (
{
anchors = (
{
name = bottom;
pos = (259,0);
},
{
name = top;
pos = (259,520);
}
);
hints = (
{
horizontal = 1;
origin = (0,5);
type = Tag;
}
);
layerId = "581BC726-83A6-4935-8633-5A6508251040";
shapes = (
{
closed = 1;
nodes = (
(75,0,ls),
(88,0,o),
(94,8,o),
(100,15,cs),
(258,217,l),
(416,15,ls),
(421,8,o),
(428,0,o),
(441,0,cs),
(462,0,ls),
(473,0,o),
(482,9,o),
(482,20,cs),
(482,25,o),
(481,31,o),
(474,40,cs),
(298,263,l),
(467,480,ls),
(474,489,o),
(475,495,o),
(475,500,cs),
(475,511,o),
(466,520,o),
(455,520,cs),
(435,520,ls),
(422,520,o),
(416,511,o),
(410,504,cs),
(260,312,l),
(110,505,ls),
(104,512,o),
(98,520,o),
(85,520,cs),
(64,520,ls),
(53,520,o),
(44,511,o),
(44,500,cs),
(44,495,o),
(45,489,o),
(52,480,cs),
(219,266,l),
(43,40,ls),
(36,31,o),
(35,25,o),
(35,20,cs),
(35,9,o),
(44,0,o),
(55,0,cs)
);
}
);
width = 518;
},
{
anchors = (
{
name = bottom;
pos = (315,0);
},
{
name = top;
pos = (315,520);
}
);
color = 6;
layerId = "EC64484B-0978-4CB1-9EE9-C40A2D8C4059";
shapes = (
{
closed = 1;
nodes = (
(215,0,ls),
(233,0,o),
(241,11,o),
(245,17,cs),
(314,114,l),
(380,17,ls),
(385,10,o),
(392,0,o),
(410,0,cs),
(602,0,ls),
(615,0,o),
(626,11,o),
(626,24,cs),
(626,28,o),
(625,33,o),
(622,37,cs),
(457,269,l),
(604,483,ls),
(606,486,o),
(608,490,o),
(608,497,cs),
(608,509,o),
(597,520,o),
(584,520,cs),
(409,520,ls),
(389,520,o),
(381,507,o),
(377,501,cs),
(319,412,l),
(261,501,ls),
(257,507,o),
(249,520,o),
(229,520,cs),
(46,520,ls),
(33,520,o),
(22,509,o),
(22,496,cs),
(22,491,o),
(24,486,o),
(26,483,cs),
(170,268,l),
(8,37,ls),
(5,33,o),
(4,27,o),
(4,24,cs),
(4,11,o),
(15,0,o),
(28,0,cs)
);
}
);
width = 630;
}
);
unicode = 120;
userData = {
com.typemytype.robofont.guides = (
{
angle = 90;
isGlobal = 0;
magnetic = 5;
x = 255;
y = 0;
}
);
};
},
{
color = 6;
glyphname = y;
kernLeft = y;
kernRight = y;
layers = (
{
anchors = (
{
name = bottom;
pos = (266,0);
},
{
name = top;
pos = (262,520);
}
);
hints = (
{
horizontal = 1;
origin = (0,3);
type = Tag;
}
);
layerId = "581BC726-83A6-4935-8633-5A6508251040";
shapes = (
{
closed = 1;
nodes = (
(189,-190,ls),
(202,-190,o),
(208,-183,o),
(212,-175,cs),
(496,480,ls),
(500,490,o),
(502,495,o),
(502,500,cs),
(502,511,o),
(493,520,o),
(482,520,cs),
(462,520,ls),
(449,520,o),
(443,513,o),
(439,505,cs),
(267,109,l),
(99,505,ls),
(96,513,o),
(89,520,o),
(76,520,cs),
(55,520,ls),
(44,520,o),
(35,511,o),
(35,500,cs),
(35,495,o),
(37,490,o),
(41,480,cs),
(232,30,l),
(155,-150,ls),
(151,-160,o),
(149,-165,o),
(149,-170,cs),
(149,-181,o),
(158,-190,o),
(169,-190,cs)
);
}
);
width = 532;
},
{
anchors = (
{
name = bottom;
pos = (318,0);
},
{
name = top;
pos = (323,520);
}
);
color = 6;
layerId = "EC64484B-0978-4CB1-9EE9-C40A2D8C4059";
shapes = (
{
closed = 1;
nodes = (
(312,-190,ls),
(332,-190,o),
(342,-178,o),
(347,-166,cs),
(629,489,l),
(630,493,o),
(630,496,o),
(630,499,cs),
(630,510,o),
(619,520,o),
(607,520,cs),
(440,520,ls),
(420,520,o),
(411,508,o),
(406,496,cs),
(321,268,l),
(239,496,ls),
(235,507,o),
(227,520,o),
(207,520,cs),
(38,520,ls),
(25,520,o),
(15,509,o),
(13,496,cs),
(13,494,o),
(13,492,o),
(14,489,cs),
(207,33,l),
(127,-159,ls),
(125,-163,o),
(126,-166,o),
(126,-169,cs),
(126,-181,o),
(136,-190,o),
(148,-190,cs)
);
}
);
width = 636;
}
);
unicode = 121;
},
{
color = 6;
glyphname = z;
kernLeft = z;
kernRight = z;
layers = (
{
anchors = (
{
name = bottom;
pos = (245,0);
},
{
name = center;
pos = (245,260);
},
{
name = top;
pos = (245,520);
}
);
hints = (
{
horizontal = 1;
origin = (0,8);
type = Tag;
}
);
layerId = "581BC726-83A6-4935-8633-5A6508251040";
shapes = (
{
closed = 1;
nodes = (
(430,0,ls),
(443,0,o),
(452,9,o),
(452,22,cs),
(452,36,ls),
(452,49,o),
(443,58,o),
(430,58,cs),
(126,58,l),
(418,450,ls),
(425,460,o),
(432,470,o),
(432,481,cs),
(432,498,ls),
(432,511,o),
(423,520,o),
(410,520,cs),
(74,520,ls),
(61,520,o),
(52,511,o),
(52,498,cs),
(52,484,ls),
(52,471,o),
(61,462,o),
(74,462,cs),
(350,462,l),
(56,70,ls),
(49,60,o),
(42,50,o),
(42,39,cs),
(42,22,ls),
(42,9,o),
(51,0,o),
(64,0,cs)
);
}
);
width = 490;
},
{
anchors = (
{
name = bottom;
pos = (295,0);
},
{
name = center;
pos = (295,260);
},
{
name = top;
pos = (297,520);
}
);
color = 6;
layerId = "EC64484B-0978-4CB1-9EE9-C40A2D8C4059";
shapes = (
{
closed = 1;
nodes = (
(533,0,ls),
(548,0,o),
(560,12,o),
(560,27,cs),
(560,145,ls),
(560,160,o),
(548,172,o),
(533,172,cs),
(335,172,l),
(525,338,ls),
(534,346,o),
(539,355,o),
(539,367,cs),
(539,493,ls),
(539,508,o),
(527,520,o),
(512,520,cs),
(70,520,ls),
(55,520,o),
(43,508,o),
(43,493,cs),
(43,375,ls),
(43,360,o),
(55,348,o),
(70,348,cs),
(251,348,l),
(52,177,ls),
(43,169,o),
(36,158,o),
(36,142,cs),
(36,27,ls),
(36,12,o),
(48,0,o),
(63,0,cs)
);
}
);
width = 590;
}
);
unicode = 122;
userData = {
com.typemytype.robofont.guides = (
{
angle = 0;
isGlobal = 0;
magnetic = 5;
x = 0;
y = 36;
},
{
angle = 90;
isGlobal = 0;
magnetic = 5;
x = 480;
y = 0;
},
{
angle = 90;
isGlobal = 0;
magnetic = 5;
x = 70;
y = 0;
}
);
};
},
{
color = 6;
glyphname = f_f;
kernLeft = f;
kernRight = f;
layers = (
{
anchors = (
{
name = caret_1;
pos = (321,0);
}
);
hints = (
{
horizontal = 1;
origin = (0,18);
type = Tag;
},
{
horizontal = 1;
origin = (0,23);
type = Tag;
}
);
layerId = "581BC726-83A6-4935-8633-5A6508251040";
shapes = (
{
closed = 1;
nodes = (
(169,0,l),
(182,0,o),
(191,9,o),
(191,22,c),
(191,462,l),
(412,462,l),
(412,22,l),
(412,9,o),
(421,0,o),
(434,0,c),
(451,0,l),
(464,0,o),
(473,9,o),
(473,22,c),
(473,462,l),
(605,462,l),
(618,462,o),
(627,471,o),
(627,484,c),
(627,498,l),
(627,511,o),
(618,520,o),
(605,520,c),
(473,520,l),
(473,572,l),
(473,643,o),
(492,682,o),
(563,682,c),
(615,682,l),
(628,682,o),
(637,691,o),
(637,704,c),
(637,718,l),
(637,731,o),
(628,740,o),
(615,740,c),
(563,740,l),
(441,740,o),
(412,666,o),
(412,577,c),
(412,520,l),
(191,520,l),
(191,572,l),
(191,643,o),
(210,682,o),
(281,682,c),
(333,682,l),
(346,682,o),
(355,691,o),
(355,704,c),
(355,718,l),
(355,731,o),
(346,740,o),
(333,740,c),
(281,740,l),
(159,740,o),
(130,666,o),
(130,577,c),
(130,520,l),
(41,520,l),
(28,520,o),
(19,511,o),
(19,498,c),
(19,484,l),
(19,471,o),
(28,462,o),
(41,462,c),
(130,462,l),
(130,22,l),
(130,9,o),
(139,0,o),
(152,0,c)
);
}
);
width = 642;
},
{
anchors = (
{
name = caret_1;
pos = (452,0);
}
);
color = 6;
layerId = "EC64484B-0978-4CB1-9EE9-C40A2D8C4059";
shapes = (
{
closed = 1;
nodes = (
(313,0,l),
(328,0,o),
(340,12,o),
(340,27,c),
(340,345,l),
(523,345,l),
(523,27,l),
(523,12,o),
(535,0,o),
(550,0,c),
(725,0,l),
(740,0,o),
(752,12,o),
(752,27,c),
(752,345,l),
(866,345,l),
(881,345,o),
(893,357,o),
(893,372,c),
(893,493,l),
(893,508,o),
(881,520,o),
(866,520,c),
(752,520,l),
(752,532,l),
(752,553,o),
(765,565,o),
(795,565,c),
(876,565,l),
(891,565,o),
(903,577,o),
(903,592,c),
(903,713,l),
(903,728,o),
(891,740,o),
(876,740,c),
(783,740,l),
(638,740,o),
(523,701,o),
(523,537,c),
(523,520,l),
(340,520,l),
(340,532,l),
(340,553,o),
(353,565,o),
(383,565,c),
(464,565,l),
(479,565,o),
(491,577,o),
(491,592,c),
(491,713,l),
(491,728,o),
(479,740,o),
(464,740,c),
(371,740,l),
(226,740,o),
(111,701,o),
(111,537,c),
(111,520,l),
(42,520,l),
(27,520,o),
(15,508,o),
(15,493,c),
(15,372,l),
(15,357,o),
(27,345,o),
(42,345,c),
(111,345,l),
(111,27,l),
(111,12,o),
(123,0,o),
(138,0,c)
);
}
);
width = 904;
}
);
userData = {
com.typemytype.robofont.guides = (
{
angle = 0;
isGlobal = 0;
magnetic = 5;
x = 0;
y = 345;
},
{
angle = 0;
isGlobal = 0;
magnetic = 5;
x = 0;
y = 9;
},
{
angle = 0;
isGlobal = 0;
magnetic = 5;
x = 0;
y = 740;
},
{
angle = 90;
isGlobal = 0;
magnetic = 5;
x = 297;
y = 0;
},
{
angle = 90;
isGlobal = 0;
magnetic = 5;
x = 371;
y = 0;
}
);
};
},
{
color = 6;
glyphname = f_f_i;
kernLeft = f;
kernRight = i;
layers = (
{
anchors = (
{
name = caret_1;
pos = (259,0);
},
{
name = caret_2;
pos = (518,0);
}
);
hints = (
{
horizontal = 1;
origin = (0,24);
type = Tag;
}
);
layerId = "581BC726-83A6-4935-8633-5A6508251040";
shapes = (
{
closed = 1;
nodes = (
(169,0,ls),
(182,0,o),
(191,9,o),
(191,22,cs),
(191,462,l),
(412,462,l),
(412,22,ls),
(412,9,o),
(421,0,o),
(434,0,cs),
(451,0,ls),
(464,0,o),
(473,9,o),
(473,22,cs),
(473,462,l),
(635,462,l),
(635,22,ls),
(635,9,o),
(644,0,o),
(657,0,cs),
(674,0,ls),
(687,0,o),
(696,9,o),
(696,22,cs),
(696,498,ls),
(696,511,o),
(687,520,o),
(674,520,cs),
(473,520,l),
(473,572,ls),
(473,643,o),
(492,682,o),
(563,682,cs),
(674,682,ls),
(687,682,o),
(696,691,o),
(696,704,cs),
(696,718,ls),
(696,731,o),
(687,740,o),
(674,740,cs),
(563,740,ls),
(441,740,o),
(412,666,o),
(412,577,cs),
(412,520,l),
(191,520,l),
(191,572,ls),
(191,643,o),
(210,682,o),
(281,682,cs),
(333,682,ls),
(346,682,o),
(355,691,o),
(355,704,cs),
(355,718,ls),
(355,731,o),
(346,740,o),
(333,740,cs),
(281,740,ls),
(159,740,o),
(130,666,o),
(130,577,cs),
(130,520,l),
(41,520,ls),
(28,520,o),
(19,511,o),
(19,498,cs),
(19,484,ls),
(19,471,o),
(28,462,o),
(41,462,cs),
(130,462,l),
(130,22,ls),
(130,9,o),
(139,0,o),
(152,0,cs)
);
}
);
width = 777;
},
{
anchors = (
{
name = caret_1;
pos = (399,0);
},
{
name = caret_2;
pos = (798,0);
}
);
color = 6;
layerId = "EC64484B-0978-4CB1-9EE9-C40A2D8C4059";
shapes = (
{
closed = 1;
nodes = (
(313,0,l),
(328,0,o),
(340,12,o),
(340,27,c),
(340,345,l),
(523,345,l),
(523,27,l),
(523,12,o),
(535,0,o),
(550,0,c),
(725,0,l),
(740,0,o),
(752,12,o),
(752,27,c),
(752,345,l),
(923,345,l),
(923,27,l),
(923,12,o),
(935,0,o),
(950,0,c),
(1125,0,l),
(1140,0,o),
(1152,12,o),
(1152,27,c),
(1152,493,l),
(1152,508,o),
(1140,520,o),
(1125,520,c),
(752,520,l),
(752,532,l),
(752,553,o),
(765,565,o),
(795,565,c),
(1125,565,l),
(1140,565,o),
(1152,577,o),
(1152,592,c),
(1152,713,l),
(1152,728,o),
(1140,740,o),
(1125,740,c),
(783,740,l),
(638,740,o),
(523,701,o),
(523,537,c),
(523,520,l),
(340,520,l),
(340,532,l),
(340,553,o),
(353,565,o),
(383,565,c),
(464,565,l),
(479,565,o),
(491,577,o),
(491,592,c),
(491,713,l),
(491,728,o),
(479,740,o),
(464,740,c),
(371,740,l),
(226,740,o),
(111,701,o),
(111,537,c),
(111,520,l),
(42,520,l),
(27,520,o),
(15,508,o),
(15,493,c),
(15,372,l),
(15,357,o),
(27,345,o),
(42,345,c),
(111,345,l),
(111,27,l),
(111,12,o),
(123,0,o),
(138,0,c)
);
}
);
width = 1197;
}
);
userData = {
com.typemytype.robofont.guides = (
{
angle = 90;
isGlobal = 0;
magnetic = 5;
x = 712;
y = 0;
}
);
};
},
{
color = 6;
glyphname = f_f_l;
kernLeft = f;
kernRight = l;
layers = (
{
anchors = (
{
name = caret_1;
pos = (279,0);
},
{
name = caret_2;
pos = (558,0);
}
);
hints = (
{
horizontal = 1;
origin = (0,4);
type = Tag;
}
);
layerId = "581BC726-83A6-4935-8633-5A6508251040";
shapes = (
{
closed = 1;
nodes = (
(169,0,ls),
(182,0,o),
(191,9,o),
(191,22,cs),
(191,462,l),
(412,462,l),
(412,22,ls),
(412,9,o),
(421,0,o),
(434,0,cs),
(451,0,ls),
(464,0,o),
(473,9,o),
(473,22,cs),
(473,462,l),
(694,462,l),
(694,22,ls),
(694,9,o),
(703,0,o),
(716,0,cs),
(733,0,ls),
(746,0,o),
(755,9,o),
(755,22,cs),
(755,718,ls),
(755,731,o),
(746,740,o),
(733,740,cs),
(716,740,ls),
(703,740,o),
(694,731,o),
(694,718,cs),
(694,520,l),
(473,520,l),
(473,572,ls),
(473,643,o),
(492,682,o),
(563,682,cs),
(615,682,ls),
(628,682,o),
(637,691,o),
(637,704,cs),
(637,718,ls),
(637,731,o),
(628,740,o),
(615,740,cs),
(563,740,ls),
(441,740,o),
(412,666,o),
(412,577,cs),
(412,520,l),
(191,520,l),
(191,572,ls),
(191,643,o),
(210,682,o),
(281,682,cs),
(333,682,ls),
(346,682,o),
(355,691,o),
(355,704,cs),
(355,718,ls),
(355,731,o),
(346,740,o),
(333,740,cs),
(281,740,ls),
(159,740,o),
(130,666,o),
(130,577,cs),
(130,520,l),
(41,520,ls),
(28,520,o),
(19,511,o),
(19,498,cs),
(19,484,ls),
(19,471,o),
(28,462,o),
(41,462,cs),
(130,462,l),
(130,22,ls),
(130,9,o),
(139,0,o),
(152,0,cs)
);
}
);
width = 837;
},
{
anchors = (
{
name = caret_1;
pos = (403,0);
},
{
name = caret_2;
pos = (806,0);
}
);
color = 6;
layerId = "EC64484B-0978-4CB1-9EE9-C40A2D8C4059";
shapes = (
{
closed = 1;
nodes = (
(313,0,l),
(328,0,o),
(340,12,o),
(340,27,c),
(340,345,l),
(523,345,l),
(523,27,l),
(523,12,o),
(535,0,o),
(550,0,c),
(725,0,l),
(740,0,o),
(752,12,o),
(752,27,c),
(752,345,l),
(935,345,l),
(935,27,l),
(935,12,o),
(947,0,o),
(962,0,c),
(1137,0,l),
(1152,0,o),
(1164,12,o),
(1164,27,c),
(1164,713,l),
(1164,728,o),
(1152,740,o),
(1137,740,c),
(962,740,l),
(947,740,o),
(935,728,o),
(935,713,c),
(935,520,l),
(752,520,l),
(752,532,l),
(752,553,o),
(765,565,o),
(795,565,c),
(856,565,l),
(871,565,o),
(883,577,o),
(883,592,c),
(883,713,l),
(883,728,o),
(871,740,o),
(856,740,c),
(783,740,l),
(638,740,o),
(523,701,o),
(523,537,c),
(523,520,l),
(340,520,l),
(340,532,l),
(340,553,o),
(353,565,o),
(383,565,c),
(464,565,l),
(479,565,o),
(491,577,o),
(491,592,c),
(491,713,l),
(491,728,o),
(479,740,o),
(464,740,c),
(371,740,l),
(226,740,o),
(111,701,o),
(111,537,c),
(111,520,l),
(42,520,l),
(27,520,o),
(15,508,o),
(15,493,c),
(15,372,l),
(15,357,o),
(27,345,o),
(42,345,c),
(111,345,l),
(111,27,l),
(111,12,o),
(123,0,o),
(138,0,c)
);
}
);
width = 1209;
}
);
},
{
color = 6;
glyphname = fi;
kernLeft = f;
kernRight = i;
layers = (
{
anchors = (
{
name = caret_1;
pos = (247.5,0);
}
);
hints = (
{
horizontal = 1;
origin = (0,14);
type = Tag;
}
);
layerId = "581BC726-83A6-4935-8633-5A6508251040";
shapes = (
{
closed = 1;
nodes = (
(169,0,ls),
(182,0,o),
(191,9,o),
(191,22,cs),
(191,462,l),
(353,462,l),
(353,22,ls),
(353,9,o),
(362,0,o),
(375,0,cs),
(392,0,ls),
(405,0,o),
(414,9,o),
(414,22,cs),
(414,498,ls),
(414,511,o),
(405,520,o),
(392,520,cs),
(191,520,l),
(191,572,ls),
(191,643,o),
(210,682,o),
(281,682,cs),
(392,682,ls),
(405,682,o),
(414,691,o),
(414,704,cs),
(414,718,ls),
(414,731,o),
(405,740,o),
(392,740,cs),
(281,740,ls),
(159,740,o),
(130,666,o),
(130,577,cs),
(130,520,l),
(41,520,ls),
(28,520,o),
(19,511,o),
(19,498,cs),
(19,484,ls),
(19,471,o),
(28,462,o),
(41,462,cs),
(130,462,l),
(130,22,ls),
(130,9,o),
(139,0,o),
(152,0,cs)
);
}
);
width = 495;
},
{
anchors = (
{
name = caret_1;
pos = (392.5,0);
}
);
color = 6;
layerId = "EC64484B-0978-4CB1-9EE9-C40A2D8C4059";
shapes = (
{
closed = 1;
nodes = (
(313,0,ls),
(328,0,o),
(340,12,o),
(340,27,cs),
(340,345,l),
(511,345,l),
(511,27,ls),
(511,12,o),
(523,0,o),
(538,0,cs),
(713,0,ls),
(728,0,o),
(740,12,o),
(740,27,cs),
(740,493,ls),
(740,508,o),
(728,520,o),
(713,520,cs),
(340,520,l),
(340,532,ls),
(340,553,o),
(353,565,o),
(383,565,cs),
(713,565,ls),
(728,565,o),
(740,577,o),
(740,592,cs),
(740,713,ls),
(740,728,o),
(728,740,o),
(713,740,cs),
(371,740,ls),
(226,740,o),
(111,701,o),
(111,537,cs),
(111,520,l),
(42,520,ls),
(27,520,o),
(15,508,o),
(15,493,cs),
(15,372,ls),
(15,357,o),
(27,345,o),
(42,345,cs),
(111,345,l),
(111,27,ls),
(111,12,o),
(123,0,o),
(138,0,cs)
);
}
);
width = 785;
}
);
unicode = 64257;
userData = {
com.typemytype.robofont.guides = (
{
angle = 90;
isGlobal = 0;
magnetic = 5;
x = 430;
y = 0;
},
{
angle = 90;
isGlobal = 0;
magnetic = 5;
x = 35;
y = 0;
}
);
};
},
{
color = 6;
glyphname = fl;
kernLeft = f;
kernRight = l;
layers = (
{
anchors = (
{
name = caret_1;
pos = (277.5,0);
}
);
hints = (
{
horizontal = 1;
origin = (0,49);
type = Tag;
}
);
layerId = "581BC726-83A6-4935-8633-5A6508251040";
shapes = (
{
closed = 1;
nodes = (
(169,0,ls),
(182,0,o),
(191,9,o),
(191,22,cs),
(191,462,l),
(412,462,l),
(412,22,ls),
(412,9,o),
(421,0,o),
(434,0,cs),
(451,0,ls),
(464,0,o),
(473,9,o),
(473,22,cs),
(473,718,ls),
(473,731,o),
(464,740,o),
(451,740,cs),
(434,740,ls),
(421,740,o),
(412,731,o),
(412,718,cs),
(412,520,l),
(191,520,l),
(191,572,ls),
(191,643,o),
(210,682,o),
(281,682,cs),
(333,682,ls),
(346,682,o),
(355,691,o),
(355,704,cs),
(355,718,ls),
(355,731,o),
(346,740,o),
(333,740,cs),
(281,740,ls),
(159,740,o),
(130,666,o),
(130,577,cs),
(130,520,l),
(41,520,ls),
(28,520,o),
(19,511,o),
(19,498,cs),
(19,484,ls),
(19,471,o),
(28,462,o),
(41,462,cs),
(130,462,l),
(130,22,ls),
(130,9,o),
(139,0,o),
(152,0,cs)
);
}
);
width = 555;
},
{
anchors = (
{
name = caret_1;
pos = (398.5,0);
}
);
color = 6;
layerId = "EC64484B-0978-4CB1-9EE9-C40A2D8C4059";
shapes = (
{
closed = 1;
nodes = (
(313,0,ls),
(328,0,o),
(340,12,o),
(340,27,cs),
(340,345,l),
(523,345,l),
(523,27,ls),
(523,12,o),
(535,0,o),
(550,0,cs),
(725,0,ls),
(740,0,o),
(752,12,o),
(752,27,cs),
(752,713,ls),
(752,728,o),
(740,740,o),
(725,740,cs),
(550,740,ls),
(535,740,o),
(523,728,o),
(523,713,cs),
(523,520,l),
(340,520,l),
(340,532,ls),
(340,553,o),
(353,565,o),
(383,565,cs),
(444,565,ls),
(459,565,o),
(471,577,o),
(471,592,cs),
(471,713,ls),
(471,728,o),
(459,740,o),
(444,740,cs),
(371,740,ls),
(226,740,o),
(111,701,o),
(111,537,cs),
(111,520,l),
(42,520,ls),
(27,520,o),
(15,508,o),
(15,493,cs),
(15,372,ls),
(15,357,o),
(27,345,o),
(42,345,cs),
(111,345,l),
(111,27,ls),
(111,12,o),
(123,0,o),
(138,0,cs)
);
}
);
width = 797;
}
);
unicode = 64258;
userData = {
com.typemytype.robofont.guides = (
{
angle = 90;
isGlobal = 0;
magnetic = 5;
x = 35;
y = 0;
}
);
};
},
{
color = 6;
glyphname = ordfeminine;
layers = (
{
hints = (
{
horizontal = 1;
origin = (0,24);
type = Tag;
}
);
layerId = "581BC726-83A6-4935-8633-5A6508251040";
shapes = (
{
closed = 1;
nodes = (
(187,429,o),
(223,444,o),
(234,463,c),
(234,456,ls),
(234,443,o),
(243,434,o),
(256,434,c),
(273,434,ls),
(286,434,o),
(295,443,o),
(295,456,cs),
(295,598,ls),
(295,660,o),
(253,705,o),
(187,705,cs),
(122,705,o),
(77,664,o),
(75,644,cs),
(74,631,o),
(84,627,o),
(97,627,cs),
(114,627,ls),
(136,627,o),
(140,647,o),
(184,647,cs),
(232,647,o),
(234,617,o),
(234,611,c),
(171,602,l),
(102,592,o),
(58,558,o),
(58,505,cs),
(58,463,o),
(93,429,o),
(151,429,cs)
);
},
{
closed = 1;
nodes = (
(138,483,o),
(120,492,o),
(120,507,cs),
(120,527,o),
(131,544,o),
(187,552,cs),
(234,559,l),
(234,519,o),
(214,483,o),
(160,483,cs)
);
}
);
width = 367;
},
{
color = 6;
layerId = "EC64484B-0978-4CB1-9EE9-C40A2D8C4059";
shapes = (
{
closed = 1;
nodes = (
(153,429,o),
(180,441,o),
(194,462,c),
(194,448,ls),
(194,441,o),
(201,434,o),
(209,434,cs),
(298,434,ls),
(306,434,o),
(312,441,o),
(312,448,cs),
(312,594,ls),
(312,670,o),
(268,705,o),
(175,705,cs),
(79,705,o),
(43,655,o),
(41,629,cs),
(40,622,o),
(45,617,o),
(51,617,cs),
(138,617,ls),
(155,617,o),
(156,633,o),
(173,633,cs),
(188,633,o),
(189,626,o),
(189,607,c),
(135,598,ls),
(66,586,o),
(22,560,o),
(22,510,cs),
(22,464,o),
(63,429,o),
(122,429,cs)
);
},
{
closed = 1;
nodes = (
(145,505,o),
(137,510,o),
(137,518,cs),
(137,525,o),
(143,532,o),
(161,537,cs),
(189,544,l),
(189,516,o),
(177,505,o),
(157,505,cs)
);
}
);
width = 351;
}
);
unicode = 170;
},
{
color = 6;
glyphname = ordmasculine;
layers = (
{
hints = (
{
horizontal = 1;
origin = (0,11);
type = Tag;
}
);
layerId = "581BC726-83A6-4935-8633-5A6508251040";
shapes = (
{
closed = 1;
nodes = (
(250,429,o),
(297,465,o),
(301,540,cs),
(302,550,o),
(302,584,o),
(301,594,cs),
(297,669,o),
(244,705,o),
(181,705,cs),
(118,705,o),
(65,669,o),
(61,594,cs),
(60,584,o),
(60,550,o),
(61,540,cs),
(65,465,o),
(112,429,o),
(181,429,cs)
);
},
{
closed = 1;
nodes = (
(144,487,o),
(124,507,o),
(122,545,cs),
(121,555,o),
(121,579,o),
(122,589,cs),
(124,624,o),
(144,647,o),
(181,647,cs),
(218,647,o),
(238,624,o),
(240,589,cs),
(241,579,o),
(241,555,o),
(240,545,cs),
(238,507,o),
(218,487,o),
(181,487,cs)
);
}
);
width = 361;
},
{
color = 6;
layerId = "EC64484B-0978-4CB1-9EE9-C40A2D8C4059";
shapes = (
{
closed = 1;
nodes = (
(274,429,o),
(320,470,o),
(324,540,cs),
(325,550,o),
(325,584,o),
(324,594,cs),
(320,664,o),
(268,705,o),
(175,705,cs),
(82,705,o),
(30,664,o),
(26,594,cs),
(25,584,o),
(25,550,o),
(26,540,cs),
(30,470,o),
(76,429,o),
(175,429,cs)
);
},
{
closed = 1;
nodes = (
(158,511,o),
(154,517,o),
(152,545,cs),
(151,555,o),
(151,579,o),
(152,589,cs),
(153,614,o),
(158,623,o),
(175,623,cs),
(192,623,o),
(197,614,o),
(198,589,cs),
(199,579,o),
(199,555,o),
(198,545,cs),
(196,517,o),
(192,511,o),
(175,511,cs)
);
}
);
width = 350;
}
);
unicode = 186;
userData = {
com.typemytype.robofont.guides = (
{
angle = 0;
isGlobal = 0;
magnetic = 5;
x = 0;
y = 589;
},
{
angle = 0;
isGlobal = 0;
magnetic = 5;
x = 0;
y = 545;
},
{
angle = 0;
isGlobal = 0;
magnetic = 5;
x = 0;
y = 429;
},
{
angle = 0;
isGlobal = 0;
magnetic = 5;
x = 0;
y = 705;
},
{
angle = 90;
isGlobal = 0;
magnetic = 5;
x = 134;
y = 0;
}
);
};
},
{
color = 6;
glyphname = "Be-cy";
kernLeft = afii10026;
layers = (
{
layerId = "581BC726-83A6-4935-8633-5A6508251040";
shapes = (
{
closed = 1;
nodes = (
(380,0,ls),
(526,0,o),
(590,115,o),
(590,204,cs),
(590,324,o),
(514,403,o),
(380,403,cs),
(157,403,l),
(157,640,l),
(532,640,ls),
(546,640,o),
(555,649,o),
(555,662,cs),
(555,677,ls),
(555,691,o),
(546,700,o),
(532,700,cs),
(116,700,ls),
(103,700,o),
(94,691,o),
(94,677,cs),
(94,22,ls),
(94,9,o),
(103,0,o),
(116,0,cs)
);
},
{
closed = 1;
nodes = (
(157,343,l),
(370,343,ls),
(477,343,o),
(527,288,o),
(527,207,cs),
(527,127,o),
(469,60,o),
(370,60,cs),
(157,60,l)
);
}
);
width = 632;
},
{
color = 6;
layerId = "EC64484B-0978-4CB1-9EE9-C40A2D8C4059";
shapes = (
{
closed = 1;
nodes = (
(395,0,ls),
(575,0,o),
(681,85,o),
(681,226,cs),
(681,365,o),
(570,447,o),
(395,447,cs),
(305,447,l),
(305,495,l),
(600,495,ls),
(615,495,o),
(627,507,o),
(627,522,cs),
(627,673,ls),
(627,688,o),
(615,700,o),
(600,700,cs),
(82,700,ls),
(67,700,o),
(55,688,o),
(55,673,cs),
(55,27,ls),
(55,12,o),
(67,0,o),
(82,0,cs)
);
},
{
closed = 1;
nodes = (
(305,280,l),
(375,280,ls),
(403,280,o),
(421,253,o),
(421,226,cs),
(421,199,o),
(406,172,o),
(375,172,cs),
(305,172,l)
);
}
);
width = 672;
}
);
unicode = 1041;
userData = {
com.typemytype.robofont.guides = (
{
angle = 0;
isGlobal = 0;
magnetic = 5;
x = 0;
y = 280;
},
{
angle = 0;
isGlobal = 0;
magnetic = 5;
x = 0;
y = 447;
},
{
angle = 90;
isGlobal = 0;
magnetic = 5;
x = 516;
y = 0;
}
);
};
},
{
color = 6;
glyphname = "Ge-cy";
kernLeft = afii10026;
kernRight = afii10020;
layers = (
{
anchors = (
{
name = bottomright;
pos = (134,0);
},
{
name = top;
pos = (314,700);
}
);
layerId = "581BC726-83A6-4935-8633-5A6508251040";
shapes = (
{
closed = 1;
nodes = (
(134,0,ls),
(148,0,o),
(157,9,o),
(157,22,cs),
(157,640,l),
(482,640,ls),
(496,640,o),
(505,649,o),
(505,662,cs),
(505,677,ls),
(505,691,o),
(496,700,o),
(482,700,cs),
(116,700,ls),
(103,700,o),
(94,691,o),
(94,677,cs),
(94,22,ls),
(94,9,o),
(103,0,o),
(116,0,cs)
);
}
);
width = 505;
},
{
anchors = (
{
name = bottomright;
pos = (174,0);
},
{
name = top;
pos = (350,700);
}
);
color = 6;
layerId = "EC64484B-0978-4CB1-9EE9-C40A2D8C4059";
shapes = (
{
closed = 1;
nodes = (
(278,0,ls),
(293,0,o),
(305,12,o),
(305,27,cs),
(305,495,l),
(552,495,ls),
(567,495,o),
(579,507,o),
(579,522,cs),
(579,673,ls),
(579,688,o),
(567,700,o),
(552,700,cs),
(82,700,ls),
(67,700,o),
(55,688,o),
(55,673,cs),
(55,27,ls),
(55,12,o),
(67,0,o),
(82,0,cs)
);
}
);
width = 599;
}
);
unicode = 1043;
userData = {
com.typemytype.robofont.guides = (
{
angle = 90;
isGlobal = 0;
magnetic = 5;
x = 516;
y = 0;
}
);
};
},
{
color = 6;
glyphname = "Gheupturn-cy";
layers = (
{
layerId = "581BC726-83A6-4935-8633-5A6508251040";
shapes = (
{
closed = 1;
nodes = (
(464,840,ls),
(451,840,o),
(442,831,o),
(442,818,cs),
(442,700,l),
(116,700,ls),
(103,700,o),
(94,691,o),
(94,677,cs),
(94,22,ls),
(94,9,o),
(103,0,o),
(116,0,cs),
(134,0,ls),
(148,0,o),
(157,9,o),
(157,22,cs),
(157,640,l),
(482,640,ls),
(496,640,o),
(505,649,o),
(505,662,cs),
(505,818,ls),
(505,831,o),
(496,840,o),
(482,840,cs)
);
}
);
width = 505;
},
{
color = 6;
layerId = "EC64484B-0978-4CB1-9EE9-C40A2D8C4059";
shapes = (
{
closed = 1;
nodes = (
(356,840,ls),
(341,840,o),
(329,828,o),
(329,813,cs),
(329,700,l),
(82,700,ls),
(67,700,o),
(55,688,o),
(55,673,cs),
(55,27,ls),
(55,12,o),
(67,0,o),
(82,0,cs),
(278,0,ls),
(293,0,o),
(305,12,o),
(305,27,cs),
(305,495,l),
(552,495,ls),
(567,495,o),
(579,507,o),
(579,522,cs),
(579,813,ls),
(579,828,o),
(567,840,o),
(552,840,cs)
);
}
);
width = 599;
}
);
metricLeft = "En-cy";
metricRight = "Ge-cy";
unicode = 1168;
},
{
color = 6;
glyphname = "Ghestroke-cy";
layers = (
{
layerId = "581BC726-83A6-4935-8633-5A6508251040";
shapes = (
{
closed = 1;
nodes = (
(134,0,ls),
(148,0,o),
(157,9,o),
(157,22,cs),
(157,640,l),
(482,640,ls),
(496,640,o),
(505,649,o),
(505,662,cs),
(505,677,ls),
(505,691,o),
(496,700,o),
(482,700,cs),
(116,700,ls),
(103,700,o),
(94,691,o),
(94,677,cs),
(94,22,ls),
(94,9,o),
(103,0,o),
(116,0,cs)
);
},
{
closed = 1;
nodes = (
(312,321,ls),
(325,321,o),
(334,330,o),
(334,343,cs),
(334,357,ls),
(334,370,o),
(325,379,o),
(312,379,cs),
(37,379,ls),
(24,379,o),
(15,370,o),
(15,357,cs),
(15,343,ls),
(15,330,o),
(24,321,o),
(37,321,cs)
);
}
);
width = 525;
},
{
color = 6;
layerId = "EC64484B-0978-4CB1-9EE9-C40A2D8C4059";
shapes = (
{
closed = 1;
nodes = (
(268,0,ls),
(283,0,o),
(295,12,o),
(295,27,cs),
(295,495,l),
(552,495,ls),
(567,495,o),
(579,507,o),
(579,522,cs),
(579,673,ls),
(579,688,o),
(567,700,o),
(552,700,cs),
(82,700,ls),
(67,700,o),
(55,688,o),
(55,673,cs),
(55,27,ls),
(55,12,o),
(67,0,o),
(82,0,cs)
);
},
{
closed = 1;
nodes = (
(385,269,ls),
(400,269,o),
(412,281,o),
(412,296,cs),
(412,364,ls),
(412,379,o),
(400,391,o),
(385,391,cs),
(10,391,ls),
(-5,391,o),
(-17,379,o),
(-17,364,cs),
(-17,296,ls),
(-17,281,o),
(-5,269,o),
(10,269,cs)
);
}
);
width = 599;
}
);
unicode = 1170;
},
